<?xml version="1.0" encoding="UTF-8"?><svg xmlns="http://www.w3.org/2000/svg" xmlns:xlink="http://www.w3.org/1999/xlink" viewBox="0 0 1000 400"><defs><style>.cls-1{fill:url(#_Áåçûìÿííûé_ãðàäèåíò_150);}.cls-1,.cls-2,.cls-3,.cls-4,.cls-5,.cls-6,.cls-7,.cls-8,.cls-9,.cls-10,.cls-11,.cls-12,.cls-13,.cls-14,.cls-15,.cls-16,.cls-17,.cls-18,.cls-19,.cls-20,.cls-21,.cls-22,.cls-23,.cls-24,.cls-25,.cls-26,.cls-27,.cls-28,.cls-29,.cls-30,.cls-31,.cls-32,.cls-33,.cls-34,.cls-35,.cls-36,.cls-37,.cls-38,.cls-39,.cls-40,.cls-41,.cls-42,.cls-43,.cls-44,.cls-45,.cls-46,.cls-47,.cls-48,.cls-49,.cls-50,.cls-51,.cls-52,.cls-53,.cls-54,.cls-55,.cls-56,.cls-57,.cls-58,.cls-59,.cls-60,.cls-61,.cls-62,.cls-63,.cls-64,.cls-65,.cls-66,.cls-67,.cls-68,.cls-69,.cls-70,.cls-71,.cls-72,.cls-73,.cls-74,.cls-75,.cls-76,.cls-77,.cls-78,.cls-79,.cls-80,.cls-81,.cls-82,.cls-83{fill-rule:evenodd;}.cls-1,.cls-2,.cls-4,.cls-8,.cls-84,.cls-9,.cls-10,.cls-11,.cls-15,.cls-16,.cls-17,.cls-18,.cls-20,.cls-22,.cls-23,.cls-24,.cls-25,.cls-27,.cls-28,.cls-30,.cls-31,.cls-32,.cls-35,.cls-36,.cls-37,.cls-38,.cls-39,.cls-44,.cls-46,.cls-47,.cls-48,.cls-49,.cls-50,.cls-51,.cls-52,.cls-54,.cls-55,.cls-56,.cls-61,.cls-63,.cls-64,.cls-66,.cls-68,.cls-69,.cls-72,.cls-73,.cls-75,.cls-76,.cls-77,.cls-79,.cls-80,.cls-81,.cls-83{mix-blend-mode:multiply;}.cls-1,.cls-2,.cls-8,.cls-10,.cls-11,.cls-15,.cls-18,.cls-22,.cls-23,.cls-25,.cls-27,.cls-28,.cls-30,.cls-36,.cls-38,.cls-39,.cls-44,.cls-46,.cls-47,.cls-48,.cls-49,.cls-50,.cls-56,.cls-61,.cls-63,.cls-64,.cls-69,.cls-73,.cls-75,.cls-77,.cls-81,.cls-83{opacity:.6;}.cls-2{fill:url(#_Áåçûìÿííûé_ãðàäèåíò_150-16);}.cls-3{fill:url(#_Áåçûìÿííûé_ãðàäèåíò_50);}.cls-4{fill:url(#_Áåçûìÿííûé_ãðàäèåíò_150-42);}.cls-4,.cls-20,.cls-37,.cls-51,.cls-55,.cls-66,.cls-68{opacity:.3;}.cls-5{fill:url(#_Áåçûìÿííûé_ãðàäèåíò_50-6);}.cls-6{fill:url(#_Áåçûìÿííûé_ãðàäèåíò_192-2);}.cls-6,.cls-65,.cls-70{mix-blend-mode:screen;}.cls-7{fill:url(#_Áåçûìÿííûé_ãðàäèåíò_50-5);}.cls-8{fill:url(#_Áåçûìÿííûé_ãðàäèåíò_150-11);}.cls-84{opacity:.7;}.cls-9{fill:url(#_Áåçûìÿííûé_ãðàäèåíò_150-27);}.cls-9,.cls-85,.cls-31,.cls-54,.cls-80{opacity:.8;}.cls-10{fill:url(#_Áåçûìÿííûé_ãðàäèåíò_150-39);}.cls-11{fill:url(#_Áåçûìÿííûé_ãðàäèåíò_150-6);}.cls-12{fill:#271624;}.cls-13{fill:url(#_Áåçûìÿííûé_ãðàäèåíò_50-4);}.cls-14{fill:url(#_Áåçûìÿííûé_ãðàäèåíò_79);}.cls-15{fill:url(#_Áåçûìÿííûé_ãðàäèåíò_150-12);}.cls-16{fill:url(#_Áåçûìÿííûé_ãðàäèåíò_150-36);}.cls-16,.cls-17,.cls-24,.cls-32,.cls-35,.cls-52,.cls-72,.cls-79{opacity:.5;}.cls-17{fill:url(#_Áåçûìÿííûé_ãðàäèåíò_150-49);}.cls-18{fill:url(#_Áåçûìÿííûé_ãðàäèåíò_150-18);}.cls-86{isolation:isolate;}.cls-19{fill:#907f82;}.cls-19,.cls-40,.cls-42,.cls-43,.cls-57,.cls-82{mix-blend-mode:soft-light;}.cls-20{fill:url(#_Áåçûìÿííûé_ãðàäèåíò_150-47);}.cls-21{fill:#857276;}.cls-22{fill:url(#_Áåçûìÿííûé_ãðàäèåíò_150-8);}.cls-23{fill:url(#_Áåçûìÿííûé_ãðàäèåíò_150-13);}.cls-24{fill:url(#_Áåçûìÿííûé_ãðàäèåíò_150-33);}.cls-25{fill:url(#_Áåçûìÿííûé_ãðàäèåíò_150-17);}.cls-26{fill:#726bed;}.cls-27{fill:url(#_Áåçûìÿííûé_ãðàäèåíò_150-9);}.cls-28{fill:url(#_Áåçûìÿííûé_ãðàäèåíò_150-15);}.cls-29{fill:#31025d;}.cls-30{fill:url(#_Áåçûìÿííûé_ãðàäèåíò_150-3);}.cls-31{fill:url(#_Áåçûìÿííûé_ãðàäèåíò_150-26);}.cls-32{fill:url(#_Áåçûìÿííûé_ãðàäèåíò_150-35);}.cls-33{fill:#88a2f8;}.cls-34{fill:url(#_Áåçûìÿííûé_ãðàäèåíò_191);}.cls-35{fill:url(#_Áåçûìÿííûé_ãðàäèåíò_150-34);}.cls-36{fill:url(#_Áåçûìÿííûé_ãðàäèåíò_150-4);}.cls-37{fill:url(#_Áåçûìÿííûé_ãðàäèåíò_150-45);}.cls-38{fill:url(#_Áåçûìÿííûé_ãðàäèåíò_150-20);}.cls-39{fill:url(#_Áåçûìÿííûé_ãðàäèåíò_150-23);}.cls-40{fill:#725c60;}.cls-41{fill:url(#_Áåçûìÿííûé_ãðàäèåíò_12-2);}.cls-42{fill:#a29396;}.cls-43{fill:#aa9d9f;}.cls-44{fill:url(#_Áåçûìÿííûé_ãðàäèåíò_150-21);}.cls-45{fill:url(#_Áåçûìÿííûé_ãðàäèåíò_12);}.cls-46{fill:url(#_Áåçûìÿííûé_ãðàäèåíò_150-2);}.cls-47{fill:url(#_Áåçûìÿííûé_ãðàäèåíò_150-25);}.cls-48{fill:url(#_Áåçûìÿííûé_ãðàäèåíò_150-28);}.cls-49{fill:url(#_Áåçûìÿííûé_ãðàäèåíò_150-31);}.cls-50{fill:url(#_Áåçûìÿííûé_ãðàäèåíò_150-40);}.cls-51{fill:url(#_Áåçûìÿííûé_ãðàäèåíò_150-43);}.cls-52{fill:url(#_Áåçûìÿííûé_ãðàäèåíò_150-32);}.cls-53{fill:url(#_Áåçûìÿííûé_ãðàäèåíò_194);}.cls-54{fill:url(#_Áåçûìÿííûé_ãðàäèåíò_150-51);}.cls-55{fill:url(#_Áåçûìÿííûé_ãðàäèåíò_150-41);}.cls-56{fill:url(#_Áåçûìÿííûé_ãðàäèåíò_150-7);}.cls-57{fill:#92959b;}.cls-58{fill:url(#_Áåçûìÿííûé_ãðàäèåíò_11);}.cls-59{fill:url(#_Áåçûìÿííûé_ãðàäèåíò_50-7);}.cls-60{fill:url(#_Áåçûìÿííûé_ãðàäèåíò_47);}.cls-61{fill:url(#_Áåçûìÿííûé_ãðàäèåíò_150-29);}.cls-62{fill:url(#_Áåçûìÿííûé_ãðàäèåíò_50-3);}.cls-63{fill:url(#_Áåçûìÿííûé_ãðàäèåíò_150-14);}.cls-64{fill:url(#_Áåçûìÿííûé_ãðàäèåíò_150-19);}.cls-65{fill:url(#_Áåçûìÿííûé_ãðàäèåíò_192);}.cls-66{fill:url(#_Áåçûìÿííûé_ãðàäèåíò_150-48);}.cls-67{fill:url(#_Áåçûìÿííûé_ãðàäèåíò_50-2);}.cls-68{fill:url(#_Áåçûìÿííûé_ãðàäèåíò_150-44);}.cls-69{fill:url(#_Áåçûìÿííûé_ãðàäèåíò_150-46);}.cls-70{fill:url(#_Áåçûìÿííûé_ãðàäèåíò_192-3);}.cls-71{fill:#755559;}.cls-72{fill:url(#_Áåçûìÿííûé_ãðàäèåíò_150-38);}.cls-73{fill:url(#_Áåçûìÿííûé_ãðàäèåíò_150-30);}.cls-74{fill:#766165;}.cls-75{fill:url(#_Áåçûìÿííûé_ãðàäèåíò_150-10);}.cls-76{fill:url(#_Áåçûìÿííûé_ãðàäèåíò_84);}.cls-77{fill:url(#_Áåçûìÿííûé_ãðàäèåíò_150-24);}.cls-78{fill:#8d7c7f;}.cls-79{fill:url(#_Áåçûìÿííûé_ãðàäèåíò_150-37);}.cls-80{fill:url(#_Áåçûìÿííûé_ãðàäèåíò_150-50);}.cls-81{fill:url(#_Áåçûìÿííûé_ãðàäèåíò_150-5);}.cls-82{fill:#b59aa0;}.cls-83{fill:url(#_Áåçûìÿííûé_ãðàäèåíò_150-22);}</style><linearGradient id="_Áåçûìÿííûé_ãðàäèåíò_12" x1="409.3789" y1="191.3988" x2="409.3789" y2="-1.7907" gradientUnits="userSpaceOnUse"><stop offset="0" stop-color="#4f525d"/><stop offset="1" stop-color="#402738"/></linearGradient><linearGradient id="_Áåçûìÿííûé_ãðàäèåíò_150" x1="409.3789" y1="191.3988" x2="409.3789" y2="-1.7907" gradientUnits="userSpaceOnUse"><stop offset="0" stop-color="#9d7c90"/><stop offset="1" stop-color="#775477"/></linearGradient><linearGradient id="_Áåçûìÿííûé_ãðàäèåíò_150-2" x1="427.2347" y1="83.0935" x2="427.2347" y2="70.9842" xlink:href="#_Áåçûìÿííûé_ãðàäèåíò_150"/><linearGradient id="_Áåçûìÿííûé_ãðàäèåíò_150-3" x1="422.0868" y1="66.2947" x2="422.0868" xlink:href="#_Áåçûìÿííûé_ãðàäèåíò_150"/><linearGradient id="_Áåçûìÿííûé_ãðàäèåíò_194" x1="140" y1="414" x2="140" y2=".2768" gradientUnits="userSpaceOnUse"><stop offset="0" stop-color="#4a4d58"/><stop offset="1" stop-color="#2c1b2d"/></linearGradient><linearGradient id="_Áåçûìÿííûé_ãðàäèåíò_150-4" x1="201.358" y1="414" x2="201.358" y2="-2.4105" xlink:href="#_Áåçûìÿííûé_ãðàäèåíò_150"/><linearGradient id="_Áåçûìÿííûé_ãðàäèåíò_150-5" x1="179.967" y1="169.5319" x2="179.967" y2=".2768" xlink:href="#_Áåçûìÿííûé_ãðàäèåíò_150"/><linearGradient id="_Áåçûìÿííûé_ãðàäèåíò_150-6" x1="65.3426" y1="406.19" x2="65.3426" y2=".2768" xlink:href="#_Áåçûìÿííûé_ãðàäèåíò_150"/><linearGradient id="_Áåçûìÿííûé_ãðàäèåíò_150-7" x1="147.5736" y1="259.0756" x2="147.5736" y2="-2.4105" xlink:href="#_Áåçûìÿííûé_ãðàäèåíò_150"/><linearGradient id="_Áåçûìÿííûé_ãðàäèåíò_150-8" x1="225.9586" y1="414" x2="225.9586" y2="169.5319" xlink:href="#_Áåçûìÿííûé_ãðàäèåíò_150"/><linearGradient id="_Áåçûìÿííûé_ãðàäèåíò_150-9" x1="91.0875" y1="404.9829" x2="91.0875" y2="96.4465" xlink:href="#_Áåçûìÿííûé_ãðàäèåíò_150"/><linearGradient id="_Áåçûìÿííûé_ãðàäèåíò_150-10" x1="115.7504" y1="406.19" x2="115.7504" y2="185.9983" xlink:href="#_Áåçûìÿííûé_ãðàäèåíò_150"/><linearGradient id="_Áåçûìÿííûé_ãðàäèåíò_150-11" x1="156.8497" y1="407.8522" x2="156.8497" y2="277.6843" xlink:href="#_Áåçûìÿííûé_ãðàäèåíò_150"/><linearGradient id="_Áåçûìÿííûé_ãðàäèåíò_47" x1="881.6705" y1="270.5579" x2="881.6705" y2="0" gradientUnits="userSpaceOnUse"><stop offset="0" stop-color="#4a4d62"/><stop offset="1" stop-color="#402738"/></linearGradient><linearGradient id="_Áåçûìÿííûé_ãðàäèåíò_150-12" x1="773.6654" y1="135.2789" x2="1000.2231" y2="135.2789" xlink:href="#_Áåçûìÿííûé_ãðàäèåíò_150"/><linearGradient id="_Áåçûìÿííûé_ãðàäèåíò_150-13" x1="807.8337" y1="23.8052" x2="941.2231" y2="23.8052" xlink:href="#_Áåçûìÿííûé_ãðàäèåíò_150"/><linearGradient id="_Áåçûìÿííûé_ãðàäèåíò_150-14" x1="763.1179" y1="49.5053" x2="861.3636" y2="49.5053" xlink:href="#_Áåçûìÿííûé_ãðàäèåíò_150"/><linearGradient id="_Áåçûìÿííûé_ãðàäèåíò_150-15" x1="773.6654" y1="45.1721" x2="959.2713" y2="45.1721" xlink:href="#_Áåçûìÿííûé_ãðàäèåíò_150"/><linearGradient id="_Áåçûìÿííûé_ãðàäèåíò_150-16" x1="897.3621" y1="193.5683" x2="1001.4211" y2="193.5683" xlink:href="#_Áåçûìÿííûé_ãðàäèåíò_150"/><linearGradient id="_Áåçûìÿííûé_ãðàäèåíò_150-17" x1="851.9179" y1="99.4947" x2="1000.2231" y2="99.4947" xlink:href="#_Áåçûìÿííûé_ãðàäèåíò_150"/><linearGradient id="_Áåçûìÿííûé_ãðàäèåíò_150-18" x1="817.8126" y1="106.0012" x2="883.4202" y2="106.0012" xlink:href="#_Áåçûìÿííûé_ãðàäèåíò_150"/><linearGradient id="_Áåçûìÿííûé_ãðàäèåíò_191" x1="201.3789" y1="400" x2="201.3789" y2="0" gradientUnits="userSpaceOnUse"><stop offset="0" stop-color="#595c66"/><stop offset="1" stop-color="#443444"/></linearGradient><linearGradient id="_Áåçûìÿííûé_ãðàäèåíò_150-19" x1="33.1263" y1="346.9789" x2="33.1263" y2="0" xlink:href="#_Áåçûìÿííûé_ãðàäèåíò_150"/><linearGradient id="_Áåçûìÿííûé_ãðàäèåíò_150-20" x1="164.2894" y1="148.5368" x2="164.2894" y2="0" xlink:href="#_Áåçûìÿííûé_ãðàäèåíò_150"/><linearGradient id="_Áåçûìÿííûé_ãðàäèåíò_150-21" x1="239.8579" y1="101.9696" x2="239.8579" y2="-.8961" xlink:href="#_Áåçûìÿííûé_ãðàäèåíò_150"/><linearGradient id="_Áåçûìÿííûé_ãðàäèåíò_150-22" x1="338.3791" y1="14.1469" x2="338.3791" y2="-.8961" xlink:href="#_Áåçûìÿííûé_ãðàäèåíò_150"/><linearGradient id="_Áåçûìÿííûé_ãðàäèåíò_150-23" x1="207.0158" y1="148.5368" x2="207.0158" y2="95.7368" xlink:href="#_Áåçûìÿííûé_ãðàäèåíò_150"/><linearGradient id="_Áåçûìÿííûé_ãðàäèåíò_150-24" x1="160.1213" y1="94.8041" x2="160.1213" y2="12.858" xlink:href="#_Áåçûìÿííûé_ãðàäèåíò_150"/><linearGradient id="_Áåçûìÿííûé_ãðàäèåíò_150-25" x1="16.7684" y1="234.62" x2="16.7684" y2="0" xlink:href="#_Áåçûìÿííûé_ãðàäèåíò_150"/><linearGradient id="_Áåçûìÿííûé_ãðàäèåíò_150-26" x1="86.1315" y1="86.2632" x2="86.1315" y2="0" xlink:href="#_Áåçûìÿííûé_ãðàäèåíò_150"/><linearGradient id="_Áåçûìÿííûé_ãðàäèåíò_150-27" x1="215.1116" y1="101.9696" x2="215.1116" y2="82.6" xlink:href="#_Áåçûìÿííûé_ãðàäèåíò_150"/><linearGradient id="_Áåçûìÿííûé_ãðàäèåíò_12-2" x1="594.0526" y1="141.9684" x2="594.0526" y2="0" xlink:href="#_Áåçûìÿííûé_ãðàäèåíò_12"/><linearGradient id="_Áåçûìÿííûé_ãðàäèåíò_150-28" x1="585.1474" y1="141.9684" x2="585.1474" y2="0" xlink:href="#_Áåçûìÿííûé_ãðàäèåíò_150"/><linearGradient id="_Áåçûìÿííûé_ãðàäèåíò_79" x1="142.7739" y1="358.7389" x2="142.7739" y2="65.0423" gradientTransform="translate(12.5202 -23.4832) rotate(3.2447) scale(1 1.1604)" gradientUnits="userSpaceOnUse"><stop offset="0" stop-color="#70737c"/><stop offset="1" stop-color="#5f4a58"/></linearGradient><linearGradient id="_Áåçûìÿííûé_ãðàäèåíò_150-29" x1="130.0434" y1="342.7477" x2="130.0434" y2="69.9723" gradientTransform="translate(12.5202 -23.4832) rotate(3.2447) scale(1 1.1604)" xlink:href="#_Áåçûìÿííûé_ãðàäèåíò_150"/><linearGradient id="_Áåçûìÿííûé_ãðàäèåíò_150-30" x1="115.6176" y1="379.484" x2="115.6176" y2="73.8205" xlink:href="#_Áåçûìÿííûé_ãðàäèåíò_150"/><linearGradient id="_Áåçûìÿííûé_ãðàäèåíò_192" x1="617.846" y1="371.5189" x2="617.846" y2="137.2151" gradientUnits="userSpaceOnUse"><stop offset="0" stop-color="#1f367c"/><stop offset=".189" stop-color="#17295f"/><stop offset=".5623" stop-color="#0a132b"/><stop offset=".8442" stop-color="#03050c"/><stop offset="1" stop-color="#000"/></linearGradient><linearGradient id="_Áåçûìÿííûé_ãðàäèåíò_192-2" y2="270.9163" xlink:href="#_Áåçûìÿííûé_ãðàäèåíò_192"/><linearGradient id="_Áåçûìÿííûé_ãðàäèåíò_192-3" x1="625.9726" x2="625.9726" y2="165.6059" xlink:href="#_Áåçûìÿííûé_ãðàäèåíò_192"/><linearGradient id="_Áåçûìÿííûé_ãðàäèåíò_11" x1="501" y1="447" x2="501" y2="330.8124" gradientUnits="userSpaceOnUse"><stop offset="0" stop-color="#6a625e"/><stop offset="1" stop-color="#695c69"/></linearGradient><linearGradient id="_Áåçûìÿííûé_ãðàäèåíò_150-31" x1=".9139" y1="401.1547" x2="706.2545" y2="401.1547" xlink:href="#_Áåçûìÿííûé_ãðàäèåíò_150"/><linearGradient id="_Áåçûìÿííûé_ãðàäèåíò_50" x1="661.9024" y1="451.9433" x2="652.8763" y2="363.4016" gradientUnits="userSpaceOnUse"><stop offset="0" stop-color="#382c44"/><stop offset="1" stop-color="#594c4c"/></linearGradient><linearGradient id="_Áåçûìÿííûé_ãðàäèåíò_50-2" x1="642.1816" y1="447.3652" x2="633.6629" y2="363.8005" xlink:href="#_Áåçûìÿííûé_ãðàäèåíò_50"/><linearGradient id="_Áåçûìÿííûé_ãðàäèåíò_150-32" x1="301.1139" y1="379.8603" x2="298.8188" y2="357.3468" xlink:href="#_Áåçûìÿííûé_ãðàäèåíò_150"/><linearGradient id="_Áåçûìÿííûé_ãðàäèåíò_150-33" x1="468.3288" y1="411.3776" x2="463.9988" y2="368.9015" xlink:href="#_Áåçûìÿííûé_ãðàäèåíò_150"/><linearGradient id="_Áåçûìÿííûé_ãðàäèåíò_150-34" x1="448.8171" y1="384.4165" x2="447.862" y2="375.0467" xlink:href="#_Áåçûìÿííûé_ãðàäèåíò_150"/><linearGradient id="_Áåçûìÿííûé_ãðàäèåíò_150-35" x1="423.3346" y1="379.5015" x2="422.8657" y2="374.9013" xlink:href="#_Áåçûìÿííûé_ãðàäèåíò_150"/><linearGradient id="_Áåçûìÿííûé_ãðàäèåíò_150-36" x1="470.5493" y1="395.6479" x2="806.6124" y2="395.6479" xlink:href="#_Áåçûìÿííûé_ãðàäèåíò_150"/><linearGradient id="_Áåçûìÿííûé_ãðàäèåíò_50-3" x1="766.4037" y1="437.2819" x2="758.0591" y2="355.4251" xlink:href="#_Áåçûìÿííûé_ãðàäèåíò_50"/><linearGradient id="_Áåçûìÿííûé_ãðàäèåíò_150-37" x1="601.0861" y1="417.6901" x2="937.9177" y2="417.6901" xlink:href="#_Áåçûìÿííûé_ãðàäèåíò_150"/><linearGradient id="_Áåçûìÿííûé_ãðàäèåíò_150-38" x1="560.8651" y1="368.4544" x2="745.9177" y2="368.4544" xlink:href="#_Áåçûìÿííûé_ãðàäèåíò_150"/><linearGradient id="_Áåçûìÿííûé_ãðàäèåíò_50-4" x1="902.1366" y1="352.0702" x2="899.651" y2="327.6871" xlink:href="#_Áåçûìÿííûé_ãðàäèåíò_50"/><linearGradient id="_Áåçûìÿííûé_ãðàäèåíò_150-39" x1="762.0168" y1="342.1872" x2="762.0168" y2="338.8038" xlink:href="#_Áåçûìÿííûé_ãðàäèåíò_150"/><linearGradient id="_Áåçûìÿííûé_ãðàäèåíò_150-40" x1="943.9229" y1="348.7438" x2="943.9229" y2="336.5009" xlink:href="#_Áåçûìÿííûé_ãðàäèåíò_150"/><linearGradient id="_Áåçûìÿííûé_ãðàäèåíò_150-41" x1="908.1378" y1="367.7076" x2="908.1378" y2="362.4795" xlink:href="#_Áåçûìÿííûé_ãðàäèåíò_150"/><linearGradient id="_Áåçûìÿííûé_ãðàäèåíò_150-42" x1="933.8124" y1="381.8981" x2="933.8124" y2="379.0396" xlink:href="#_Áåçûìÿííûé_ãðàäèåíò_150"/><linearGradient id="_Áåçûìÿííûé_ãðàäèåíò_150-43" x1="304.6966" y1="403.7066" x2="304.6966" y2="393.2505" xlink:href="#_Áåçûìÿííûé_ãðàäèåíò_150"/><linearGradient id="_Áåçûìÿííûé_ãðàäèåíò_150-44" x1="236.7029" y1="408.0146" x2="236.7029" y2="388.1846" xlink:href="#_Áåçûìÿííûé_ãðàäèåíò_150"/><linearGradient id="_Áåçûìÿííûé_ãðàäèåíò_150-45" x1="198.4247" y1="407.4907" x2="198.4247" y2="389.748" xlink:href="#_Áåçûìÿííûé_ãðàäèåíò_150"/><linearGradient id="_Áåçûìÿííûé_ãðàäèåíò_50-5" x1="903.988" y1="380.476" x2="900.7584" y2="348.7954" xlink:href="#_Áåçûìÿííûé_ãðàäèåíò_50"/><linearGradient id="_Áåçûìÿííûé_ãðàäèåíò_50-6" x1="940.7067" y1="372.9054" x2="938.89" y2="355.0849" xlink:href="#_Áåçûìÿííûé_ãðàäèåíò_50"/><linearGradient id="_Áåçûìÿííûé_ãðàäèåíò_150-46" x1="876.3388" y1="358.1643" x2="963.5598" y2="358.1643" xlink:href="#_Áåçûìÿííûé_ãðàäèåíò_150"/><linearGradient id="_Áåçûìÿííûé_ãðàäèåíò_50-7" x1="830.1383" y1="390.9765" x2="828.1165" y2="371.1438" xlink:href="#_Áåçûìÿííûé_ãðàäèåíò_50"/><linearGradient id="_Áåçûìÿííûé_ãðàäèåíò_150-47" x1="111.9981" y1="391.1592" x2="111.9981" y2="377.0516" xlink:href="#_Áåçûìÿííûé_ãðàäèåíò_150"/><linearGradient id="_Áåçûìÿííûé_ãðàäèåíò_150-48" x1="48.5898" y1="395.4911" x2="48.5898" y2="390.3029" xlink:href="#_Áåçûìÿííûé_ãðàäèåíò_150"/><linearGradient id="_Áåçûìÿííûé_ãðàäèåíò_150-49" x1="326.8019" y1="370.3285" x2="342.7171" y2="370.3285" xlink:href="#_Áåçûìÿííûé_ãðàäèåíò_150"/><linearGradient id="_Áåçûìÿííûé_ãðàäèåíò_150-50" x1="488.2335" y1="386.5088" x2="496.5703" y2="386.5088" xlink:href="#_Áåçûìÿííûé_ãðàäèåíò_150"/><linearGradient id="_Áåçûìÿííûé_ãðàäèåíò_150-51" x1="307.4718" y1="368.8257" x2="358.1921" y2="368.8257" xlink:href="#_Áåçûìÿííûé_ãðàäèåíò_150"/><linearGradient id="_Áåçûìÿííûé_ãðàäèåíò_84" x1="1.456" y1="398.8114" x2="1004.544" y2="398.8114" gradientUnits="userSpaceOnUse"><stop offset="0" stop-color="#776d90"/><stop offset="1" stop-color="#775477"/></linearGradient></defs><g class="cls-86"><g id="Fore"><g id="S1"><g><polygon class="cls-45" points="377.5342 39.2194 379.8483 41.662 385.1535 111.362 383.6378 120.483 389.1956 169.7462 391.9746 172.7777 401.322 191.3988 404.6062 191.3988 426.0799 83.0935 431.6378 72.483 447.2465 -.4071 371.5114 -1.7907 377.5342 39.2194"/><polygon class="cls-1" points="371.5114 -1.7907 377.5342 39.2194 379.8483 41.662 385.1535 111.362 383.6378 120.483 389.1956 169.7462 391.9746 172.7777 401.322 191.3988 404.6062 191.3988 393.4632 170.3759 388.0588 98.6726 388.0588 85.6947 393.4632 68.2706 404.4776 140.3288 409.7291 165.5605 405.7789 132.5895 395.8903 0 412.4105 -.4469 419.8422 9.3368 422.5976 66.2947 423.7962 30.5579 426.9613 4.4105 447.2465 -.4071 371.5114 -1.7907"/><polygon class="cls-46" points="426.0799 83.0935 422.8316 70.9842 424.4557 74.2684 431.6378 72.483 426.0799 83.0935"/><polygon class="cls-30" points="426.9613 4.4105 427.4684 -.7684 416.7053 -1.7907 419.8422 9.3368 422.5976 66.2947 423.7962 30.5579 426.9613 4.4105"/></g></g><g id="CL2"><g><polygon class="cls-53" points="280 414 227.0623 211.0721 220.0823 203.3303 190.6996 .2768 0 .2768 0 399.3545 280 414"/><polygon class="cls-26" points="280 414 227.0623 211.0721 227.3571 240.0849 231.6103 282.7147 193.5944 134.0166 201.3579 240.0849 197.4691 244.5207 197.4691 218.994 172.4312 48.3617 184.0381 259.0756 190.1162 250.7147 192.9321 261.8407 190.1162 276.2057 190.1162 305.7783 185.3703 267.7564 190.1162 353.3057 187.4934 379.2697 163.2736 185.9983 169.3826 353.1648 162.4649 407.8522 280 414"/><polygon class="cls-36" points="227.0623 211.0721 251.2803 330.4925 251.2803 375.6964 249.4668 390.4827 224.6946 290.3774 213.0246 235.7928 231.6103 282.7147 216.9154 228.5282 197.4691 169.5319 205.2475 223.2449 236.1962 370.701 239.2968 393.7216 234.6296 390.9052 227.3571 366.4021 205.2475 324.9954 217.7789 386.4809 221.6667 400.1994 190.1162 400.1994 139.9999 .2768 122.716 -2.4105 150.3777 141.6503 157.2839 180.5201 150.3703 169.5319 134.8147 101.516 146.4814 180.5201 150.3703 267.7564 151.2345 189.9127 157.7159 212.1546 179.3209 353.3057 169.3826 400.1994 162.4649 400.1994 157.7159 354.1507 151.2345 277.6843 154.6647 407.4443 280 414 227.0623 211.0721"/><polygon class="cls-81" points="162.4649 .2768 181.8006 96.4465 197.4691 169.5319 179.967 9.1081 190.6996 .2768 162.4649 .2768"/><polygon class="cls-11" points="130.6853 406.19 101.5432 141.6503 90.7407 .2768 80.3703 .2768 98.5185 158.5489 110.1851 297.9627 101.5432 339.3667 84.2592 101.516 64.3826 .2768 57.037 .2768 82.9629 240.0849 80.3715 403.5583 65.722 402.7921 13.8271 180.5201 0 101.516 0 399.3545 130.6853 406.19"/><polygon class="cls-56" points="122.716 -2.4105 157.2839 180.5201 172.4312 259.0756 139.9999 .2768 122.716 -2.4105"/><polygon class="cls-22" points="241.9753 414 236.358 371.4717 205.2475 223.2449 197.4691 169.5319 213.4027 237.5611 254.4482 412.6634 241.9753 414"/><polygon class="cls-27" points="107.6082 404.9829 102.0688 336.8483 83.2639 96.4465 74.5668 162.4231 82.9629 240.0849 91.0875 256.1386 101.5432 404.6658 107.6082 404.9829"/><polygon class="cls-75" points="130.6853 406.19 113.2704 248.1053 100.8155 185.9983 110.1851 297.9627 119.6954 405.6152 130.6853 406.19"/><polygon class="cls-8" points="162.4649 407.8522 162.4649 400.1994 151.2345 277.6843 154.6647 407.4443 162.4649 407.8522"/></g></g><g id="CaveR"><g><polygon class="cls-60" points="1000.2231 0 1000.2231 270.5579 920.381 186.8632 864.0442 155.8632 793.9638 72.1421 794.5705 70.4737 817.8126 80.5789 835.7941 95.0802 835.4968 91.6947 770.3179 29.0421 763.1179 21.4632 763.1179 16.1579 773.6654 13.8842 861.3636 39.6526 766.5284 0 1000.2231 0"/><polygon class="cls-26" points="773.6654 13.8842 831.7125 40.1466 846.8138 46.9789 836.2547 45.1721 822.1074 39.6526 850.6164 55.0632 847.8758 49.5053 850.6164 49.5053 894.1074 66.4316 905.981 69.2105 937.56 76.46 960.5495 80.5789 971.9179 85.1263 983.2863 86.2632 961.0547 79.5684 904.5916 65.0421 894.8653 62.2632 901.4337 65.4211 902.5389 64.9158 903.5495 65.2632 912.4863 68.3895 915.0758 70.4105 900.3916 66.7789 846.8653 40.4105 839.4758 35.6737 844.4021 34.9158 773.6654 13.8842"/><polygon class="cls-26" points="905.4758 71.8632 914.5705 73.1263 930.4863 78.5579 940.2126 82.8526 927.8968 78.8737 926.0705 78.6211 928.2126 79.8842 930.8021 82.2842 916.3389 79.3789 907.2442 73.2526 908.1916 73.1263 905.4758 71.8632"/><polygon class="cls-15" points="864.0442 155.8632 933.5179 191.9517 973.3461 216.8373 965.2612 205.6161 872.381 126.6895 878.9495 135.2789 881.6705 146.7684 817.8126 80.5789 835.7941 95.0802 835.4968 91.6947 846.8138 102.3053 900.1705 144.7474 962.8231 186.8632 980.0021 191.9517 975.4547 136.4132 963.3284 126.5579 901.9389 91.4421 897.3916 87.1474 851.9179 58.6 926.9495 100.2842 958.2758 110.9512 846.8138 46.9789 773.6654 13.8842 859.7199 38.9654 883.9566 45.7158 983.2863 86.2632 993.1389 85.1263 971.0016 66.5579 967.3705 67.3158 941.981 51.9684 945.0126 51.5895 990.2968 76.0316 997.3074 76.2211 993.5179 31.6947 984.4231 23.7368 881.6705 0 1000.2231 0 1000.2231 270.5579 920.381 186.8632 864.0442 155.8632"/><polygon class="cls-23" points="818.8231 0 843.0758 9.3368 886.9443 24.1158 891.2021 21.4632 941.2231 47.6105 807.8337 0 818.8231 0"/><polygon class="cls-63" points="763.1179 16.1579 794.3179 43.4421 803.9345 47.3445 861.3636 82.8526 763.1179 16.1579"/><polygon class="cls-28" points="859.7199 38.9654 773.6654 13.8842 846.8138 46.9789 886.9443 53.0421 959.2713 76.46 883.9566 45.7158 859.7199 38.9654"/><polygon class="cls-2" points="1000.2231 205.2526 980.0021 191.9517 962.8231 186.8632 900.1705 144.7474 897.3621 147.9176 965.2612 205.6161 973.3461 216.8373 1001.4211 242.3891 1000.2231 205.2526"/><polygon class="cls-25" points="958.2758 110.9512 928.0863 100.6713 851.9179 58.6 897.3916 87.1474 1000.2231 140.3895 1000.2231 128.0737 958.2758 110.9512"/><polygon class="cls-18" points="817.8126 80.5789 853.7443 117.8226 883.4202 131.4235 835.4968 91.6947 835.7941 95.0802 817.8126 80.5789"/><polygon class="cls-42" points="864.0442 155.8632 872.7011 157.3789 874.18 154.9789 838.9074 118 830.381 108.7158 822.3063 106.0012 864.0442 155.8632"/><polygon class="cls-42" points="779.6992 38.0598 794.3179 43.4421 803.9345 47.3445 914.5158 123.8354 933.5406 146.6163 962.8231 186.8632 900.1705 144.7474 835.4968 91.6947 779.6992 38.0598"/><polygon class="cls-42" points="911.1053 116.8858 858.9916 79.0632 831.4591 58.6 831.4591 53.2947 898.9304 99.4947 916.1579 119.9632 911.1053 116.8858"/></g></g><g id="CaveL"><g><polygon class="cls-34" points="-.3 384.4947 10.473 400 21.8368 322.3474 29.4158 306.4316 66.5526 62.8947 112.0263 40.1579 131.2263 40.1579 184.7842 94.7263 188.5737 95.7368 206.8855 139.9377 222.4263 148.5368 225.4579 145.7579 236.0684 128.0737 236.0684 117.7158 246.6789 86.1368 242.8895 82.6 246.6789 82.8526 303.0831 14.1469 403.0579 0 -.3 0 -.3 384.4947"/><polygon class="cls-33" points="29.4158 306.4316 53.4931 148.5368 47.9842 164.8947 49.9737 162.8105 49.5 167.3579 45.9 187.8211 36.0474 209.9895 31.8789 217.1895 41.0368 180.6211 45.5211 168.8737 38.1316 184.3474 33.8368 197.2947 45.3962 123.6537 53.4931 107.1053 62.0286 86.2632 62.0286 92.5623 64.8183 74.2684 60.1945 85.8211 60.8684 86.2632 51.5211 108.6211 46.3226 118.5272 46.6851 116.5207 36.7105 149.2907 35.4789 153.3368 38.5105 148.5368 39.4579 147.5579 33.1263 170.1014 14.2579 215.2316 4.1526 229.5053 6.6789 197.8 1.1211 234.62 -.3 253.1263 5.4158 232.1398 22.5947 215.2316 26.2243 219.0842 22.6814 236.9232 4.1526 323.1053 16.7684 282.4316 21.0789 269.2947 17.0368 299.1053 17.0368 319.9632 29.4158 306.4316"/><polygon class="cls-64" points="34.2915 274.4575 29.4158 306.4316 17.0368 319.9632 17.0368 297.2103 25.6642 236.2 25.6642 249.9851 39.0158 154.6758 17.0368 265.345 4.1526 323.1053 1.1211 325.1263 1.1211 234.62 6.6789 197.8 31.9421 112.2895 41.5421 103.4053 47.8579 95.7368 41.0368 147.7789 52.1526 86.2632 55.4368 81.5895 66.5526 62.8947 41.0368 86.2632 24.8684 114.8647 12.3632 166.5902 5.1632 178.8526 7.8158 86.2632 33.8368 0 18.6158 0 11.2263 33.0211 9.5211 48.1789 15.2053 28.6632 21.4579 18.4316 -.3 86.2632 -.1421 346.9789 18.7244 343.6158 21.8368 322.3474 31.4368 305.6737 34.2915 274.4575"/><polygon class="cls-38" points="131.2263 40.1579 129.6474 34.1579 119.9842 24.6842 103.121 0 106.5316 0 152.1947 47.6105 201.3789 84.7474 202.28 81.1474 201.3789 71.8632 205.8158 82.8526 207.9 54.8105 200.1316 0 210.7421 0 213.5842 96.4684 221.67 138.3684 216.8053 128.8947 216.4263 134.3895 225.4579 145.7579 222.4263 148.5368 206.8855 139.9377 188.5737 95.7368 183.5443 94.8041 131.2263 40.1579"/><polygon class="cls-44" points="246.6789 86.1368 226.0387 87.6526 223.5632 88.9158 214.6458 101.9696 213.5842 96.4684 224.5737 86.1368 230.1316 48.2421 225.4579 55.2269 235.5632 -.7684 246.6789 -.6629 234.6789 40.1579 225.4579 83.9895 227.2263 84.1158 254.7668 -.8961 266.1316 -.8961 233.2895 83.6105 242.8895 82.6 246.6789 86.1368"/><polygon class="cls-83" points="273.7004 -.8961 293.5421 8.9579 303.0831 14.1469 403.0579 0 273.7004 -.8961"/><polygon class="cls-39" points="188.5737 95.7368 199.945 95.7368 204.5738 96.4684 216.4263 134.3895 225.4579 145.7579 222.4263 148.5368 206.8855 139.9377 188.5737 95.7368"/><polygon class="cls-77" points="131.2263 40.1579 129.6474 34.1579 119.9842 24.6842 118.8637 12.858 152.1947 47.6105 201.3789 84.7474 183.5443 94.8041 131.2263 40.1579"/><polygon class="cls-47" points="-.3 86.2632 21.4579 18.4316 33.8368 0 7.8158 86.2632 5.1632 178.8526 12.3632 166.5902 13.8612 173.4895 6.6789 197.8 1.1211 234.62 -.3 86.2632"/><polygon class="cls-31" points="103.121 0 107.7316 14.1469 91.9421 31.0632 60.1945 62.8947 41.0368 86.2632 52.1526 86.2632 66.5526 62.8947 112.0263 40.1579 131.2263 40.1579 129.6474 34.1579 103.121 0"/><polygon class="cls-9" points="201.3789 84.7474 213.5842 96.4684 224.5737 86.1368 225.4579 83.9895 242.8895 82.6 246.6789 86.1368 226.0387 87.6526 223.5632 88.9158 214.6458 101.9696 204.5738 96.4684 199.945 95.7368 188.5737 95.7368 183.5443 94.8041 201.3789 84.7474"/></g></g><g id="S2"><g><polygon class="cls-41" points="552.8737 0 560.9579 76.7895 566.2632 80.2 568.5368 126.6895 570.3053 141.9684 573.0842 141.9684 573.0842 124.9842 581.1684 110.1368 589.7579 60.6211 611.7368 55.0632 617.0421 51.0211 635.2316 0 552.8737 0"/><polygon class="cls-48" points="560.2 69.5905 560.2 6.6254 565.8842 2.5158 570.0526 50.0737 565.1263 75.5263 560.9579 76.7895 566.2632 80.2 568.1579 69.0842 579.6526 31.5684 584.7053 27.0211 576.3684 105.6276 572.4526 112.0316 566.5597 86.2632 568.3574 123.0211 570.3053 141.9684 573.0842 141.9684 573.0842 124.9842 572.4526 118.7579 578.0105 105.6276 587.4842 31.6947 589.7579 0 594.6491 0 589.5798 55.0632 581.1684 110.1368 589.7579 60.6211 592.4105 59.9503 598.6632 14.1469 602.8316 6.6254 601.9314 28.6271 604.5122 16.1579 605.8632 6.8105 611.7368 2.2316 603.9684 53.1053 592.4105 59.9503 611.7368 55.0632 617.0421 51.0211 607.3789 50.0737 607.1895 41.1684 617.4211 0 552.8737 0 560.2 69.5905"/></g></g><g id="s1"><g><polygon class="cls-14" points="188.3341 392.6103 152.33 401.3779 126.8048 374.7795 93.9694 379.484 93.041 304.6411 93.2236 301.4205 97.1067 298.119 92.0679 100.8088 93.46 98.691 95.6879 97.2018 92.6735 90.1271 102.7127 73.8205 105.3436 63.1026 114.4334 57.8881 127.8568 103.4307 126.4647 105.5484 143.9347 192.4292 144.7842 192.8144 147.2649 193.9313 168.6074 317.4449 166.9474 320.0472 164.021 324.6698 168.2218 324.2455 188.3341 392.6103"/><polygon class="cls-33" points="114.4334 57.8881 105.3436 63.1026 102.7127 73.8205 92.6735 90.1271 95.4852 88.0735 99.9378 82.1051 99.4641 81.0629 101.941 76.394 103.5534 77.1787 100.8852 84.1893 100.9866 88.5413 102.0305 92.5638 99.8431 94.7051 95.6879 97.2018 93.46 98.691 92.0679 100.8088 92.3645 112.4231 93.0638 139.806 93.5904 128.1472 93.401 124.4524 94.5378 116.9682 97.5694 113.3682 98.801 115.9261 98.9905 122.6208 99.022 127.7998 100.9168 150.7893 101.1694 138.6629 100.5378 139.1682 99.7168 129.0629 99.8431 124.5156 100.601 120.4735 102.5589 121.0419 104.4376 127.7962 105.3251 155.2066 106.2099 182.5339 106.8536 149.0208 105.8431 147.6945 105.8431 145.2314 109.0816 128.1787 110.2641 126.5366 111.5273 132.3472 114.4334 136.2629 115.6176 146.4945 119.4852 163.4208 117.7168 139.2945 115.6176 139.5472 115.6176 128.1787 116.4536 109.9893 119.4852 108.2208 123.5436 110.9998 125.9273 132.0945 127.0641 142.9577 127.0641 173.9735 125.5483 182.5339 125.2957 196.3893 120.1168 171.3787 123.401 198.1577 125.6747 207.6024 125.5168 196.8314 126.1799 196.9261 125.5483 182.5339 128.3273 183.884 128.3273 164.5577 128.3273 155.084 131.8641 151.4208 136.5712 155.8098 126.4647 105.5484 127.8568 103.4307 114.4334 57.8881"/><polygon class="cls-61" points="166.9474 320.0472 164.021 324.6698 146.1341 318.8091 124.3784 314.9372 120.4911 312.6597 126.8048 374.7795 93.9694 379.484 93.041 304.6411 93.2236 301.4205 97.1067 298.119 92.0679 100.8088 93.46 98.691 95.6879 97.2018 92.6735 90.1271 102.7127 73.8205 105.3436 63.1026 109.1875 63.3205 106.4887 76.824 100.9866 88.5413 102.0305 92.5638 107.1131 99.9068 110.769 99.0216 124.2662 105.2842 127.8568 103.4307 126.4647 105.5484 125.5007 107.0047 112.5484 101.2028 106.3424 101.8389 103.6958 104.8851 107.4093 219.5772 112.1855 221.3706 117.1836 220.1314 128.9384 211.5463 143.9347 192.4292 145.0767 192.4242 144.7842 192.8144 130.5508 212.0794 115.6552 222.5319 108.7299 224.1964 117.0566 224.6686 123.9081 309.0993 139.1673 316.6126 146.4297 318.0122 160.3869 321.8138 166.9474 320.0472"/><polygon class="cls-73" points="139.1673 316.6126 124.3784 314.9372 120.4911 312.6597 126.8048 374.7795 93.9694 379.484 93.2236 301.4205 99.2747 301.4205 107.1859 302.0633 97.1067 298.119 92.0679 100.8088 99.5273 100.8088 104.8326 100.8088 95.6879 97.2018 92.6735 90.1271 102.7127 73.8205 106.4887 76.824 100.9866 88.5413 102.0305 92.5638 107.1131 99.9068 110.769 99.0216 112.5484 101.2028 106.3424 101.8389 103.6958 104.8851 107.4093 219.5772 112.1855 221.3706 117.1836 220.1314 115.6552 222.5319 108.7299 224.1964 117.0566 224.6686 123.9081 309.0993 139.1673 316.6126"/><polygon class="cls-21" points="108.7299 224.1964 117.0566 224.6686 122.1794 224.1964 131.3904 213.9787 137.7378 203.4629 147.2649 193.9313 144.7842 192.8144 136.9904 203.3634 129.5076 212.8115 115.6552 222.5319 108.7299 224.1964"/><polygon class="cls-21" points="120.4911 312.6597 123.401 318.284 136.5378 319.4208 157.3483 324.3472 168.8968 326.54 167.8641 323.2103 163.8793 323.5893 157.3483 322.4834 138.3204 316.5166 120.4911 312.6597"/><polygon class="cls-42" points="153.9508 232.6238 151.1541 249.3156 150.0499 244.264 144.694 221.2933 138.6099 221.2933 146.2803 307.6952 154.601 307.6952 154.601 285.8996 158.7904 314.4945 166.9474 320.0472 168.9694 315.7035 153.9508 232.6238"/><polygon class="cls-42" points="138.3204 316.5166 133.9483 280.3893 124.6388 244.264 122.1794 244.264 133.9483 314.0429 138.3204 316.5166"/><polygon class="cls-42" points="188.3341 392.6103 168.8968 326.54 157.3483 324.3472 162.9378 342.5208 172.8412 388.0103 175.1589 389.1471 166.1589 349.6103 166.9474 347.4629 178.6642 394.9651 188.3341 392.6103"/><polygon class="cls-42" points="115.6552 222.5319 107.4093 219.5772 106.7104 156.4744 108.7299 149.0208 115.6552 216.5366 115.6552 222.5319"/></g></g><g id="Dust"><g class="cls-85"><path class="cls-65" d="M229.3587,322.1993s75.4616,3.1115,111.539-9.0457c30.5364-10.29-44.2798-27.2455-40.8412-36.9233,3.4385-9.6778,76.2051-61.2914,115.4742-59.3345,39.2691,1.957,64.3135,26.9144,78.7643,29.0129,14.4508,2.0986,59.2799-45.9508,134.2344-45.9486,74.9544,.0022,102.4961,25.6437,107.5278,29.2944,5.0315,3.6507-22.3871,15.0728-25.9457,22.8073-3.5587,7.7345,68.5471-14.8595,81.8528-33.2327,13.3055-18.3733-28.4947-32.2889-34.7782-54.224-6.2832-21.9351,65.0605-36.7907,82.4819-20.4612,17.4215,16.3296,16.7589,29.0939,15.4714,35.6007-1.2873,6.5068-23.4179,11.8034-26.921,8.0424-3.5029-3.761-11.624-3.2445-12.1768-1.2773-.5527,1.9672,5.1409,26.7584,55.2255,38.5644,50.0845,11.806,105.456,52.9662,108.1208,65.7676,2.6649,12.8014-11.9007,30.1464-5.589,42.3374,6.3115,12.1909,32.5344,21.2123,32.5344,21.2123v17.1275H229.3587v-49.3196Z"/><path class="cls-6" d="M1006.3333,337.2403s-33.2128-25.4968-57.8832-29.1761-11.2877,17.225-18.6265,28.2854-241.1471-23.6845-368.99-27.0828c-127.8428-3.3982-166.3836,37.4384-228.0481,41.129-61.6645,3.6905-103.4268-79.4795-103.4268-79.4795v100.6026H1006.3333v-34.2786Z"/><path class="cls-70" d="M504.2045,371.5137s40.1494-24.7253,51.1258-62.2469-30.8336-67.6373-29.3182-87.2821,72.3476-59.1076,96.7237-56.2295c24.3763,2.8782,12.2459,19.7854,14.1672,22.0881,1.9213,2.3026,22.0308-8.3045,59.6305,13.6898,37.5997,21.9944,42.1669,45.4296,35.2214,68.948-6.9454,23.5185,15.9858,101.0378,15.9858,101.0378l-243.5362-.0052Z"/></g></g><g id="Floor"><g><polygon class="cls-58" points="1001.0861 342.7622 1001.0861 447 .9139 447 .9139 391.0198 240.6545 363.2762 558.9703 330.8124 1001.0861 342.7622"/><polygon class="cls-49" points="690.844 355.3095 650.9282 358.297 557.2091 368.7532 519.1809 363.2762 426.277 359.9658 526.0019 365.0687 558.5605 370.7448 557.2091 372.0394 496.5703 381.9977 488.2335 381.9977 444.1493 375.4252 392.9914 374.7281 332.3598 371.4419 326.8019 368.6536 359.9282 362.9787 302.9588 371.4419 62.578 383.8838 201.0861 383.9893 306.0861 374.4294 355.8545 374.28 483.6861 383.9893 491.423 383.9893 443.5177 399.3249 379.7282 403.7066 276.6545 415.059 240.6545 417.1502 .9139 421.4789 .9139 428.7483 437.3519 410.2791 463.4756 411.8723 433.0904 436.9324 66.5876 447 136.9439 447 430.6335 438.9587 463.4756 411.8723 444.1493 403.5074 571.4494 371.4419 706.2545 356.0847 690.844 355.3095"/><polygon class="cls-33" points="577.9202 344.4053 695.2019 353.0824 762.844 355.3095 681.0027 354.1971 659.5177 355.3095 839.644 358.297 964.7809 347.5919 1001.0861 346.6459 1001.0861 342.7622 970.0651 340.1994 934.0794 340.1994 930.7325 338.0204 919.8279 333.183 877.2832 338.1814 876.3388 338.8038 870.0861 338.6544 824.4861 339.7748 781.2861 340.0817 728.7388 340.1994 577.9202 344.4053"/><polygon class="cls-33" points="1001.0861 346.0484 1001.0861 447 404.8315 446.6811 545.7072 443.3404 499.6019 442.3468 463.4756 437.7637 430.6335 438.9587 444.1493 427.8116 463.4756 411.8723 441.244 410.2791 444.1493 403.5074 571.4494 371.4419 706.2545 356.0847 1001.0861 346.0484"/><polygon class="cls-3" points="560.8651 378.6118 569.3282 373.8319 674.9351 361.0797 740.8651 356.8033 745.9177 358.297 745.9177 362.4795 728.7388 371.4419 560.8651 378.6118"/><path class="cls-67" d="M470.5493,405.4991l3.4105-3.4854,139.6053-23.4019,89.3937-4.1824s73.1484-2.39,82.2431-2.39,16.8632,1.9418,16.8632,1.9418l-81.6656,18.373s-80.0818,11.1532-91.9555,11.1532-128.8421,3.9833-128.8421,3.9833l-29.0526-1.9916Z"/><polygon class="cls-52" points="240.6545 363.2762 326.8019 365.2678 332.3242 367.7076 302.9588 371.4419 288.4619 376.034 283.8637 372.7299 262.6335 374.1618 260.1486 378.6118 306.0861 374.4294 355.8545 374.28 358.7393 372.8717 332.3598 371.4419 326.8019 368.6536 358.1921 363.2762 240.6545 363.2762"/><polygon class="cls-24" points="519.1809 363.2762 526.0019 365.0687 558.5605 370.7448 557.2091 372.0394 496.5703 381.9977 488.2335 381.9977 488.2335 383.9893 491.423 383.9893 443.5177 399.3249 437.3519 410.2791 332.2809 413.9268 330.4735 409.1314 279.5762 414.7372 279.5762 416.9558 438.8255 410.3689 463.4756 411.8723 444.1493 403.5074 571.4494 371.4419 652.6362 362.193 617.8335 361.0797 611.2651 362.4795 565.0335 367.7076 557.2091 368.7532 519.1809 363.2762"/><polygon class="cls-19" points="496.5703 381.9977 488.2335 381.9977 444.1493 375.4252 392.9914 374.7281 332.3598 371.4419 326.8019 368.6536 358.1921 363.2762 417.0077 359.5137 523.7282 364.8695 558.5605 370.7448 557.2091 372.0394 496.5703 381.9977"/><polygon class="cls-35" points="430.4898 379.9488 444.1493 375.4252 466.1062 378.6987 466.1062 382.654 430.4898 379.9488"/><polygon class="cls-32" points="423.8756 379.4464 427.6645 375.2006 420.8423 375.1076 418.5192 379.0396 423.8756 379.4464"/><polygon class="cls-40" points="557.2091 368.7532 519.1809 363.2762 430.4898 359.8352 524.8577 359.8352 616.1389 361.4409 611.2651 362.4795 557.2091 368.7532"/><polygon class="cls-40" points="62.578 383.8838 289.9177 372.3215 316.1914 369.7592 358.1921 363.2762 240.6545 363.2762 122.6042 376.2716 62.578 383.8838"/><path class="cls-16" d="M789.5032,372.0394l-90.3223,20.9123-170.5264,11.6512-54.6947-2.5892-3.4105,3.4854,28.421,4.78,40.5474,.5476-1.7684,4.6306,33.7001,3.7992,44.6895-3.5472s51.4435-14.8686,65.6104-16.9818c14.1669-2.1132,124.8631-16.8294,124.8631-16.8294l-1.494-7.6494-15.6152-2.2093Z"/><path class="cls-62" d="M604.8229,425.5151l-3.7368-5.0787s48.8316-15.6344,65.379-18.9206c16.5473-3.2863,123.8526-19.6177,140.1473-19.6177s78.2527,2.8878,92.1474,7.867c13.8947,4.9791,28.5474,21.0616,28.5474,21.0616l-10.1053,6.2239s-97.5158,23.8998-125.5579,26.2898c-28.0421,2.3899-186.8211-17.8253-186.8211-17.8253Z"/><path class="cls-79" d="M905.6745,393.0432s15.3169,12.2567,15.3169,14.4475-102.821,27.883-139.7053,31.468c-36.8842,3.585-180.2-18.5223-180.2-18.5223l3.7368,5.0787s125.4316,21.6094,190.8632,20.016c65.4316-1.5932,142.2316-32.8137,142.2316-32.8137l-1.7684-5.2267-37.3895-17.7256,6.9147,3.2781Z"/><polygon class="cls-72" points="569.3282 373.8319 687.244 372.0394 731.2019 368.7532 745.9177 358.297 745.9177 362.4795 728.7388 371.4419 560.8651 378.6118 569.3282 373.8319"/><path class="cls-42" d="M666.4651,401.5158l3.9158,17.7407s53.4013,24.464,119.1223,18.7008c81.2842-7.1279,108.0566-45.4537,108.0566-45.4537,0,0-86.8787-11.0769-93.7311-10.5059-6.8523,.571-137.3636,19.5181-137.3636,19.5181Z"/><path class="cls-13" d="M872.2335,338.8038h23.3053l33.1579-2.5627v-3.6986l-7.4793-3.3179s-22.4576,1.8118-48.9839,9.5792Z"/><polygon class="cls-71" points="613.5651 378.6118 538.8861 399.3249 503.8335 403.4278 473.9598 402.0137 613.5651 378.6118"/><polygon class="cls-10" points="876.3388 338.8038 864.9072 341.2169 647.6948 342.1872 728.7388 340.1994 876.3388 338.8038"/><polygon class="cls-50" points="927.3072 336.5009 927.3072 340.1994 894.7177 341.4781 918.9673 341.3797 927.3072 341.5201 937.9177 341.6987 953.4832 344.953 935.644 346.6459 886.7598 348.7438 1001.0861 348.7438 1001.0861 342.7622 970.0651 340.1994 934.0794 340.1994 930.7325 338.0204 927.3072 336.5009"/><polygon class="cls-55" points="815.1896 367.7076 919.8279 362.4795 1001.0861 367.7076 815.1896 367.7076"/><polygon class="cls-4" points="897.5598 379.4464 937.9177 379.0396 970.0651 381.8981 897.5598 379.4464"/><polygon class="cls-33" points="231.5598 381.2147 386.9282 403.212 379.7282 403.7066 289.9177 399.3249 345.3703 407.4907 340.613 408.0146 216.4722 396.0704 208.823 395.3343 223.9809 399.3249 279.6391 407.4907 117.2103 392.1191 156.1932 382.5518 231.5598 381.2147"/><polygon class="cls-51" points="379.7282 403.7066 287.8335 397.7317 229.6651 393.2505 289.9177 399.3249 379.7282 403.7066"/><polygon class="cls-68" points="340.613 408.0146 263.6914 399.3249 132.7928 388.1846 201.0861 395.3343 208.823 395.3343 340.613 408.0146"/><polygon class="cls-37" points="279.6391 407.4907 126.6009 389.748 117.2103 392.1191 279.6391 407.4907"/><polygon class="cls-82" points="720.3995 392.3542 826.5551 431.9114 826.5551 437.5352 835.4232 435.7202 837.3213 429.597 723.6149 391.6308 720.3995 392.3542"/><polygon class="cls-57" points="747.5522 388.9061 880.0651 407.4907 897.7592 414.583 898.7598 421.4789 917.2019 417.0506 920.9914 407.4907 894.7177 396.5242 760.7956 387.0573 747.5522 388.9061"/><polygon class="cls-57" points="613.5651 378.6118 745.9177 381.8981 747.5522 386.2454 792.5914 375.7737 789.5032 372.0394 666.4651 376.1368 613.5651 378.6118"/><polygon class="cls-57" points="394.6555 412.031 396.8272 402.5321 290.8012 375.821 298.6367 375.1076 401.904 402.3307 401.8137 411.5128 423.9389 410.7447 426.0871 400.5222 359.9282 374.5894 366.7509 375.1076 430.6335 400.21 427.7853 410.6111 394.6555 412.031"/><polygon class="cls-82" points="411.8124 360.0895 432.023 375.1076 444.1493 375.4252 414.4019 360.2389 411.8124 360.0895"/><polygon class="cls-82" points="402.4651 360.0895 427.6645 375.2006 423.8756 375.2006 392.5273 361.0797 402.4651 360.0895"/><polygon class="cls-7" points="876.3388 363.2762 898.7598 354.2639 918.023 351.8739 924.9756 351.8739 927.7143 359.1933 913.2861 362.4795 876.3388 363.2762"/><polygon class="cls-5" points="923.3914 361.3841 934.0794 358.297 941.3282 358.297 955.6019 360.687 948.9072 362.4795 923.3914 361.3841"/><polygon class="cls-69" points="876.3388 363.2762 912.9072 359.1933 919.0967 357.5751 924.9756 351.8739 927.7143 359.1933 934.0794 358.297 928.6967 360.3882 939.4967 360.3882 955.6019 360.687 963.5598 361.4837 950.5304 364.4548 919.8279 362.4795 876.3388 363.2762"/><polygon class="cls-59" points="811.8545 378.6118 817.1598 375.6244 837.3213 373.2344 845.4545 374.2302 839.8967 379.3089 817.6967 379.1425 811.8545 378.6118"/><polygon class="cls-12" points="135.1771 383.8838 132.7928 383.8838 136.9439 386.2299 90.2086 398.4785 81.1139 398.4785 12.6507 414.449 .9139 421.4789 .9139 428.7483 4.3139 428.7483 2.0402 422.2433 12.3981 416.3535 81.8086 399.1258 90.8402 398.7773 146.4507 384.7362 150.4297 383.8838 135.1771 383.8838"/><polygon class="cls-33" points="47.3473 385.6464 69.8086 381.2147 152.975 375.475 196.9139 377.0516 119.8297 381.0018 120.5876 383.8838 132.7928 383.8838 106.9455 391.1592 44.7981 389.748 91.2192 394.6147 85.3455 395.4911 5.9604 390.4359 47.3473 385.6464"/><polygon class="cls-20" points="196.9139 377.0516 145.6613 378.3131 108.6507 381.2147 67.2192 382.9934 120.5876 383.8838 127.2192 384.288 118.1244 387.0764 85.6613 388.1846 114.335 387.7236 113.1034 388.9061 103.535 389.748 37.7876 388.9061 27.0823 389.748 44.7981 389.748 106.9455 391.1592 132.7928 383.8838 120.635 383.5038 119.8297 381.0018 196.9139 377.0516"/><polygon class="cls-66" points="91.2192 394.6147 81.9823 394.2961 7.1095 390.3029 5.9604 390.4359 85.3455 395.4911 91.2192 394.6147"/><polygon class="cls-12" points="90.8402 398.7773 77.6402 401.6154 63.3527 403.7066 58.3357 404.9518 77.7665 401.8645 98.0402 398.0997 100.9139 395.6728 90.8402 398.7773"/><polygon class="cls-12" points="171.4079 421.5333 170.7981 418.1256 147.8718 412.031 98.0402 398.0997 98.7604 397.4915 100.1244 398.0997 173.2646 418.3266 173.356 421.4634 171.4079 421.5333"/><polygon class="cls-43" points="98.0402 398.0997 77.6402 401.6154 58.3357 404.9518 12.3981 416.3535 2.0402 422.2433 170.7981 418.1256 98.0402 398.0997"/><polygon class="cls-78" points="395.139 402.648 403.2903 399.7233 422.1665 399.7233 443.5177 399.3249 395.139 402.648"/><polygon class="cls-17" points="326.8019 368.6536 342.7171 372.0033 332.3598 371.4419 326.8019 368.6536"/><path class="cls-78" d="M538.8861,399.3249l11.4577,3.3231s-17.1596,2.3371-23.4615,1.9549c-6.3018-.3823-22.1052-.9959-22.1052-.9959l34.109-4.2821Z"/><polygon class="cls-12" points="430.4898 379.9488 444.1493 375.4252 436.3499 371.4436 412.7631 359.7852 414.1878 359.6941 416.9807 361.5554 440.2771 372.9356 449.7507 376.2219 449.3244 376.782 440.8455 377.277 435.0665 379.0396 434.6436 380.2643 430.4898 379.9488"/><polygon class="cls-12" points="540.8783 379.1425 540.8783 374.7213 519.3287 364.6487 520.756 364.6487 541.8363 374.564 541.8363 378.9011 540.8783 379.1425"/><polygon class="cls-40" points="520.756 364.6487 526.0019 365.0687 558.5605 370.7448 557.2091 372.0394 541.8363 374.564 520.756 364.6487"/><polygon class="cls-78" points="538.6277 373.0547 545.9263 373.8923 541.8363 376.2966 541.8363 374.564 538.6277 373.0547"/><polygon class="cls-80" points="491.423 383.9893 495.1771 391.0198 496.5703 381.9977 488.2335 381.9977 488.2335 383.9893 491.423 383.9893"/><polygon class="cls-54" points="324.1462 374.3752 326.8019 368.6536 358.1921 363.2762 322.6297 363.2762 319.0928 364.9691 326.8019 365.2678 329.8878 367.645 308.7403 370.4858 307.4718 374.3752 324.1462 374.3752"/><polygon class="cls-78" points="369.1052 373.4335 382.6924 373.4335 396.7771 373.4335 412.7631 374.9975 395.139 374.9975 369.1052 373.4335"/><polygon class="cls-74" points="613.6024 398.7988 625.9139 396.5242 672.9574 394.7434 636.3072 397.2475 613.6024 398.7988"/></g></g><g id="Shadow2"><g class="cls-84"><polygon class="cls-29" points="779.6992 38.0598 779.6992 38.0598 835.4968 91.6947 835.7941 95.0802 817.8126 80.5789 794.5705 70.4737 793.9638 72.1421 864.0442 155.8632 920.381 186.8632 1000.2231 270.5579 1000.2231 241.2988 1001.4211 242.3891 1000.2231 205.2526 1000.2231 140.3895 1000.2231 128.0737 1000.2231 0 881.6705 0 818.8231 0 807.8337 0 766.5284 0 859.7203 38.9655 859.7199 38.9654 773.6654 13.8842 763.1179 16.1579 763.1179 21.4632 770.3179 29.0421 779.6992 38.0598"/><polygon class="cls-29" points="566.2632 80.2 566.5597 86.2633 566.5597 86.2632 568.3574 123.0211 568.3574 123.0217 568.5368 126.6895 570.3053 141.9684 573.0842 141.9684 573.0842 124.9842 581.1684 110.1368 589.7579 60.6211 611.7368 55.0632 617.0421 51.0211 635.2316 0 617.4211 0 594.6491 0 589.7579 0 552.8737 0 560.9579 76.7895 566.2632 80.2"/><path class="cls-29" d="M934.0794,340.1994l-3.3469-2.179-3.7179-1.6493,1.6821-.13v-3.6986l-7.4793-3.3179s-22.2807,1.7993-48.6688,9.4887l-2.4625-.0589-10.9884,.27-300.1274-8.1121-292.8794,29.8696-39.0286-149.6098-6.98-7.7418-8.823-60.9725,11.167,6.179,3.0316-2.7789,10.6105-17.6842v-10.3579l10.6105-31.579-3.7894-3.5368,3.7894,.2526L303.0831,14.1469l69.3282-9.8102,5.1229,34.8827,2.3141,2.4426,5.3052,69.7-1.5157,9.121,5.5578,49.2632,2.779,3.0315,9.3474,18.6211h3.2842l21.4737-108.3053,5.5579-10.6105L447.2465-.4071l-19.7781-.3613h0l-10.7631-1.0223,.234,.8299-45.4279-.8299,.2312,1.5737-98.0422-.6792,1.8045,.8962h-9.7216l.3483-.8962h-11.3648l-.2904,.8962h-7.9924l.1949-.6629-11.1157-.1055-.1387,.7684h-97.2048l-15.5037-2.4105,.4555,2.4105H-.3V384.4947l.3,.4318v14.4279l.9139,.0478v47.5978H1001.0861v-104.2379l-31.021-2.5627h-35.9857Z"/></g></g><g id="Shadow"><polygon class="cls-76" points="1000.3333 363.3333 914.2623 371.2171 901.0177 365.1632 670.6044 380.5106 624.6846 392.7513 576.8975 388.4052 547.6493 393.521 495 390.7778 491.4444 383.8889 4.3718 387.7105 1.456 434.2895 1004.544 434.2895 1000.3333 363.3333"/></g></g></g></svg>