<?xml version="1.0" encoding="UTF-8"?><svg xmlns="http://www.w3.org/2000/svg" xmlns:xlink="http://www.w3.org/1999/xlink" viewBox="0 0 1000 400"><defs><style>.cls-1,.cls-2{opacity:.3;}.cls-1,.cls-2,.cls-3,.cls-4,.cls-5{fill:#401359;mix-blend-mode:multiply;}.cls-1,.cls-6,.cls-7,.cls-8,.cls-9,.cls-3,.cls-10,.cls-11,.cls-12,.cls-5,.cls-13{fill-rule:evenodd;}.cls-6{fill:url(#_Áåçûìÿííûé_ãðàäèåíò_18);}.cls-7{fill:#5959aa;}.cls-14{isolation:isolate;}.cls-8{fill:#6a68a4;}.cls-9{fill:#565574;}.cls-3,.cls-4{opacity:.5;}.cls-10{fill:url(#_Áåçûìÿííûé_ãðàäèåíò_63);mix-blend-mode:screen;opacity:.61;}.cls-11{fill:url(#_Áåçûìÿííûé_ãðàäèåíò_115);}.cls-12{fill:#99a1d6;}.cls-15{fill:#dedbd4;}.cls-15,.cls-13{mix-blend-mode:soft-light;}.cls-5{opacity:.2;}.cls-13{fill:#7c728b;}</style><linearGradient id="_Áåçûìÿííûé_ãðàäèåíò_115" x1="354.2054" y1="518.3333" x2="354.2054" y2="1.157" gradientUnits="userSpaceOnUse"><stop offset=".0053" stop-color="#1b0f24"/><stop offset="1" stop-color="#3e3370"/></linearGradient><linearGradient id="_Áåçûìÿííûé_ãðàäèåíò_18" x1="254.04" y1="334.9453" x2="254.04" y2="149.8108" gradientUnits="userSpaceOnUse"><stop offset=".0053" stop-color="#1b0f24"/><stop offset="1" stop-color="#281c44"/></linearGradient><linearGradient id="_Áåçûìÿííûé_ãðàäèåíò_63" x1="355.2599" y1="518.3333" x2="355.2599" y2="135.3865" gradientUnits="userSpaceOnUse"><stop offset="0" stop-color="#8590ff"/><stop offset="1" stop-color="#000"/></linearGradient></defs><g class="cls-14"><g id="M2"><g><g><path class="cls-11" d="M578.6939,241.9136l-20.1154-50.6995s-28.7536-63.4819-31.3675-69.0833c-2.6139-5.6014-30.9941-28.1935-31.9277-29.1271-.9336-.9335-28.1935,0-28.1935,0l-10.0824-4.8545L408.8357,1.157H129.717V518.3333l448.9769-76.9252V241.9136Z"/><polygon class="cls-4" points="363.2553 1.157 390.1645 76.1996 402.114 90.3897 415.9307 90.3897 457.0074 88.1492 467.0898 93.0037 428.1122 116.9029 452.5263 113.5421 458.1275 114.2888 462.2353 123.251 462.6086 170.4892 432.7348 259.4574 440.5767 266.8791 467.0898 261.4178 504.1287 270.24 425.5986 474.2694 129.717 518.3333 277.5305 357.7611 336.018 282.98 371.7734 129.2258 371.7734 113.8222 300.9163 218.2952 209.7075 289.8446 231.5527 240.2026 240.2193 187.4799 137.1764 334.9453 179.1801 316.7564 129.717 467.6686 129.717 60.5159 211.1262 83.4348 219.4497 63.799 185.9017 .0212 363.6515 2.2618 363.2553 1.157"/><polygon class="cls-9" points="458.1275 114.2888 477.7323 105.42 495.2833 93.0037 467.0898 93.0037 428.1122 116.9029 452.5263 113.5421 458.1275 114.2888"/><polygon class="cls-13" points="462.6086 170.4892 478.0124 135.3873 477.7323 105.42 458.1275 114.2888 462.2353 123.251 462.6086 170.4892"/><path class="cls-8" d="M559.8058,194.3072l-27.1452-3.4665-9.1838-8.2153-45.4644-47.2381-.2801-29.9673,17.551-12.4163s27.919,20.357,31.9277,29.1271l32.5948,72.1764Z"/><polygon class="cls-5" points="532.6606 190.8407 516.3817 226.9532 467.0898 261.4178 504.1287 270.24 578.6939 241.9136 559.8058 194.3072 532.6606 190.8407"/><polygon class="cls-1" points="300.9163 218.2952 256.1054 294.0433 204.273 437.3421 336.018 282.98 371.7734 129.2258 371.7734 113.8222 300.9163 218.2952"/><polygon class="cls-2" points="462.2353 123.251 458.1277 114.2888 452.5263 113.5421 428.1122 116.9027 408.8357 101.4938 402.114 90.3897 371.7734 129.2258 336.018 282.98 370.9036 220.0694 328.9463 288.6534 129.717 518.3333 277.5305 450.7437 324.652 438.4086 343.4864 383.5022 432.7348 259.4574 462.6086 170.4892 462.2353 123.251"/><polygon class="cls-2" points="390.1645 76.1996 371.7734 113.8222 300.9163 218.2952 209.7075 289.8446 231.5527 240.2026 277.5305 1.157 306.1441 .0212 368.5059 70.0849 382.0652 73.2123 382.0652 65.3704 363.6515 2.2618 390.1645 76.1996"/><polygon class="cls-2" points="467.0898 261.4178 432.7348 287.9309 371.7734 352.8596 432.7348 278.2219 440.5767 266.8791 467.0898 261.4178"/><polygon class="cls-3" points="456.6442 393.6099 443.6434 438.0067 559.8101 404.2525 495.2833 453.7676 425.5986 474.2694 456.6442 393.6099"/><polygon class="cls-4" points="179.1801 316.7564 200.1884 304.5352 256.1054 294.0433 204.273 437.3421 129.717 518.3333 129.717 382.0337 179.1801 316.7564"/><polygon class="cls-15" points="137.1764 334.9453 179.1801 316.7564 209.7075 289.8446 231.5527 240.2026 240.2193 187.4799 137.1764 334.9453"/><polygon class="cls-9" points="467.0898 261.4178 497.8137 239.6592 549.9898 246.4341 578.6939 241.9136 504.1287 270.24 467.0898 261.4178"/><polygon class="cls-9" points="264.802 67.3347 292.3333 125.725 355.1288 182.7729 370.9036 220.0694 240.2193 149.8108 264.802 67.3347"/><polygon class="cls-4" points="240.2193 149.8108 204.273 233.411 137.1764 334.9453 192.9111 199.6098 264.802 67.3347 240.2193 149.8108"/><polygon class="cls-6" points="240.2193 149.8108 137.1764 334.9453 179.1801 316.7564 209.7075 289.8446 300.9163 218.2952 349.2801 225.9503 370.9036 220.0694 240.2193 149.8108"/><polygon class="cls-4" points="240.2193 149.8108 264.802 67.3347 129.717 174.4832 125.407 387.8218 179.1801 316.7564 200.1884 304.5352 256.1054 294.0433 293.1401 252.0822 346.8168 236.5432 370.9036 220.0694 240.2193 149.8108"/><polygon class="cls-9" points="204.273 437.3421 256.1054 294.0433 293.1401 252.0822 346.8168 236.5432 337.479 274.7058 277.5305 357.7611 204.273 437.3421"/></g><polygon class="cls-7" points="432.7348 131.8834 380.0836 222.2122 408.8333 190.8462 374.4815 244.0591 462.6079 170.4923 447.6787 213.5799 423.2895 233.3721 423.2747 233.3869 414.8789 240.2011 417.8795 238.8265 420.8801 237.437 443.6434 226.957 434.8781 246.838 393.5494 313.9158 333.8475 379.0128 264.197 496.1753 246.0624 503.6658 211.1262 511.2383 310.9955 346.1391 353.3885 254.746 362.1834 235.7963 408.8333 118.4175 408.8333 101.4929 467.0867 93.0084 495.2895 93.0084 477.7292 105.4247 458.1292 114.2935 432.7348 131.8834"/><polygon class="cls-12" points="522.8863 176.6561 549.1675 192.9451 532.6567 190.8462 489.4952 164.698 447.6787 213.5799 462.6079 170.4923 478.0101 135.3865 485.9772 143.6493 522.8863 155.2675 532.6567 159.0958 509.317 155.3709 515.2591 164.3284 553.7202 179.2576 559.8101 194.305 522.8863 176.6561"/><polygon class="cls-12" points="379.35 56.0648 333.8475 34.7496 321.4545 17.2225 355.4361 31.0154 313.7313 8.5454 306.1441 .0212 363.2553 1.157 379.35 56.0648"/><polygon class="cls-12" points="382.9444 56.0648 449.8909 75.298 439.2406 56.0648 400.6204 41.8446 416.4176 44.4586 428.1122 47.8194 372.8962 28.043 370.0697 20.1604 423.7236 28.043 413.8371 10.189 363.2553 1.157 382.9444 56.0648"/><polygon class="cls-1" points="420.8801 237.437 443.6434 226.957 434.8781 246.838 393.5494 313.9158 333.8475 379.0128 264.197 496.1753 243.1289 507.3174 277.5305 418.2573 310.9955 346.1391 302.038 371.77 310.2565 382.0282 333.8475 368.2225 390.1645 307.1459 423.2895 249.0995 390.1645 294.2861 363.6467 317.7589 415.5588 246.4389 420.8801 237.437"/><polygon class="cls-3" points="489.4952 164.698 447.6787 213.5799 423.2895 233.3721 423.2747 233.3869 417.8795 238.8265 360.6609 296.3998 330.7878 317.2268 353.3885 254.746 362.1834 235.7963 408.8333 118.4175 408.8333 101.4929 420.7914 116.9098 425.2702 116.9098 458.1292 114.2935 432.7348 131.8834 380.0836 222.2122 408.8333 190.8462 374.4815 244.0591 462.6079 170.4923 478.0101 135.3865 489.4952 164.698"/><polygon class="cls-12" points="524.3125 209.3598 569.3231 218.2952 571.5551 223.9207 538.4136 218.2952 549.9898 223.9207 532.6606 222.2053 574.916 232.3918 576.8113 237.1686 516.3817 226.9532 524.3125 209.3598"/><polygon class="cls-12" points="264.802 67.3347 280.5037 100.6359 330.7878 160.6597 288.0231 127.2101 318.0593 164.5144 330.7878 198.5023 240.2193 149.8108 264.802 67.3347"/><polygon class="cls-12" points="487.2546 135.3865 513.0209 146.0299 536.2955 153.4984 511.775 140.2885 498.0372 137.0678 506.5793 141.1287 487.2546 135.3865"/><polygon class="cls-12" points="528.0921 124.0818 513.8611 120.8238 531.2253 130.6262 528.0921 124.0818"/><polygon class="cls-12" points="393.1519 74.115 406.5731 76.3556 417.7978 80.8367 413.8769 80.8367 393.1519 74.115"/><polygon class="cls-7" points="279.6048 82.7111 301.4851 91.8546 290.5449 91.8546 279.6048 82.7111"/><polygon class="cls-7" points="354.4839 368.217 390.1645 322.566 436.801 272.3405 371.7734 352.8596 354.4839 368.217"/><polygon class="cls-10" points="580.8029 456.3451 578.6939 241.9136 533.2628 135.3865 487.2546 135.3865 129.717 144.103 129.717 518.3333 580.8029 456.3451"/><polygon class="cls-7" points="247.0783 153.4984 256.1054 161.7837 223.9908 224.7082 187.1785 312.1036 197.4778 299.1337 240.2193 206.0655 248.1554 198.5023 221.6419 280.4825 238.9831 266.8791 300.9163 218.2952 330.7878 198.5023 247.0783 153.4984"/><polygon class="cls-12" points="323.1349 161.7837 333.7774 200.0829 356.463 212.406 339.7989 182.7188 339.7989 187.0948 323.1349 161.7837"/><polygon class="cls-12" points="343.86 179.6381 353.2078 194.3072 353.2078 186.9726 343.86 179.6381"/><polygon class="cls-12" points="273.3447 22.9196 285.5036 70.0849 268.8089 35.8699 273.3447 22.9196"/><polygon class="cls-12" points="293.1401 252.0822 254.04 383.2793 267.9055 368.217 296.1629 271.1268 277.5305 357.7611 301.4851 324.5734 312.0744 271.5002 312.0744 309.9025 337.479 274.7058 337.479 239.2464 293.1401 252.0822"/><polygon class="cls-12" points="267.8682 289.8446 258.983 315.3775 258.983 327.5597 267.8682 289.8446"/><polygon class="cls-12" points="273.7754 274.0228 275.5449 282.5163 280.938 266.0857 273.7754 274.0228"/><polygon class="cls-12" points="222.8707 412.0943 219.4497 395.3836 240.2193 361.4845 222.8707 412.0943"/><polygon class="cls-12" points="467.0898 261.4178 497.8137 239.6592 549.9898 246.4341 563.8065 247.6011 549.3827 253.0485 503.3483 250.962 544.3784 254.9497 532.5123 259.4574 503.3483 258.4304 522.5432 263.2445 504.1287 270.24 467.0898 261.4178"/><polygon class="cls-12" points="443.6434 438.0067 468.0701 412.0943 576.8113 398.2775 559.8101 404.2525 492.7044 411.5425 521.9346 415.2578 443.6434 438.0067"/><polygon class="cls-12" points="129.717 60.5159 211.1262 83.4348 149.3061 55.2612 215.0767 74.115 219.4497 63.799 185.9017 .0212 129.717 1.157 129.717 60.5159"/><polygon class="cls-7" points="279.6048 477.07 354.4839 368.217 312.0744 437.3421 316.5987 434.8457 322.9971 431.315 312.0744 451.5942 320.6105 451.8639 432.8406 324.5481 467.0898 310.3057 439.3437 361.4953 443.6434 371.7645 489.4952 309.0293 425.5986 470.3485 264.197 496.1753 279.6048 477.07"/><polygon class="cls-1" points="467.0898 310.3057 414.4415 366.5832 428.1122 357.7611 340.9454 483.8944 376.846 478.1496 443.6434 371.7645 439.3437 361.4953 467.0898 310.3057"/><polygon class="cls-1" points="489.4952 309.0293 404.0176 473.8017 425.5986 470.3485 489.4952 309.0293"/><polygon class="cls-7" points="129.717 467.6686 179.1801 316.7564 157.5727 366.5832 137.1764 390.1151 149.5593 355.8474 174.5833 317.762 137.1764 332.5533 129.717 339.6375 129.717 467.6686"/><polygon class="cls-7" points="129.717 339.6375 186.0651 216.2335 129.1365 305.6709 129.717 339.6375"/><polygon class="cls-12" points="578.6939 241.9136 558.2097 385.2311 563.8065 364.1094 571.809 324.5481 573.5155 322.8461 566.6292 399.5713 576.8113 398.2775 568.4517 401.5398 560.9997 459.8459 580.8029 456.3451 578.6939 241.9136"/><polygon class="cls-12" points="558.2097 329.7544 545.9748 389.1288 537.3299 392.4896 558.2097 329.7544"/></g></g></g></svg>