<?xml version="1.0" encoding="UTF-8"?><svg xmlns="http://www.w3.org/2000/svg" xmlns:xlink="http://www.w3.org/1999/xlink" viewBox="0 0 1000 400"><defs><style>.cls-1{fill:#5e57b3;}.cls-1,.cls-2,.cls-3,.cls-4{fill-rule:evenodd;}.cls-2{fill:url(#_Áåçûìÿííûé_ãðàäèåíò_140);}.cls-5{isolation:isolate;}.cls-3{fill:url(#_Áåçûìÿííûé_ãðàäèåíò_88);mix-blend-mode:screen;}.cls-6{fill:#401359;mix-blend-mode:multiply;opacity:.5;}.cls-4{fill:#a9c0ff;}</style><linearGradient id="_Áåçûìÿííûé_ãðàäèåíò_140" x1="787.4298" y1="542.0999" x2="787.4298" y2="106.6879" gradientUnits="userSpaceOnUse"><stop offset="0" stop-color="#4f69f3"/><stop offset=".0942" stop-color="#4e67ee"/><stop offset=".1886" stop-color="#4e62e2"/><stop offset=".2833" stop-color="#4d5ace"/><stop offset=".3774" stop-color="#4b4eb2"/><stop offset=".4163" stop-color="#4b49a5"/><stop offset=".5103" stop-color="#46439b"/><stop offset=".6642" stop-color="#3a3483"/><stop offset=".8576" stop-color="#261d5b"/><stop offset="1" stop-color="#16093a"/></linearGradient><linearGradient id="_Áåçûìÿííûé_ãðàäèåíò_88" x1="786.3909" y1="544.6734" x2="786.3909" y2="106.6955" gradientUnits="userSpaceOnUse"><stop offset="0" stop-color="#7788f4"/><stop offset="1" stop-color="#000"/></linearGradient></defs><g class="cls-5"><g id="M3"><g><path class="cls-2" d="M563.405,232.1583l20.5777,4.8545,12.4242-2.4273s49.4059-29.2204,70.663-34.2617h9.0271l7.2797,53.7731,9.0271,2.8006,6.6974,7.5619,58.4327-36.7822,84.2952-120.9893,244.1709,1.1358-142.8788,417.0987-454.2616,17.1775,74.5454-309.9416Z"/><polygon class="cls-1" points="608.8081 227.4905 641.9003 237.2929 643.192 260.1651 649.9005 264.6951 628.1696 259.6853 622.1511 258.2979 593.1173 259.6302 610.6242 278.7229 622.1511 279.5668 612.6168 266.6999 625.7204 279.5668 640.3166 280.8967 627.6618 262.779 629.0207 263.1524 633.3886 269.1272 630.5737 261.2854 653.5529 279.6211 684.2503 274.8218 680.4649 271.7411 654.4515 265.2063 657.5576 260.1651 680.4649 254.9371 670.0182 211.62 653.2435 205.1143 649.9866 206.7654 666.608 211.62 665.3227 212.0867 645.1349 208.6861 628.4868 216.5678 660.0813 220.2087 626.5566 217.8793 608.8081 227.4905"/><path class="cls-6" d="M738.1227,268.9405l-39.6047-.4878,.584-3.991-6.7007-7.568-9.0213,3.2667h-25.8192l22.8991-5.2179,2.9201-.8425-7.2847-53.7746-6.0706,11.293-36.1468,33.0068-19.226,6.489-27.9861-4.0206,9.7436-12.505-12.4331,2.4242-11.173,5.0404h-11.7723l20.4248,18.1072,40.6959-1.8625,58.3082,13.4363,3.7961,3.0893-40.4808,6.3264-54.5583-3.991,6.5009,16.9838,67.929,82.7608-124.4237-50.1679-14.262,65.2301,76.4738,148.6413h20.5017l-1.8904,7.4646,3.1045-7.4646h1.2141l1.629-6.7846,80.9-193.7392,48.4109-50.641,16.8901-36.7464-34.0721,16.2447Zm-13.8624,50.7887l-34.9634,13.8945-71.2178-23.9458-9.8302-11.7504,81.048,8.3507,34.9634,7.1098v6.3412Z"/><polygon class="cls-6" points="648.0036 532.7643 799.5987 340.0777 808.062 272.8614 772.1907 252.6965 757.5339 227.6772 841.8291 106.6879 768.4052 223.5696 778.3057 235.8925 849.5145 191.8324 916.6562 107.7615 925.4855 106.6879 849.5145 208.1604 827.8937 250.3688 827.8937 264.5971 865.0338 255.6824 931.3487 176.7515 915.9009 148.3524 1004.881 129.9229 941.8788 174.0013 865.0338 269.291 818.0279 322.6746 766.6615 445.3801 766.6615 488.9252 904.6385 462.514 1086 107.8237 943.1212 524.9224 648.0036 532.7643"/><polygon class="cls-6" points="689.2969 333.6237 663.6468 376.9035 612.8808 317.5562 618.0791 309.6779 689.2969 333.6237"/><polygon class="cls-6" points="778.3057 235.8925 772.1907 252.6965 808.062 272.8614 827.8937 250.3688 849.5145 208.1604 925.4855 106.6879 916.6562 107.7615 849.5145 191.8324 778.3057 235.8925"/><polygon class="cls-6" points="865.0338 255.6824 861.3967 273.4216 941.8788 174.0013 1004.881 129.9229 915.9009 148.3524 931.3487 176.7515 865.0338 255.6824"/><polygon class="cls-6" points="799.5987 340.0777 796.7325 373.5458 766.6615 445.3801 702.3112 530.5238 648.0036 532.7643 799.5987 340.0777"/><polygon class="cls-1" points="539.2231 326.7356 639.8964 367.3273 582.8179 342.9197 575.9565 332.8348 660.7745 373.5458 648.5779 357.6286 622.2319 341.9449 638.6838 347.7208 595.7178 294.1427 552.6309 273.4216 539.2231 326.7356"/><polygon class="cls-1" points="555.4389 265.28 591.2427 281.1499 589.2169 277.1589 558.2745 253.4897 555.4389 265.28"/><polygon class="cls-1" points="618.0791 309.6779 689.2969 333.6237 648.5779 317.2989 643.7745 312.7322 702.3412 328.4399 724.2603 319.7292 695.0244 316.0265 723.8012 317.2989 724.2603 313.388 608.2489 297.9275 618.0791 309.6779"/><polygon class="cls-1" points="761.2802 222.3003 841.8291 106.6879 782.9413 206.2692 799.5987 192.4897 792.0068 205.1143 882.4091 107.7615 872.6524 132.1417 878.6319 136.4627 848.8381 184.1425 892.1271 138.4754 849.5145 191.8324 778.3057 235.8925 761.2802 222.3003"/><path class="cls-3" d="M563.5131,232.166l20.5777,4.8544,12.4242-2.4272s49.2978-29.2281,70.5549-34.2694l9.135,.0077,7.2799,53.7731,9.027,2.8006,6.6973,7.5619,58.4329-36.7823,84.295-120.9893,241.8774,11.5685-1.967,426.4094-592.8799-2.5658,74.5456-309.9416Z"/><polygon class="cls-4" points="844.3317 103.1404 761.2802 222.3003 757.642 227.6848 699.2091 264.4671 692.5118 256.9052 683.4848 254.1046 676.2049 200.3315 667.1778 196.683 628.4868 216.5678 596.515 234.5932 584.0908 237.0204 563.5131 232.166 561.6579 234.072 581.8958 238.273 595.2907 235.8925 629.9914 217.0346 667.0699 201.5375 674.9322 201.4441 682.3091 254.377 691.239 257.2711 698.6838 267.3199 760.2958 232.3917 762.8699 223.5696 844.3317 103.1404"/></g></g></g></svg>