<?xml version="1.0" encoding="UTF-8"?><svg xmlns="http://www.w3.org/2000/svg" xmlns:xlink="http://www.w3.org/1999/xlink" viewBox="0 0 1000 400"><defs><style>.cls-1{fill:url(#_Áåçûìÿííûé_ãðàäèåíò_2);}.cls-1,.cls-2,.cls-3,.cls-4,.cls-5,.cls-6{mix-blend-mode:screen;}.cls-1,.cls-3,.cls-6{opacity:.5;}.cls-7{fill:#7e88cb;}.cls-7,.cls-8,.cls-9,.cls-10{fill-rule:evenodd;}.cls-11{isolation:isolate;}.cls-2{fill:url(#_Áåçûìÿííûé_ãðàäèåíò_144);}.cls-2,.cls-5{opacity:.2;}.cls-3{fill:url(#_Áåçûìÿííûé_ãðàäèåíò_2-2);}.cls-8{fill:#bcd3ff;}.cls-4{fill:url(#_Áåçûìÿííûé_ãðàäèåíò_75);opacity:.3;}.cls-5{fill:url(#_Áåçûìÿííûé_ãðàäèåíò_144-2);}.cls-9{fill:#7997f6;}.cls-10{fill:#4f63cc;}.cls-6{fill:url(#_Áåçûìÿííûé_ãðàäèåíò_2-3);}</style><radialGradient id="_Áåçûìÿííûé_ãðàäèåíò_2" cx="226.9389" cy="190.0238" fx="226.9389" fy="190.0238" r="8.455" gradientTransform="translate(-301.0095 -90.5095) scale(2.3103 1.5169)" gradientUnits="userSpaceOnUse"><stop offset="0" stop-color="#6d86ff"/><stop offset=".3706" stop-color="#6c85fd"/><stop offset=".5041" stop-color="#6981f6"/><stop offset=".5992" stop-color="#647bea"/><stop offset=".6762" stop-color="#5d72d9"/><stop offset=".7421" stop-color="#5366c3"/><stop offset=".8005" stop-color="#4758a8"/><stop offset=".8533" stop-color="#3a4787"/><stop offset=".9018" stop-color="#293362"/><stop offset=".947" stop-color="#171c37"/><stop offset=".9871" stop-color="#030409"/><stop offset=".9944" stop-color="#000"/></radialGradient><radialGradient id="_Áåçûìÿííûé_ãðàäèåíò_2-2" cx="565.3822" cy="177.0467" fx="565.3822" fy="177.0467" r="5.3316" gradientTransform="translate(-663.8801 478.886) rotate(-23.0178) scale(2.0933 1.1977)" xlink:href="#_Áåçûìÿííûé_ãðàäèåíò_2"/><radialGradient id="_Áåçûìÿííûé_ãðàäèåíò_2-3" cx="698.481" cy="263.6209" fx="698.481" fy="263.6209" r="5.3316" gradientTransform="translate(-663.8801 478.886) rotate(-23.0178) scale(2.0933 1.1977)" xlink:href="#_Áåçûìÿííûé_ãðàäèåíò_2"/><radialGradient id="_Áåçûìÿííûé_ãðàäèåíò_144" cx="597.2252" cy="290.1751" fx="597.2252" fy="290.1751" r="14.4927" gradientTransform="translate(-627.5271 -37.596) scale(2.0933 1.1977)" gradientUnits="userSpaceOnUse"><stop offset="0" stop-color="#255eff"/><stop offset=".3706" stop-color="#245dfd"/><stop offset=".5041" stop-color="#235af6"/><stop offset=".5992" stop-color="#2256ea"/><stop offset=".6762" stop-color="#1f50d9"/><stop offset=".7421" stop-color="#1c48c3"/><stop offset=".8005" stop-color="#183ea8"/><stop offset=".8533" stop-color="#133287"/><stop offset=".9018" stop-color="#0e2462"/><stop offset=".947" stop-color="#071437"/><stop offset=".9871" stop-color="#010309"/><stop offset=".9944" stop-color="#000"/></radialGradient><radialGradient id="_Áåçûìÿííûé_ãðàäèåíò_75" cx="633.3862" cy="341.7562" fx="633.3862" fy="341.7562" r="4.7567" gradientTransform="translate(-1060.5374 535.4117) rotate(-20.5266) scale(2.5932 1.2277)" gradientUnits="userSpaceOnUse"><stop offset="0" stop-color="#a9d1ff"/><stop offset=".3706" stop-color="#a7cffd"/><stop offset=".5041" stop-color="#a3c9f6"/><stop offset=".5992" stop-color="#9bc0ea"/><stop offset=".6762" stop-color="#90b2d9"/><stop offset=".7421" stop-color="#81a0c3"/><stop offset=".8005" stop-color="#6f8aa8"/><stop offset=".8533" stop-color="#5a6f87"/><stop offset=".9018" stop-color="#415062"/><stop offset=".947" stop-color="#242d37"/><stop offset=".9871" stop-color="#060709"/><stop offset=".9944" stop-color="#000"/></radialGradient><radialGradient id="_Áåçûìÿííûé_ãðàäèåíò_144-2" cx="681.2063" cy="251.7992" fx="681.2063" fy="251.7992" r="19.9707" gradientTransform="translate(-333.6828 -72.7268) scale(1.6501 1)" xlink:href="#_Áåçûìÿííûé_ãðàäèåíò_144"/></defs><g class="cls-11"><g id="Snow"><g><g><path class="cls-7" d="M483.2335,160.677c-1.2925-1.2925,4.0367-5.6367,5.4389-4.2346,1.4021,1.4022-3.9749,5.6986-5.4389,4.2346Z"/><path class="cls-7" d="M511.4305,255.3372c-1.2926-1.2925,4.0367-5.6367,5.4388-4.2346s-3.9748,5.6986-5.4388,4.2346Z"/><path class="cls-7" d="M458.1073,225.3034c-2.9276-1.8266,4.0367-5.6368,5.4388-4.2346,1.4022,1.4021-1.0094,6.9982-5.4388,4.2346Z"/><path class="cls-7" d="M764.7106,323.3788c-2.9275-1.8266,4.0367-5.6368,5.4388-4.2347s-1.0094,6.9983-5.4388,4.2347Z"/><path class="cls-7" d="M616.3487,103.6776c-1.2542-.7826,1.7295-2.415,2.3303-1.8143,.6007,.6008-.4325,2.9984-2.3303,1.8143Z"/><path class="cls-8" d="M611.6789,215.1207c-1.2543-.7826,1.7295-2.415,2.3302-1.8143,.6008,.6007-.4325,2.9983-2.3302,1.8143Z"/><path class="cls-10" d="M524.4923,207.9423c-.6187-.386,.853-1.1912,1.1493-.8949s-.2133,1.4789-1.1493,.8949Z"/><path class="cls-7" d="M677.0042,70.753c-1.2542-.7826,1.7295-2.4151,2.3303-1.8143s-.4325,2.9983-2.3303,1.8143Z"/><path class="cls-7" d="M498.4254,153.9511c0-.9143,2.2097-2.2096,3.6574-2.2096s2.2704,2.6349,1.629,3.2764c-.6415,.6414-5.2864,.5461-5.2864-1.0668Z"/><path class="cls-7" d="M571.7183,189.2052c0-.9143,2.2097-2.2097,3.6574-2.2097s2.2704,2.635,1.629,3.2764c-.6414,.6415-5.2864,.5461-5.2864-1.0667Z"/><path class="cls-7" d="M503.5907,142.2859c-.3699-.1654-.4943-1.2936-.2325-1.8793,.2618-.5857,1.4766-.442,1.6201-.0665s-.7351,2.2375-1.3876,1.9458Z"/><path class="cls-7" d="M542.2949,249.9053c-.37-.1654-.4944-1.2936-.2326-1.8793,.2619-.5857,1.4767-.442,1.6202-.0665,.1435,.3755-.7351,2.2375-1.3876,1.9458Z"/><path class="cls-8" d="M632.6362,207.5118c-.3699-.1653-.4943-1.2935-.2325-1.8792s1.4766-.442,1.6201-.0665-.7351,2.2374-1.3876,1.9457Z"/><path class="cls-7" d="M525.4056,129.0286c-.3699-.1654-.4944-1.2936-.2325-1.8793,.2618-.5857,1.4766-.442,1.6201-.0665s-.7351,2.2375-1.3876,1.9458Z"/><path class="cls-9" d="M514.1216,138.712c.7656-1.1604,2.8804-.7619,2.8804,0s-2.4918,1.5315-2.8804,1.143c-.3885-.3885-.377-.5715,0-1.143Z"/><path class="cls-7" d="M210.7382,375.4107c-1.2926-1.2926,4.0367-5.6368,5.4388-4.2346,1.4022,1.4021-3.9748,5.6986-5.4388,4.2346Z"/><path class="cls-7" d="M225.93,368.6848c0-.9144,2.2097-2.2097,3.6574-2.2097s2.2705,2.635,1.629,3.2764c-.6414,.6415-5.2864,.5461-5.2864-1.0667Z"/><path class="cls-7" d="M237.9105,297.1439c-.3699-.1654-.4943-1.2936-.2325-1.8793,.2618-.5857,1.4766-.442,1.6201-.0665s-.7351,2.2374-1.3876,1.9458Z"/><path class="cls-7" d="M252.9102,343.7623c-.3699-.1654-.4943-1.2936-.2325-1.8793s1.4766-.442,1.6201-.0665-.7351,2.2374-1.3876,1.9458Z"/><path class="cls-9" d="M260.9454,287.3283c.7655-1.1604,2.8803-.762,2.8803,0s-2.4918,1.5314-2.8803,1.1429-.377-.5715,0-1.1429Z"/><path class="cls-9" d="M411.3311,143.4755c.7655-1.1604,2.8803-.762,2.8803,0s-2.4918,1.5314-2.8803,1.1429c-.3886-.3885-.377-.5715,0-1.1429Z"/><path class="cls-8" d="M328.2605,28.7993c-1.2926-1.2926,4.0367-5.6368,5.4388-4.2347s-3.9749,5.6987-5.4388,4.2347Z"/><path class="cls-7" d="M833.9211,201.794c-1.2925-1.2926,4.0367-5.6368,5.4389-4.2346,1.4021,1.4021-3.9749,5.6986-5.4389,4.2346Z"/><path class="cls-7" d="M833.9211,364.0031c-1.2925-1.2925,4.0367-5.6368,5.4389-4.2346,1.4021,1.4021-3.9749,5.6986-5.4389,4.2346Z"/><path class="cls-8" d="M270.9938,67.1297c0-.9144,2.2097-2.2097,3.6574-2.2097s2.2704,2.6349,1.629,3.2764c-.6414,.6414-5.2864,.5461-5.2864-1.0667Z"/><path class="cls-8" d="M419.2668,87.7664c0-.9144,2.2097-2.2097,3.6574-2.2097s2.2704,2.635,1.629,3.2764-5.2864,.5461-5.2864-1.0667Z"/><path class="cls-8" d="M387.8093,37.1488c-.37-.1654-.4944-1.2936-.2326-1.8793,.2619-.5857,1.4767-.442,1.6202-.0665s-.7351,2.2374-1.3876,1.9458Z"/><path class="cls-7" d="M981.066,246.3017c-.3699-.1653-.4943-1.2935-.2325-1.8792s1.4766-.442,1.6201-.0665-.7351,2.2374-1.3876,1.9457Z"/><path class="cls-7" d="M967.321,138.9702c-.3699-.1654-.4943-1.2936-.2325-1.8793s1.4767-.442,1.6202-.0665-.7352,2.2374-1.3877,1.9458Z"/><path class="cls-8" d="M262.6137,153.8187c-.3699-.1653-.4943-1.2935-.2325-1.8792,.2618-.5857,1.4766-.442,1.6201-.0665s-.7351,2.2374-1.3876,1.9457Z"/><path class="cls-8" d="M358.1519,122.8483c.7655-1.1604,2.8803-.762,2.8803,0s-2.4918,1.5314-2.8803,1.1429c-.3886-.3885-.3771-.5714,0-1.1429Z"/><path class="cls-8" d="M258.8795,42.0367c.7656-1.1604,2.8804-.762,2.8804,0s-2.4918,1.5314-2.8804,1.1429c-.3885-.3885-.377-.5715,0-1.1429Z"/><path class="cls-7" d="M978.7014,118.2895c.7655-1.1604,2.8803-.7619,2.8803,0s-2.4918,1.5315-2.8803,1.143c-.3885-.3886-.377-.5715,0-1.143Z"/><path class="cls-8" d="M17.7312,295.4405c-1.2925-1.2925,4.0367-5.6368,5.4388-4.2346,1.4022,1.4021-3.9748,5.6986-5.4388,4.2346Z"/><path class="cls-8" d="M50.0479,220.051c0-.9143,2.2097-2.2097,3.6574-2.2097s2.2705,2.635,1.629,3.2764c-.6414,.6415-5.2864,.5462-5.2864-1.0667Z"/><path class="cls-8" d="M139.3187,251.4434c-.3699-.1654-.4943-1.2936-.2325-1.8793,.2618-.5857,1.4766-.442,1.6201-.0665s-.7351,2.2375-1.3876,1.9458Z"/><path class="cls-8" d="M19.1693,274.339c.7656-1.1604,2.8804-.762,2.8804,0s-2.4918,1.5314-2.8804,1.1429c-.3885-.3885-.377-.5715,0-1.1429Z"/></g><ellipse class="cls-1" cx="223.2798" cy="197.7401" rx="19.5335" ry="12.8257" transform="translate(-65.4046 122.798) rotate(-26.9759)"/><path class="cls-3" d="M518.568,206.9155c1.3789,3.2459-2.1021,7.8308-7.7751,10.2409-5.673,2.41-11.3897,1.7324-12.7686-1.5134-1.379-3.2458,2.1021-7.8308,7.7751-10.2408s11.3897-1.7325,12.7686,1.5133Z"/><path class="cls-6" d="M815.5389,193.4048c1.3789,3.2459-2.1021,7.8308-7.7751,10.2409-5.673,2.41-11.3897,1.7324-12.7686-1.5134s2.1021-7.8308,7.7751-10.2408,11.3897-1.7325,12.7686,1.5133Z"/><ellipse class="cls-2" cx="622.6229" cy="309.9172" rx="30.3368" ry="17.3574" transform="translate(-71.6113 268.1222) rotate(-23.0171)"/><path class="cls-4" d="M636.3827,348.0652c1.1308,3.0204-3.1246,7.4054-9.5047,9.7943-6.3802,2.3888-12.4691,1.877-13.6-1.1433-1.1309-3.0203,3.1245-7.4054,9.5047-9.7943,6.3802-2.3888,12.4691-1.877,13.6,1.1433Z"/><ellipse class="cls-5" cx="790.3989" cy="179.0535" rx="32.9542" ry="19.9702" transform="translate(-17.24 246.2101) rotate(-17.5174)"/></g></g></g></svg>