<?xml version="1.0" encoding="UTF-8"?><svg id="Stars" xmlns="http://www.w3.org/2000/svg" viewBox="0 0 1000 400"><defs><style>.cls-1{fill:#fff;}</style></defs><path class="cls-1" d="M842.4365,33.473c.6539,0,.655-1.0163,0-1.0163-.6539,0-.655,1.0163,0,1.0163Z"/><path class="cls-1" d="M834.6016,49.3942c.654,0,.6551-1.0162,0-1.0162-.6538,0-.6549,1.0162,0,1.0162Z"/><path class="cls-1" d="M802.1482,54.7852c.6539,0,.655-1.0163,0-1.0163-.654,0-.655,1.0163,0,1.0163Z"/><path class="cls-1" d="M778.3202,9.8247c.6539,0,.655-1.0163,0-1.0163-.654,0-.655,1.0163,0,1.0163Z"/><path class="cls-1" d="M881.5029,26.7522c.654,0,.6551-1.0162,0-1.0162-.6539,0-.655,1.0162,0,1.0162Z"/><path class="cls-1" d="M678.8392,50.724c.654,0,.655-1.0163,0-1.0163-.6539,0-.655,1.0163,0,1.0163Z"/><path class="cls-1" d="M685.4521,60.212c.6539,0,.6551-1.0162,0-1.0162-.6539,0-.655,1.0162,0,1.0162Z"/><path class="cls-1" d="M425.3993,58.0735c.654,0,.655-1.0162,0-1.0162-.6539,0-.655,1.0162,0,1.0162Z"/><path class="cls-1" d="M388.2903,25.2928c.654,0,.6551-1.0163,0-1.0163-.6539,0-.655,1.0163,0,1.0163Z"/><path class="cls-1" d="M498.1497,67.0232c.654,0,.655-1.0162,0-1.0162-.6539,0-.655,1.0162,0,1.0162Z"/><path class="cls-1" d="M644.9122,62.7997c.6539,0,.655-1.0162,0-1.0162-.6539,0-.655,1.0162,0,1.0162Z"/><path class="cls-1" d="M690.915,30.5978c.6538,0,.655-1.0163,0-1.0163-.654,0-.6551,1.0163,0,1.0163Z"/><path class="cls-1" d="M718.2291,29.4477c.6539,0,.655-1.0163,0-1.0163-.654,0-.655,1.0163,0,1.0163Z"/><path class="cls-1" d="M732.0299,49.8615c.6539,0,.655-1.0164,0-1.0164-.6539,0-.655,1.0164,0,1.0164Z"/><path class="cls-1" d="M965.1841,68.6177c.6539,0,.655-1.0163,0-1.0163-.654,0-.655,1.0163,0,1.0163Z"/><path class="cls-1" d="M974.502,76.395c.6539,0,.655-1.0163,0-1.0163-.6539,0-.655,1.0163,0,1.0163Z"/><path class="cls-1" d="M876.0516,36.1515c.654,0,.6551-1.0162,0-1.0162-.6538,0-.6549,1.0162,0,1.0162Z"/><path class="cls-1" d="M618.4606,114.2653c.6539,0,.655-1.0163,0-1.0163-.6539,0-.655,1.0163,0,1.0163Z"/><path class="cls-1" d="M580.7959,99.0269c.6539,0,.655-1.0163,0-1.0163-.654,0-.6551,1.0163,0,1.0163Z"/><path class="cls-1" d="M543.4186,14.2093c.6539,0,.6551-1.0163,0-1.0163-.6539,0-.655,1.0163,0,1.0163Z"/><path class="cls-1" d="M576.7706,5.8713c.654,0,.655-1.0163,0-1.0163-.6539,0-.655,1.0163,0,1.0163Z"/><path class="cls-1" d="M552.6192,28.8727c.6539,0,.655-1.0163,0-1.0163-.654,0-.6551,1.0163,0,1.0163Z"/><path class="cls-1" d="M515.2419,.1209c.654,0,.6551-1.0163,0-1.0163-.6539,0-.655,1.0163,0,1.0163Z"/><path class="cls-1" d="M522.1423,2.7086c.654,0,.6551-1.0163,0-1.0163-.6539,0-.655,1.0163,0,1.0163Z"/><path class="cls-1" d="M468.2329,60.4996c.6539,0,.655-1.0163,0-1.0163-.654,0-.655,1.0163,0,1.0163Z"/><path class="cls-1" d="M412.167,67.8313c.6539,0,.655-1.0163,0-1.0163-.6539,0-.655,1.0163,0,1.0163Z"/><path class="cls-1" d="M406.9917,82.0633c.6539,0,.655-1.0162,0-1.0162-.654,0-.655,1.0162,0,1.0162Z"/><path class="cls-1" d="M459.6073,144.1671c.654,0,.6551-1.0163,0-1.0163-.6539,0-.655,1.0163,0,1.0163Z"/><path class="cls-1" d="M486.3464,164.8683c.654,0,.6551-1.0162,0-1.0162-.6539,0-.6549,1.0162,0,1.0162Z"/><path class="cls-1" d="M405.2666,14.7844c.6539,0,.655-1.0164,0-1.0164-.6539,0-.655,1.0164,0,1.0164Z"/><path class="cls-1" d="M562.251,120.4469c.6539,0,.655-1.0163,0-1.0163-.6539,0-.655,1.0163,0,1.0163Z"/><path class="cls-1" d="M553.6255,133.3852c.6539,0,.655-1.0163,0-1.0163-.6539,0-.655,1.0163,0,1.0163Z"/><path class="cls-1" d="M591.1465,130.2937c.0055,0,.0055-.0086,0-.0086-.0055,0-.0055,.0086,0,.0086Z"/><path class="cls-1" d="M607.9663,136.4041c.6538,0,.6549-1.0163,0-1.0163-.654,0-.6551,1.0163,0,1.0163Z"/><path class="cls-1" d="M595.4592,127.3473c.654,0,.6551-1.0163,0-1.0163-.6539,0-.655,1.0163,0,1.0163Z"/><path class="cls-1" d="M624.3547,149.7737c.6539,0,.655-1.0163,0-1.0163-.6539,0-.655,1.0163,0,1.0163Z"/><path class="cls-1" d="M719.6667,102.3333c.6539,0,.655-1.0162,0-1.0162-.654,0-.6551,1.0162,0,1.0162Z"/><path class="cls-1" d="M767.9696,42.8173c.6539,0,.655-1.0163,0-1.0163-.654,0-.6551,1.0163,0,1.0163Z"/><path class="cls-1" d="M779.1827,52.3053c.6539,0,.655-1.0162,0-1.0162-.6539,0-.655,1.0162,0,1.0162Z"/></svg>