<?xml version="1.0" encoding="UTF-8"?><svg xmlns="http://www.w3.org/2000/svg" xmlns:xlink="http://www.w3.org/1999/xlink" viewBox="0 0 1000 400"><defs><style>.cls-1{fill:url(#linear-gradient-4);}.cls-1,.cls-2,.cls-3,.cls-4,.cls-5,.cls-6,.cls-7,.cls-8,.cls-9,.cls-10,.cls-11,.cls-12,.cls-13,.cls-14,.cls-15,.cls-16,.cls-17,.cls-18,.cls-19,.cls-20,.cls-21,.cls-22,.cls-23,.cls-24,.cls-25,.cls-26,.cls-27,.cls-28,.cls-29,.cls-30,.cls-31,.cls-32,.cls-33,.cls-34,.cls-35,.cls-36,.cls-37,.cls-38,.cls-39,.cls-40,.cls-41,.cls-42,.cls-43,.cls-44,.cls-45,.cls-46,.cls-47,.cls-48,.cls-49,.cls-50,.cls-51,.cls-52,.cls-53,.cls-54{fill-rule:evenodd;}.cls-2{fill:url(#linear-gradient-12);}.cls-3{fill:url(#_Áåçûìÿííûé_ãðàäèåíò_249-5);}.cls-4{fill:#d1ecff;}.cls-5{fill:url(#_Áåçûìÿííûé_ãðàäèåíò_249-7);}.cls-55{fill:url(#linear-gradient-40);}.cls-6{fill:url(#linear-gradient-38);}.cls-7{fill:url(#linear-gradient-21);}.cls-56{fill:url(#linear-gradient-36);}.cls-57{isolation:isolate;}.cls-8{fill:url(#linear-gradient-2);}.cls-9{fill:#655cc4;}.cls-10{fill:url(#linear-gradient);}.cls-58{fill:#4638a6;}.cls-59{fill:url(#linear-gradient-35);}.cls-11{fill:url(#linear-gradient-15);}.cls-12{fill:#2f4496;}.cls-13{fill:url(#linear-gradient-24);}.cls-14{fill:#ae9aff;mix-blend-mode:multiply;}.cls-14,.cls-60{opacity:.5;}.cls-15{fill:url(#linear-gradient-9);}.cls-16{fill:#171536;}.cls-17{fill:url(#linear-gradient-25);}.cls-18{fill:url(#linear-gradient-34);}.cls-19{fill:url(#linear-gradient-6);}.cls-20{fill:url(#linear-gradient-16);}.cls-60,.cls-36,.cls-41,.cls-54{mix-blend-mode:soft-light;}.cls-21{fill:url(#linear-gradient-29);}.cls-22{fill:url(#linear-gradient-39);}.cls-23{fill:url(#linear-gradient-26);}.cls-24{fill:url(#linear-gradient-14);}.cls-25{fill:url(#_Áåçûìÿííûé_ãðàäèåíò_249-6);}.cls-61{fill:url(#linear-gradient-37);}.cls-26{fill:#d0c0cc;}.cls-27{fill:url(#linear-gradient-5);}.cls-28{fill:url(#linear-gradient-23);}.cls-29{fill:url(#linear-gradient-28);}.cls-30{fill:url(#_Áåçûìÿííûé_ãðàäèåíò_249-4);}.cls-31{fill:url(#linear-gradient-27);}.cls-62{fill:url(#linear-gradient-41);}.cls-32{fill:url(#linear-gradient-10);}.cls-33{fill:url(#linear-gradient-18);}.cls-34{fill:url(#linear-gradient-32);}.cls-35{fill:url(#linear-gradient-11);}.cls-36{fill:#a5a1c7;}.cls-37{fill:url(#linear-gradient-30);}.cls-38{fill:url(#linear-gradient-19);}.cls-39{fill:url(#linear-gradient-20);}.cls-40{fill:url(#linear-gradient-31);}.cls-63{fill:#150c29;}.cls-41{fill:#b8b4de;}.cls-42{fill:#1a205c;}.cls-43{fill:url(#_Áåçûìÿííûé_ãðàäèåíò_249-2);}.cls-44{fill:url(#linear-gradient-22);}.cls-45{fill:url(#_Áåçûìÿííûé_ãðàäèåíò_249-3);}.cls-46{fill:url(#linear-gradient-13);}.cls-47{fill:url(#_Áåçûìÿííûé_ãðàäèåíò_249);}.cls-48{fill:url(#linear-gradient-7);}.cls-49{fill:url(#linear-gradient-8);}.cls-50{fill:#16638a;}.cls-51{fill:url(#linear-gradient-3);}.cls-52{fill:url(#linear-gradient-33);}.cls-53{fill:url(#linear-gradient-17);}.cls-54{fill:#b0abd4;}</style><linearGradient id="_Áåçûìÿííûé_ãðàäèåíò_249" x1="-1.4281" y1="268.8899" x2="378.4395" y2="268.8899" gradientUnits="userSpaceOnUse"><stop offset="0" stop-color="#110b42"/><stop offset="1" stop-color="#181136"/></linearGradient><linearGradient id="_Áåçûìÿííûé_ãðàäèåíò_249-2" y1="146.6326" x2="200.7257" y2="146.6326" xlink:href="#_Áåçûìÿííûé_ãðàäèåíò_249"/><linearGradient id="_Áåçûìÿííûé_ãðàäèåíò_249-3" x1="236.1613" y1="139.5308" x2="273.5205" y2="139.5308" xlink:href="#_Áåçûìÿííûé_ãðàäèåíò_249"/><linearGradient id="_Áåçûìÿííûé_ãðàäèåíò_249-4" x1="273.0471" y1="140.2955" x2="283.891" y2="140.2955" xlink:href="#_Áåçûìÿííûé_ãðàäèåíò_249"/><linearGradient id="linear-gradient" x1="125.4477" y1="400.1793" x2="125.4477" y2="185.1765" gradientUnits="userSpaceOnUse"><stop offset="0" stop-color="#110b42"/><stop offset="1" stop-color="#100b24"/></linearGradient><linearGradient id="linear-gradient-2" x1="178.6923" y1="358.2855" x2="178.6923" y2="352.4635" gradientUnits="userSpaceOnUse"><stop offset="0" stop-color="#0b0b21"/><stop offset="1" stop-color="#050721"/></linearGradient><linearGradient id="linear-gradient-3" x1="165.6021" y1="355.2143" x2="165.6021" y2="353.5656" xlink:href="#linear-gradient-2"/><linearGradient id="linear-gradient-4" x1="92.01" y1="381.192" x2="92.01" y2="369.2715" xlink:href="#linear-gradient-2"/><linearGradient id="linear-gradient-5" x1="70.6584" y1="395.3465" x2="70.6584" y2="384.2516" xlink:href="#linear-gradient-2"/><linearGradient id="linear-gradient-6" x1="52.6101" y1="387.6003" x2="52.6101" y2="385.5812" xlink:href="#linear-gradient-2"/><linearGradient id="linear-gradient-7" x1="99.7705" y1="364.3311" x2="99.7705" y2="355.8579" xlink:href="#linear-gradient-2"/><linearGradient id="linear-gradient-8" x1="177.4361" y1="400.1793" x2="177.4361" y2="367.3464" xlink:href="#linear-gradient-2"/><linearGradient id="linear-gradient-9" x1="144.0969" y1="370.0117" x2="144.0969" y2="361.9961" xlink:href="#linear-gradient-2"/><linearGradient id="linear-gradient-10" x1="140.2651" y1="252.0968" x2="140.2651" y2="229.5192" xlink:href="#linear-gradient-2"/><linearGradient id="linear-gradient-11" x1="105.8017" y1="238.0552" x2="105.8017" y2="232.4855" xlink:href="#linear-gradient-2"/><linearGradient id="linear-gradient-12" x1="716.4602" y1="400" x2="716.4602" y2="236.71" gradientUnits="userSpaceOnUse"><stop offset="0" stop-color="#170d36"/><stop offset="1" stop-color="#13062e"/></linearGradient><linearGradient id="_Áåçûìÿííûé_ãðàäèåíò_249-5" x1="593.0421" y1="266.435" x2="1000" y2="266.435" xlink:href="#_Áåçûìÿííûé_ãðàäèåíò_249"/><linearGradient id="_Áåçûìÿííûé_ãðàäèåíò_249-6" x1="859.285" y1="128.6126" x2="921.5774" y2="128.6126" xlink:href="#_Áåçûìÿííûé_ãðàäèåíò_249"/><linearGradient id="_Áåçûìÿííûé_ãðàäèåíò_249-7" x1="799.7516" y1="136.1889" x2="818.57" y2="136.1889" xlink:href="#_Áåçûìÿííûé_ãðàäèåíò_249"/><linearGradient id="linear-gradient-13" x1="863.5803" y1="400" x2="863.5803" y2="243.3346" xlink:href="#linear-gradient"/><linearGradient id="linear-gradient-14" x1="784.452" y1="364.5061" x2="784.452" y2="347.2718" xlink:href="#linear-gradient-2"/><linearGradient id="linear-gradient-15" x1="930.464" y1="380.3808" x2="930.464" y2="362.8741" xlink:href="#linear-gradient-2"/><linearGradient id="linear-gradient-16" x1="832.2967" y1="317.8631" x2="832.2967" y2="314.6688" xlink:href="#linear-gradient-2"/><linearGradient id="linear-gradient-17" x1="844.1915" y1="317.4211" x2="844.1915" y2="314.99" xlink:href="#linear-gradient-2"/><linearGradient id="linear-gradient-18" x1="782.3601" y1="371.1453" x2="782.3601" y2="359.12" xlink:href="#linear-gradient-2"/><linearGradient id="linear-gradient-19" x1="961.4784" y1="307.4354" x2="961.4784" y2="303.6561" xlink:href="#linear-gradient-2"/><linearGradient id="linear-gradient-20" x1="947.5824" y1="310.7104" x2="947.5824" y2="305.881" xlink:href="#linear-gradient-2"/><linearGradient id="linear-gradient-21" x1="948.5611" y1="309.2153" x2="948.5611" y2="304.4263" xlink:href="#linear-gradient-2"/><linearGradient id="linear-gradient-22" x1="946.7328" y1="291.3958" x2="946.7328" y2="282.0526" xlink:href="#linear-gradient-2"/><linearGradient id="linear-gradient-23" x1="985.5453" y1="274.8768" x2="985.5453" y2="270.5522" xlink:href="#linear-gradient-2"/><linearGradient id="linear-gradient-24" x1="625.8973" y1="219.65" x2="625.8973" y2="151.6729" xlink:href="#linear-gradient-12"/><linearGradient id="linear-gradient-25" x1="629.8861" y1="162.0526" x2="629.8861" y2="151.0117" xlink:href="#linear-gradient-12"/><linearGradient id="linear-gradient-26" x1="340.1104" y1="198.6646" x2="340.1104" y2="167.5474" xlink:href="#linear-gradient-12"/><linearGradient id="linear-gradient-27" x1="361.4145" y1="153.0987" x2="361.4145" y2="147.0169" xlink:href="#linear-gradient-12"/><linearGradient id="linear-gradient-28" x1="724.1947" y1="239.0485" x2="724.1947" y2="208.6725" xlink:href="#linear-gradient-12"/><linearGradient id="linear-gradient-29" x1="735.7115" y1="229.411" x2="735.7115" y2="223.8605" xlink:href="#linear-gradient-12"/><linearGradient id="linear-gradient-30" x1="277.8124" y1="238.2211" x2="277.8124" y2="215.4842" xlink:href="#linear-gradient-12"/><linearGradient id="linear-gradient-31" x1="285.3851" y1="215.2552" x2="285.3851" y2="212.5167" xlink:href="#linear-gradient-12"/><linearGradient id="linear-gradient-32" x1="330.6" y1="400" x2="330.6" y2="330.03" xlink:href="#linear-gradient"/><linearGradient id="linear-gradient-33" x1="372.3526" y1="136.3491" x2="372.3526" y2="93.0682" xlink:href="#linear-gradient-12"/><linearGradient id="linear-gradient-34" x1="598.0539" y1="129.8269" x2="598.0539" y2="82.9274" xlink:href="#linear-gradient-12"/><linearGradient id="linear-gradient-35" x1="484.9892" y1="174.9214" x2="484.9892" y2="129.2847" xlink:href="#linear-gradient-12"/><linearGradient id="linear-gradient-36" x1="371.9888" y1="113.4951" x2="600.001" y2="113.4951" xlink:href="#linear-gradient-12"/><linearGradient id="linear-gradient-37" x1="370.3701" y1="116.8118" x2="599.9883" y2="116.8118" xlink:href="#linear-gradient-12"/><linearGradient id="linear-gradient-38" x1="431.5125" y1="153.022" x2="431.5125" y2="117.8784" xlink:href="#linear-gradient-12"/><linearGradient id="linear-gradient-39" x1="535.2712" y1="138.4317" x2="535.2712" y2="115.7932" xlink:href="#linear-gradient-12"/><linearGradient id="linear-gradient-40" x1="314.5571" y1="121.6789" x2="370.8892" y2="121.6789" gradientTransform="translate(115.2327 -162.0692) rotate(31.733)" xlink:href="#linear-gradient-12"/><linearGradient id="linear-gradient-41" x1="600.7969" y1="114.7177" x2="649.1973" y2="114.7177" gradientTransform="translate(335.0283 -450.7021) rotate(52.4487)" xlink:href="#linear-gradient-12"/></defs><g class="cls-57"><g id="Front"><g id="Shine"><g id="Shine-2"><g id="Layer_33"><g id="Layer_13"><g id="highlights"><path class="cls-4" d="M1001.5,247.2909l-.5,.435v-110.8222l-78.4227-1.1627h0l-21.0008-18.2568-39.9501,17.3531-44.4933-.6597-2.3923-1.2197-8.58,1.0571-155.946-2.3122,.9851-4.1689h-1.16l-.6369,2.8619-47.3015-36.3631-.1531,.1992,.5564-1.9161h-1.4129l1.4129-11.3884-3.4914,2.0177-.712,9.3707h-.912v2.6847c-5.0856,3.2602-15.8137,9.6595-30.7557,16.0381-19.5742,8.3559-50.5733,18.376-87.0982,18.6587-7.2155,.06-14.0885-.2469-20.6077-.8252-8.7236-1.4209-32.964-5.6192-50.2472-11.0066-2.7298-.9927-5.2672-1.987-7.5899-2.9558-16.4883-6.8784-26.0835-13.8895-27.58-15.0199l-.1582-2.2687-.4051,.0947-.5896-6.6476h-2.6526l1.0451,7.1612-1.0451,.2443,.7451,4.368-54.1942,33.5448-.1356-1.7058-1.1898,1.0709,.687,2.9953-31.1948,1.5901,1.8962-4.9159-4.5297-.0011-6.0573,5.173-.0002-.0002-9.9215-8.574-.5267,.0842-.1037-.0842-20.6538,3.4023-5.712,6.988-20.7579,1.0212-.0161,.2903-14.8944,.7593L1,132.8811v144.7405l-3.6055-1.8782-.2752,2.8768,3.8807,1.9925v117.3873H119.5961l25.3471,11.4073-19.8644-11.4073h89.3485l10.8733,3.3333-3.0625-8.805-1.8276-5.3932h0l-4.5579-13.1043,24.9371-77.8265h2.8524l4.0421-4.0515,7.0675-4.4781-21.1473-13.4341-3.934-2.2569,2.9635-19.7337h0l.4443-2.9586,3.5148-5.1177,28.8435-19.1234h-.0002s45.4524-30.1352,45.4524-30.1352l5.5579-7.0369,6.4421-2.8787,20.0842-17.5924,21.2211-22.3902h7.7048l7.8295-8.3768,1.0512,.2289,1.3855,26.329,.005-24.3418,1.04-.8193-1.04,47.1882,1.04-16.8052,1.3645-2.5184,.8239-27.0453,16.1066,10.8328,1.0823-2.1986c.3902,.2143,.7885,.4303,1.1877,.6464l-.4991,1.5673,7.7588,5.9407,7.7588,2.9454,.7638-2.7069c.095,.042,.192,.084,.2875,.126l2.1553,1.5972-.2574,1.0228,3.289,2.6539,11.8577,5.2244,2.9915-.0006,.2461-2.3219,.765,.3529-.2177,1.1585,3.4682,2.0702,12.273,3.3766,.8153-2.6862c.541,.1233,1.0854,.2436,1.6309,.363l1.193,1.3482,.1318-1.0635h0l-.2119,1.7101,5.5412,2.569,10.1673,1.1652,.2324-1.2301,3.7116-1.0362-.0895,1.5551,3.4098,.7901,12.1507,.6872v-.6878l-.0068-1.71c1.3298-.0038,2.6458-.0337,3.953-.0796l.2077,1.7113v.7661l12.5755-.7661,2.9723-1.5326v10.1461h.4776l.7647,20.4282,.379-30.2069,.7578-.3674,.3963,9.1622,.8984-8.3408,14.3685-3.9316,1.3679-1.6184v3.0612l1.0321-4.4467,.2211,.4526,1.2517-.4526v-.0002s.2702,2.2331,.2702,2.2331l15.1833-7.244,.8716-1.3583,1.0843-.4785,.5444,1.2251,14.7418-9.4559,1.6159-1.9279-.6201-1.4849h0l.3031,.7258,.6929-.3205,.203,.8188,3.2049-.9695,12.3477-10.8345,.7288-1.3993-.7505-1.3766h0s.7505,1.3766,.7505,1.3766l2.4585-2.0064h0s4.0117-3.2741,4.0117-3.2741l24.115,21.5423,26.1473-7.3568,46.0997,32.9033h0s5.4373,3.8807,5.4373,3.8807l4.9263,1.5993,23.6499,31.0931,3.5368,3.4119,12.6028,7.3968,8.0248,19.8656-39.7448,18.0179-7.1062,3.2052-93.7754,123.6158v7.6737h378.5504l.0635,.2415,14.1158-.2415,.1566-27.8211,.3434-61.0289-.5,.2234v-12.1234l.5-49.9591ZM597.3895,96.0248c-2.8053,1.6424-7.3055,4.1812-13.1915,7.1994,5.8724-3.1073,10.3426-5.8134,13.1915-7.6301v.4307Zm-119.5404,34.1788c.5596,0,1.1265-.0019,1.6905-.0063,36.3524-.2817,67.2363-10.1846,86.8766-18.5243-5.1908,2.2806-10.8497,4.6057-16.8915,6.865-21.3299,7.4968-39.1645,11.4168-39.1645,11.4168,.3489-.0133,.7022-.034,1.0564-.0561-22.3645,4.8871-48.7786,7.363-75.2952,2.3572v-5.1717l1.2951-.3789,.7519,1.7052,.379-.8766s7.3263,2.574,14.1473,2.42c4.2323-.0955,6.5849-.3089,7.7629-.4574,.351,.0286,.7027,.0566,1.0558,.0835l.7182,3.2818v-3.225c5.0078,.365,10.2161,.5668,15.6175,.5668Zm-76.9702-14.8408c1.1588,.4836,2.3748,.9736,3.6355,1.4663,3.8279,2.0078,13.9435,6.7571,29.1856,9.8762l.979-.9381c.0691,.0145,.1368,.0297,.2061,.0443l.3071,6.2636c-21.126-4.1277-42.2852-13.0401-61.4805-29.3038l-.1551-2.2241c2.3221,1.7107,11.7688,8.3248,27.3223,14.8156Zm-84.4383,23.3422l-.1399-1.7586,54.2404-33.5734,.1905,1.1165,.9193-.09,3.2657,22.3777-1.564,.4017,1.0263,5.934-1.0263-3.159-9.1586,1.404-.9466,4.0632-.1895-3.1737-.6434,.1894,.6434,3.8351,12.2595-.5921,.0899,.0196-58.9667,3.0056Zm79.6799,2.8315c-1.5997-.8393-3.0751-1.5918-4.4265-2.2911l.3546,.0772,4.0719,2.2139Zm-20.9603-9.7634l.4807-.0329h0l-.4807,.0329Zm28.6752,15.7668l.5909-1.4483,14.3672,7.1143c-4.8511-2.187-9.6851-4.5809-14.3672-7.1143l-.4803,1.5083c-.0372-.0201-.0735-.04-.1106-.06Zm37.5528,14.3569l13.2713,3.7291c-4.4171-1.0779-8.8714-2.3225-13.2713-3.7291Zm-18.71-6.9845l14.7383,5.671c-4.9131-1.6815-9.8721-3.5891-14.7383-5.671Zm34.3817,12.9866l-.6444-1.8433c-.5316-.1243-1.0662-.2617-1.5991-.3913l-.6991-.2386,2.2982,.6299,1.8828,2.1278c-.4149-.0926-.8257-.1895-1.2384-.2845Zm3.1884,.7067l.2048-1.6529,11.3484,2.0167c-3.7715-.5467-7.5739-1.2215-11.3484-2.0167l-.2048,1.6529h0Zm34.841,3.8094l-.0068-1.6994-.2754,.0006c-.0149,0-.0302-.0006-.0451-.0006h.3205l-6.2919-1.5803-13.1075,.3533c-1.2837-.1566-2.5737-.3296-3.8671-.517l-17.0177-4.3859-.6818,.8397-17.9951-6.1422-30.8109-13.1916-11.8195-7.6689,.3406-.8151-5.128-2.2913-4.9457-3.2089-4.5728-2.1526-2.1851,1.6924,3.4895-.2893,.0027,.0505-3.7642,.2574h0l.272-.0186,.4105-5.5104-1.2115,.3111-1.1419-11.2643-.615-.6177-.918-10.3496,.2864-.028-.0523-.7505c17.7387,14.9329,38.3556,24.7638,61.4654,29.2783l.8978,18.3059v-18.1408c3.2405,.6122,6.5247,1.1309,9.861,1.5353,6.5327,.792,13.2471,1.187,20.1323,1.187,15.6548,0,32.1836-2.0511,49.3858-6.1219,12.4998-1.7335,26.1363-7.3711,26.1363-7.3711l.1106,3.002,1.1829-3.0809c14.5724,.2526,16.1223-6.1532,16.1223-6.1532l2.2737-1.0856-1.2631,21.6389,2.0949-22.3806c16.812-7.0944,29.3987-14.0441,35.2314-17.4468v1.3957h.48l-1.8663,24.5609-2.56,.7023-.0116,2.5441-.3935,.4628c-.0127,.0147-1.2686,1.4835-3.6309,3.8418l4.0244-4.3046-1.6991-.2267-13.6693,13.9387-9.7106,5.003-23.6628,14.2983-20.1214,7.0809-8.7789,3.2338-11.0918-1.4237-1.6661,1.4237h-4.4366l.3889,3.2045c-1.2877,.0447-2.585,.0717-3.8946,.0752Zm78.1226-28.5251l7.3993-5.7955c-2.3835,1.9873-4.8502,3.9284-7.3993,5.7955Zm-35.7842,19.2433l7.6704-3.0567c-2.5441,1.1027-5.1066,2.1277-7.6704,3.0567Zm8.1454-3.2691l6.3927-2.9838c-2.1072,1.053-4.2438,2.0428-6.3927,2.9838Zm24.6363-11.9245l-1.1778-2.8203,1.1779,2.8203h0Zm16.6796-13.3379l-.7406-1.3585c-1.5459,1.4329-3.1593,2.8399-4.8046,4.2303l4.8046-4.2303,.6482,1.1888,.0925,.1697h0Zm7.8008-3.7221l.1102-.0899,28.4222,.5129-19.3906-1.8153-.8842-.6347,1.0105-6.3158-1.453,5.2901v-4.5953l-4.7052-1.0683,.3612-1.8294-.2842-2.1001,2.5102-20.2338h.4675l1.0196-3.5115,47.4093,36.4459-.1674,.7521h.0003l-54.4264-.8069Z"/><polygon class="cls-4" points="256.7733 373.131 267.0235 384.6855 271.1236 384.6855 279.7029 398 293.8542 398 299.35 398 342.93 398 355.6636 398 361.9114 390.5076 371.6735 390.5076 406.4267 334.2431 406.4267 328.03 262.3377 369.0309 256.7733 373.131"/></g></g></g></g></g><g id="left_cliff"><g id="left_cliff-2"><g id="Layer_32"><g id="Layer_12"><g id="main_rock_right"><g><polygon class="cls-47" points="209.1605 400.1793 231.1762 276.4199 227.2395 274.1809 230.65 251.4707 234.1649 246.353 308.4605 197.0944 314.0184 190.0575 320.4605 187.1788 340.5447 169.5864 361.7659 147.1962 369.4706 147.1962 378.4395 137.6004 -1.4281 156.9628 -1.4281 400.1793 209.1605 400.1793"/><polygon class="cls-54" points="139.5297 207.074 224.035 237.6959 230.65 251.4707 230.2057 254.4293 172.7507 225.8404 139.5297 207.074"/><polygon class="cls-41" points="144.9613 213.9849 184.4981 233.3477 218.2244 254.4293 159.3619 230.7517 144.9613 213.9849"/><polygon class="cls-41" points="98.5719 195.2004 142.435 222.4893 90.6871 194.7095 98.5719 195.2004"/><polygon class="cls-54" points="308.4605 197.0944 159.3619 154.704 314.0184 190.0575 308.4605 197.0944"/><polygon class="cls-54" points="98.5719 151.3681 165.0771 177.3893 235.3827 226.0193 238.3004 236.8893 150.2665 198.6109 109.5297 178.7643 117.6771 185.5119 5.6351 142.5267 98.5719 151.3681"/><polygon class="cls-54" points="151.3754 167.7267 211.8103 202.6263 194.505 185.1947 151.3754 167.7267"/><polygon class="cls-43" points="-1.4281 135.0604 200.7257 146.6596 -1.4281 158.2047 -1.4281 135.0604"/><polygon class="cls-45" points="236.1613 144.8635 242.0981 137.6004 262.7519 134.1981 273.5205 142.9482 236.1613 144.8635"/><polygon class="cls-30" points="273.0471 142.9917 279.3613 137.5993 283.891 137.6004 281.9863 142.5385 273.0471 142.9917"/><polygon class="cls-14" points="159.3619 230.7517 156.0622 267.0393 148.9715 256.9688 144.9613 213.9849 159.3619 230.7517"/><polygon class="cls-14" points="156.0622 216.4132 156.0622 219.4215 184.4981 233.3477 185.0899 231.9802 156.0622 216.4132"/><polygon class="cls-14" points="139.5297 207.074 137.7602 219.581 134.4981 217.5515 137.0139 192.1543 201.9972 221.1041 199.5651 228.8288 191.9507 225.5161 191.4455 220.4635 147.7402 202.6263 144.4164 208.8448 139.5297 207.074"/><polygon class="cls-14" points="117.6771 185.5119 112.6245 203.9431 118.5356 207.6206 121.5647 184.6276 110.3981 179.1874 117.6771 185.5119"/><polygon class="cls-14" points="308.4605 197.0944 263.0081 227.2297 300.5823 198.4846 243.235 192.1543 221.495 216.4132 207.9931 207.074 211.8103 202.6263 201.9972 192.1543 211.8103 169.6157 203.1749 167.1605 194.505 185.1947 190.8462 183.7129 199.6553 166.1599 175.3035 159.2364 168.2477 173.942 165.0771 173.276 170.576 157.8923 308.4605 197.0944"/><polygon class="cls-14" points="218.2244 254.4293 196.2455 344.9146 224.4881 251.5843 199.6553 239.2278 197.8843 241.7151 218.2244 254.4293"/><polygon class="cls-14" points="361.7659 147.1962 278.5975 144.5735 298.435 146.2075 283.891 183.1706 296.5902 186.0735 312.2665 148.3893 315.8619 148.3893 299.7754 186.8016 303.1719 186.8016 318.8786 156.9628 359.5089 149.5775 361.7659 147.1962"/><polygon class="cls-14" points="215.6282 145.6096 214.4245 167.2909 230.65 171 236.6901 144.5735 215.6282 145.6096"/><polygon class="cls-14" points="159.3619 148.3776 148.9715 152.7582 121.5647 152.7582 121.5647 151.3681 159.3619 148.3776"/></g><g><polygon class="cls-10" points="98.2836 200.1793 252.3235 289.854 245.256 294.3321 241.2139 298.3836 238.3615 298.3836 213.4244 376.2101 221.7613 400.1793 178.056 400.1793 -1.4281 400.1793 -1.4281 241.0631 41.6715 185.1765 98.2836 200.1793"/><polygon class="cls-41" points="98.2836 200.1793 41.6715 185.1765 165.0771 292.6093 145.7192 262.7243 182.291 292.6093 240.456 293.7393 227.0665 282.8635 245.5014 292.6093 252.3235 289.854 231.1762 276.4199 98.2836 200.1793"/><polygon class="cls-41" points="106.3086 243.6612 161.635 293.7393 172.7507 319.8693 113.8876 254.0635 106.3086 243.6612"/><polygon class="cls-41" points="213.4244 376.2101 155.8147 311.3293 136.6244 297.2493 139.5297 315.5893 176.9845 383.6593 148.5109 341.868 139.5297 354.2843 151.2771 400.1793 221.7613 400.1793 213.4244 376.2101"/><polygon class="cls-41" points="172.7507 322.0214 196.2455 348.7143 188.6665 335.3679 172.7507 322.0214"/><polygon class="cls-41" points="134.6034 311.3293 131.6981 297.2493 117.6771 285.8951 134.6034 311.3293"/><polygon class="cls-41" points="144.9613 400.1793 98.2836 327.6267 43.6617 262.7243 131.6981 385.7443 98.5719 354.2843 31.5298 367.6951 121.6224 400.1793 144.9613 400.1793"/><polygon class="cls-41" points="144.9613 391.874 142.3086 383.9161 133.2139 373.5582 144.9613 391.874"/><polygon class="cls-41" points="133.2139 371.6635 130.6876 368.8846 129.9297 363.0293 133.2139 363.903 133.2139 371.6635"/><polygon class="cls-41" points="97.7193 246.9593 126.1402 287.1193 66.4806 242.1633 77.2629 235.7908 97.7193 246.9593"/><polygon class="cls-41" points="74.4772 295.9997 109.1507 338.8214 98.2836 314.4287 74.4772 295.9997"/><polygon class="cls-41" points="109.5297 339.7214 115.7823 348.7143 112.4665 340.7161 109.5297 339.7214"/><polygon class="cls-14" points="107.5683 352.4785 103.7171 359.3716 98.5719 354.2843 98.5719 340.0759 107.5683 352.4785"/><polygon class="cls-14" points="109.1507 364.3311 111.9297 358.4913 118.3529 367.3464 114.3529 369.2715 109.1507 364.3311"/><polygon class="cls-14" points="144.9613 400.1793 151.2771 400.1793 139.5297 354.2843 138.5221 379.6036 142.3086 383.9161 144.9613 391.874 142.3745 396.1587 144.9613 400.1793"/><polygon class="cls-14" points="151.4723 346.2147 153.99 341.8693 176.9845 383.6593 151.4723 346.2147"/><polygon class="cls-14" points="139.5297 315.5893 138.5221 353.0951 134.6034 311.3293 131.6981 297.2493 121.6224 289.09 121.6224 282.8347 126.1402 287.1193 107.5683 260.8764 109.5297 248.0822 113.8876 254.0635 158.7577 304.2258 155.8147 311.3293 153.1719 309.5161 154.3086 302.6951 152.1613 300.5886 149.5252 306.7146 136.6244 297.2493 139.5297 315.5893"/><polygon class="cls-14" points="182.291 292.6093 171.2666 316.3806 169.4789 312.1779 176.6034 289.274 175.3035 288.7056 167.6101 307.7852 163.7079 298.6122 165.0771 292.6093 158.0529 281.7653 161.4989 275.6189 182.291 292.6093"/><polygon class="cls-14" points="155.556 277.9105 158.0529 272.8029 155.556 270.7625 154.0716 275.6189 155.556 277.9105"/><polygon class="cls-14" points="221.7613 293.3761 208.8169 371.0209 211.8103 373.5582 221.7613 304.8425 230.856 297.2493 213.4244 376.2101 238.3615 298.3836 240.456 293.7393 221.7613 293.3761"/><polygon class="cls-14" points="237.2015 291.0958 238.3615 288.8347 227.0665 282.8635 237.2015 291.0958"/><polygon class="cls-14" points="101.6662 322.0214 98.5719 260.9743 98.2836 314.4287 101.6662 322.0214"/><polygon class="cls-9" points="176.2876 288.0425 192.3923 292.8055 182.291 292.6093 176.2876 288.0425"/><polygon class="cls-9" points="132.8399 308.6793 133.2139 304.5954 134.6034 311.3293 132.8399 308.6793"/><polygon class="cls-9" points="241.3677 290.424 249.2489 291.0958 245.5014 292.6093 241.3677 290.424"/><polygon class="cls-14" points="117.6771 285.8951 106.3086 332.3793 117.1459 278.5893 121.1729 282.4084 120.5129 288.1915 117.6771 285.8951"/><g class="cls-60"><polygon class="cls-41" points="147.9929 245.4093 176.9845 269.0031 185.0899 264.7532 154.0716 243.6612 147.9929 245.4093"/><polygon class="cls-41" points="151.3754 252.9898 159.3619 260.9693 156.0622 260.9693 148.7345 254.4293 151.3754 252.9898"/><polygon class="cls-41" points="196.2455 292.8804 165.0771 270.7625 169.2139 267.6093 204.4925 292.6093 186.8981 277.9105 188.7081 277.9105 232.1219 293.3761 196.2455 292.8804"/><polygon class="cls-41" points="240.456 293.7393 227.862 283.284 209.635 281.7653 232.1219 293.3761 240.456 293.7393"/><polygon class="cls-41" points="131.6981 268.8893 128.8249 270.7625 155.1381 300.1793 161.5086 300.1793 131.6981 268.8893"/><polygon class="cls-41" points="128.8249 188.1647 133.7216 179.1874 204.4925 204.6527 204.4925 208.8448 163.1507 197.0944 215.6277 227.2297 128.8249 188.1647"/><polygon class="cls-41" points="55.7122 372.5216 60.609 363.5443 131.3799 389.0096 131.3799 393.2017 90.0382 381.4513 142.515 411.5866 55.7122 372.5216"/><polygon class="cls-41" points="300.5823 198.4846 275.6249 195.7297 238.3615 234.2071 243.1446 240.3993 300.5823 198.4846"/><polygon class="cls-41" points="254.997 210.4916 257.3823 203.2085 254.997 202.6263 250.8139 210.4916 254.997 210.4916"/><polygon class="cls-41" points="26.0464 172.0135 28.4316 164.7304 26.0464 164.1482 21.8632 172.0135 26.0464 172.0135"/><polygon class="cls-41" points="205.2139 215.6593 215.6277 219.8293 213.9319 222.4893 204.4925 218.0645 205.2139 215.6593"/><polygon class="cls-41" points="147.5447 330.1557 154.0716 329.2777 187.8271 382.0411 175.3035 380.3727 147.5447 330.1557"/><polygon class="cls-41" points="154.0482 323.8599 169.0244 347.7898 183.5916 346.2109 158.0529 320.1781 154.0482 323.8599"/><polygon class="cls-41" points="11.4264 271.6766 26.4026 295.6066 40.9698 294.0276 15.4311 267.9948 11.4264 271.6766"/><polygon class="cls-41" points="168.8199 348.7143 174.0139 348.7143 175.3035 352.4635 169.656 352.4635 168.8199 348.7143"/><polygon class="cls-41" points="151.4723 378.1372 149.4139 375.294 167.6859 370.0117 173.2221 378.1372 151.4723 378.1372"/><polygon class="cls-41" points="157.656 379.6036 174.2213 379.6036 175.3035 381.192 157.656 379.6036"/></g><g class="cls-60"><polygon class="cls-26" points="127.7239 247.1918 118.2212 242.3125 118.4964 239.4358 129.2067 245.015 127.7239 247.1918"/><polygon class="cls-26" points="9.6868 277.431 .184 272.5518 .4592 269.675 11.1695 275.2542 9.6868 277.431"/><polygon class="cls-26" points="4.194 285.6787 -5.3088 280.7995 -5.0336 277.9227 5.6767 283.5019 4.194 285.6787"/><polygon class="cls-26" points="200.4715 275.8288 187.5802 268.8866 181.1529 257.3998 203.6317 272.7109 200.4715 275.8288"/><path class="cls-26" d="M121.6022,337.3093l6.1093-22.3421s.3741,.8193,.678,.8193-5.5716,22.3794-5.5716,22.3794l-1.2157-.8566Z"/><path class="cls-26" d="M208.0306,338.5671l3.5662-13.0416s.2183,.4782,.3957,.4782-3.2523,13.0634-3.2523,13.0634l-.7096-.5Z"/><polygon class="cls-26" points="266.9926 160.3445 268.5121 156.3826 271.2473 156.3826 269.1199 161.2011 266.9926 160.3445"/><polygon class="cls-26" points="25.1474 188.3543 26.667 184.3924 29.4021 184.3924 27.2748 189.2109 25.1474 188.3543"/><polygon class="cls-26" points="123.5213 220.5509 121.1022 217.0646 122.642 214.804 125.4269 219.2749 123.5213 220.5509"/><polygon class="cls-26" points="245.7096 202.5264 239.2424 218.0124 256.8219 195.8369 245.7096 202.5264"/><polygon class="cls-26" points="196.216 310.578 197.5086 310.578 196.8623 323.2651 194.4267 323.2651 196.216 310.578"/><polygon class="cls-26" points="31.9298 227.3057 33.2225 227.3057 32.5762 239.9927 30.1405 239.9927 31.9298 227.3057"/><polygon class="cls-26" points="153.7541 317.213 159.5514 326.5666 163.7554 324.9226 156.0564 314.6431 153.7541 317.213"/><polygon class="cls-26" points="130.4613 243.173 130.6029 241.0631 133.4349 242.9921 132.2135 243.2634 130.4613 243.173"/><polygon class="cls-26" points="115.9217 164.7999 117.5425 170.6535 120.7842 170.6535 118.3529 164.7999 115.9217 164.7999"/><polygon class="cls-26" points="114.9953 196.2858 116.0759 199.4268 115.5356 199.8016 114.9953 197.2852 114.9953 196.2858"/><polygon class="cls-26" points="183.6106 312.6086 185.6367 311.6449 185.6367 313.3582 183.9767 313.3582 183.6106 312.6086"/><polygon class="cls-26" points="165.5789 324.9226 167.6724 324.066 167.6724 325.8863 166.6256 326.5666 165.5789 324.9226"/><polygon class="cls-26" points="127.7799 344.3843 129.9522 339.3516 132.0795 339.3516 129.1419 344.3843 127.7799 344.3843"/><polygon class="cls-26" points="31.2205 222.3456 33.3928 217.3129 35.5202 217.3129 32.5824 222.3456 31.2205 222.3456"/><polygon class="cls-26" points="215.8484 305.1647 217.1164 302.227 218.3582 302.227 216.6433 305.1647 215.8484 305.1647"/><polygon class="cls-26" points="253.2834 202.8293 260.6661 193.316 265.1219 195.8541 256.1265 203.903 253.2834 202.8293"/><polygon class="cls-26" points="33.4422 177.5424 40.8248 168.029 45.2806 170.5672 36.2852 178.6161 33.4422 177.5424"/><polygon class="cls-26" points="253.7096 216.611 254.5419 214.4072 257.6139 214.0075 254.373 216.8615 253.7096 216.611"/><polygon class="cls-26" points="24.246 178.5657 25.0783 176.3619 28.1502 175.9623 24.9094 178.8162 24.246 178.5657"/><polygon class="cls-26" points="215.5957 304.2893 217.3802 297.9778 215.6654 297.4152 214.7784 304.2893 215.5957 304.2893"/><polygon class="cls-26" points="182.04 314.8296 182.04 310.578 181.2121 310.578 181.6261 314.9081 182.04 314.8296"/><polygon class="cls-26" points="183.0452 313.1064 183.5774 309.828 184.4263 309.828 183.5783 313.1064 183.0452 313.1064"/><polygon class="cls-26" points="138.3829 231.5076 140.1523 240.3594 144.7635 242.2709 140.2739 231.5076 138.3829 231.5076"/><polygon class="cls-26" points="143.5155 233.6492 144.7635 237.9323 146.487 237.9323 144.7635 234.5058 143.5155 233.6492"/></g><polygon class="cls-12" points="176.9845 383.6593 219.4034 393.4002 217.9823 389.3144 176.9845 383.6593"/><polygon class="cls-12" points="171.5022 373.496 176.9845 372.9592 169.167 369.2715 171.5022 373.496"/><polygon class="cls-12" points="241.3677 290.424 215.6277 272.5056 232.714 281.7653 236.7689 282.8635 239.5906 281.7653 252.3235 289.854 249.2489 291.0958 241.3677 290.424"/><polygon class="cls-12" points="227.862 283.284 240.456 293.7393 193.1823 292.0712 221.7613 287.2227 217.3802 284.1619 227.0665 284.5343 227.862 283.284"/><polygon class="cls-12" points="109.5297 339.7214 115.7823 348.7143 112.4665 340.7161 109.5297 339.7214"/><polygon class="cls-12" points="107.5683 269.5062 117.6771 275.1287 126.1402 287.1193 107.5683 269.5062"/><polygon class="cls-12" points="99.9749 262.3049 109.1507 263.1125 109.5139 263.6255 100.6711 262.9652 99.9749 262.3049"/><polygon class="cls-12" points="163.7554 247.1918 168.8199 251.5843 176.2876 252.9898 166.6256 247.1918 163.7554 247.1918"/><polygon class="cls-12" points="179.1929 191.3161 189.2776 194.1287 181.1529 194.1287 179.1929 191.3161"/><polygon class="cls-12" points="187.8271 235.4286 218.2244 254.4293 179.6281 239.4358 187.8271 235.4286"/><polygon class="cls-12" points="214.7784 247.1918 230.2057 254.4293 230.65 251.4707 214.7784 247.1918"/><polygon class="cls-12" points="253.7096 182.1673 236.7689 172.3987 219.3789 168.4235 239.2424 177.4149 253.7096 182.1673"/><polygon class="cls-12" points="242.0981 137.6004 259.2027 141.0469 255.6617 139.3236 273.304 142.7723 263.3823 134.1981 242.0981 137.6004"/><polygon class="cls-12" points="279.3613 137.5993 281.8975 142.3496 283.891 137.6004 279.3613 137.5993"/><polygon class="cls-12" points="-1.4281 135.0604 200.7257 146.6596 -1.4281 138.7372 -1.4281 135.0604"/><polygon class="cls-12" points="213.9319 281.7653 204.4925 275.6189 196.2455 273.553 213.9319 281.7653"/><polygon class="cls-12" points="91.0518 388.9997 81.6125 382.8533 73.3655 380.7875 91.0518 388.9997"/><polygon class="cls-12" points="148.7345 293.0205 156.0622 297.0078 156.9059 302.227 148.7345 293.0205"/><polygon class="cls-41" points="-1.4281 363.1642 111.8619 400.1093 78.2666 400.1093 -1.4281 363.1642"/><polygon class="cls-41" points="19.4035 378.1372 48.2035 389.3144 27.4877 386.1225 19.4035 378.1372"/><polygon class="cls-41" points="39.3614 391.874 49.214 391.874 52.1193 394.7793 46.6877 394.7793 39.3614 391.874"/><polygon class="cls-41" points="89.1298 336.674 99.235 347.7898 92.5403 344.3843 89.1298 336.674"/><polygon class="cls-41" points="63.1087 280.5898 73.6561 294.8635 73.3403 288.9898 63.1087 280.5898"/><polygon class="cls-41" points="97.7193 244.3214 83.2561 234.2071 95.4456 236.8893 97.7193 244.3214"/><polygon class="cls-41" points="-1.4281 245.6893 83.2561 324.066 89.1298 336.674 29.0035 302.227 45.7403 319.8693 -1.4281 300.1793 -1.4281 245.6893"/><polygon class="cls-41" points="47.5719 320.7582 54.393 320.7582 83.2561 338.8214 54.2666 325.3056 47.5719 320.7582"/><g><polygon class="cls-36" points="139.0876 391.0497 106.3086 379.6036 112.656 387.6742 142.3745 396.1587 114.3072 389.977 115.6674 391.874 143.6945 398.2103 139.0876 391.0497"/><polygon class="cls-36" points="114.3529 361.8319 121.0603 363.0293 127.8342 373.5582 122.1069 372.5216 114.3529 361.8319"/><polygon class="cls-36" points="111.2021 366.2793 98.5719 366.2793 98.5719 363.0293 111.2021 366.2793"/><polygon class="cls-36" points="140.8319 359.3716 162.1129 361.8319 141.1467 360.6017 140.8319 359.3716"/><polygon class="cls-36" points="145.4219 377.3043 220.1719 395.6093 221.7613 400.1793 147.2372 384.396 204.4925 400.1793 169.5929 400.1793 149.1512 391.874 145.4219 377.3043"/><polygon class="cls-36" points="142.435 322.0214 147.9929 334.0214 142.435 328.0214 142.435 322.0214"/><polygon class="cls-36" points="197.5086 350.3161 205.2139 360.6017 202.9402 351.7056 197.5086 347.7898 197.5086 350.3161"/><polygon class="cls-36" points="130.4613 261.0116 148.7345 267.6093 153.7541 275.1287 135.9193 265.9937 130.4613 261.0116"/><polygon class="cls-36" points="145.2139 274.4779 157.2286 280.4927 160.4981 284.1619 145.2139 274.4779"/><polygon class="cls-36" points="139.5297 315.5893 170.6362 328.0214 162.1129 318.4223 142.435 310.578 158.5667 314.4287 156.8556 312.5015 138.3829 305.4843 139.5297 315.5893"/><polygon class="cls-36" points="148.7345 323.2651 165.0771 329.2777 154.5095 328.0214 148.7345 323.2651"/><polygon class="cls-36" points="179.1929 383.6593 219.4034 393.4002 217.9823 389.3144 179.1929 383.6593"/><polygon class="cls-36" points=".184 300.8523 39.1922 283.284 57.4471 300.1793 29.0035 302.227 61.8878 304.2893 63.179 305.4843 32.6032 304.2893 28.0905 312.5015 .184 300.8523"/><polygon class="cls-36" points="34.1196 278.5893 15.7403 283.284 36.6559 280.9367 34.1196 278.5893"/><polygon class="cls-36" points="82.7585 254.4293 103.0057 254.4293 100.4447 250.8106 77.001 250.0908 82.7585 254.4293"/><polygon class="cls-36" points="54.1802 363.1642 77.001 369.7404 97.7193 361.6994 62.8798 361.424 101.2331 360.3356 103.07 359.6227 68.2846 360.3428 54.1802 363.1642"/><polygon class="cls-36" points="89.1298 326.2602 95.9445 324.8473 86.1972 313.2655 79.8304 313.2655 89.1298 326.2602"/><polygon class="cls-36" points="77.8227 310.4599 84.5677 311.3293 81.7341 307.9623 75.3682 307.0301 77.8227 310.4599"/></g><polygon class="cls-12" points="54.2666 325.3056 63.179 326.5666 82.2087 338.1659 54.2666 325.3056"/><polygon class="cls-12" points="59.4457 364.6815 52.1193 366.2793 81.4245 374.9515 59.4457 364.6815"/><polygon class="cls-12" points="27.2748 381.192 35.3027 387.3267 48.2035 389.3144 27.2748 381.192"/><polygon class="cls-14" points="-1.4281 300.1793 -1.4281 363.1642 18.7373 369.7404 14.6035 309.1797 36.6559 322.0214 41.6715 365.6664 43.8508 365.2304 39.3614 322.0214 41.6715 322.0214 46.5948 364.6815 48.2035 363.1642 52.1193 325.3056 63.179 331.4518 68.2846 360.3428 83.2561 357.348 82.8772 338.8214 47.5719 320.7582 45.7403 319.8693 -1.4281 300.1793"/><polygon class="cls-14" points="19.4035 378.1372 19.4035 400.1093 18.4561 400.1093 17.5719 373.053 15.4245 371.6004 17.414 400.1793 9.614 400.1093 5.5087 367.5582 8.4772 400.1093 7.7824 400.1093 3.6555 365.5209 33.3704 379.2962 32.2245 383.113 19.4035 378.1372"/><polygon class="cls-14" points="84.5677 391.2084 84.5677 388.7418 51.655 374.9515 121.6224 400.1793 111.8619 400.1093 111.8619 397.5582 109.1507 396.5477 109.1507 399.2252 84.5677 391.2084"/><polygon class="cls-14" points="43.6617 262.7243 90.3902 328.0214 63.8666 294.8635 57.4471 300.1793 46.7048 290.2371 51.5508 278.5893 50.6982 277.053 45.0855 288.7384 41.6715 285.5787 46.0561 268.0701 43.6617 262.7243"/><polygon class="cls-14" points="66.4806 242.1633 66.0308 282.9888 63.1087 280.5898 66.4806 285.1529 66.0308 289.3035 59.6982 280.9367 55.2169 207.074 45.7403 189.708 92.607 229.5192 89.1298 235.4286 83.2561 234.2071 88.5831 237.9323 86.9198 241.0631 77.2629 235.7908 66.4806 242.1633"/><polygon class="cls-12" points="52.6066 312.6902 58.0889 312.1535 50.2714 308.4658 52.6066 312.6902"/></g><polygon class="cls-12" points="193.1823 273.553 200.4715 275.8288 199.3402 275.8288 193.1823 274.6909 193.1823 273.553"/><polygon class="cls-12" points="197.6823 265.8267 198.5994 266.1582 198.5994 265.5425 197.1613 265.5425 197.6823 265.8267"/><polygon class="cls-12" points="11.6906 275.5384 12.6077 275.87 12.6077 275.2542 11.1695 275.2542 11.6906 275.5384"/><polygon class="cls-12" points="176.6496 354.8828 177.5667 355.2143 177.5667 354.5986 176.1286 354.5986 176.6496 354.8828"/><polygon class="cls-12" points="158.7577 245.6951 159.7402 245.2688 157.5613 244.3214 156.5665 244.929 158.7577 245.6951"/><polygon class="cls-12" points="66.0183 385.9401 67.0008 385.5138 64.8219 384.5664 63.8272 385.174 66.0183 385.9401"/><polygon class="cls-12" points="114.8981 227.2297 112.7507 226.274 111.8619 227.2297 113.7407 228.8288 114.8981 227.2297"/><polygon class="cls-12" points="1.7022 288.1899 -.4452 287.2343 -1.3342 288.1899 .5448 289.7891 1.7022 288.1899"/><polygon class="cls-12" points="103.7171 257.3998 106.3086 262.3049 107.5683 260.8764 103.7171 257.3998"/><polygon class="cls-12" points="105.6427 341.8693 106.3086 344.2179 109.5297 344.3843 105.6427 341.8693"/><polygon class="cls-12" points="194.4267 385.053 198.194 384.7342 203.3614 385.053 194.4267 385.053"/><polygon class="cls-12" points="201.4219 380.3978 201.4219 379.3575 203.3614 376.2101 203.3614 381.192 201.4219 380.3978"/><polygon class="cls-12" points="128.4009 385.053 132.8399 386.1225 132.0795 387.3267 128.4009 387.318 128.4009 385.053"/><polygon class="cls-12" points="146.2402 376.2898 146.2402 376.953 154.1786 379.4487 146.2402 376.2898"/><polygon class="cls-12" points="151.2771 376.6688 155.3823 377.3043 153.8665 377.8692 151.0244 377.2318 151.2771 376.6688"/><polygon class="cls-8" points="159.876 352.4635 195.9677 356.5501 197.5086 358.2855 178.6923 354.9065 159.876 352.4635"/><polygon class="cls-51" points="161.1021 355.0451 169.6099 353.5656 170.102 353.7912 161.333 355.2143 161.1021 355.0451"/><polygon class="cls-1" points="68.2377 381.192 114.3529 369.2715 115.7823 370.6291 92.4298 375.2318 82.2087 377.9477 68.9627 381.192 68.2377 381.192"/><polygon class="cls-27" points="44.0598 384.2516 66.7719 387.0109 70.3719 389.7898 95.8877 394.7793 97.257 395.3465 70.0403 389.7991 67.4213 387.6432 65.4894 386.9358 44.6792 384.5388 44.4811 385.7872 44.0598 384.2516"/><polygon class="cls-19" points="51.208 387.5654 53.729 385.5812 54.0122 385.6138 51.2832 387.6003 51.208 387.5654"/><polygon class="cls-48" points="90.3902 355.9209 109.1507 364.3311 108.6772 363.8814 90.7055 355.8579 90.3902 355.9209"/><polygon class="cls-49" points="142.9623 367.6951 160.4981 379.2902 186.6469 387.3267 207.7555 400.1793 211.9991 400.1793 186.6469 386.5688 172.1744 382.6609 155.3823 375.7451 142.8731 367.3464 142.9623 367.6951"/><polygon class="cls-15" points="141.5036 361.9961 146.6902 370.0117 146.1385 369.5388 145.6003 368.4432 141.5549 362.1959 141.5036 361.9961"/><polygon class="cls-32" points="92.607 229.5192 136.6244 236.8893 144.7635 234.5058 184.2352 249.4898 188.7793 252.0968 164.6665 242.3556 139.7271 236.3398 136.3876 237.0977 93.1186 229.9646 91.7509 230.7582 92.607 229.5192"/><polygon class="cls-35" points="102.2709 237.9323 108.41 232.4855 109.3324 232.6375 104.3381 236.2337 102.412 238.0552 102.2709 237.9323"/></g></g></g></g></g><g id="right_cliff"><g id="right_cliff-2"><g id="Layer_31"><g id="Layer_11"><g id="Main_rock_left"><g><polygon class="cls-2" points="607.2703 400 607.2703 392.3263 701.0457 268.7105 708.1519 265.5053 771.67 236.71 825.6502 400 607.2703 400"/><polygon class="cls-42" points="701.0457 268.7105 707.8992 269.7462 650.0466 357.52 707.8992 277.52 722.9263 297.075 681.6076 385.565 607.2703 392.3263 701.0457 268.7105"/><polygon class="cls-42" points="701.0457 351.1316 727.1608 300 736.4466 304.3 701.0457 351.1316"/><polygon class="cls-42" points="687.2466 377.6303 701.0457 351.1316 696.1519 367.45 687.2466 377.6303"/><polygon class="cls-42" points="672.2733 400 703.3978 375.5658 679.4782 400 672.2733 400"/><polygon class="cls-42" points="683.2316 400 701.0457 381.155 729.9684 372.7799 706.6 400 683.2316 400"/><polygon class="cls-42" points="719.885 328.71 745.6316 293.55 739.8719 311.15 719.885 328.71"/><polygon class="cls-14" points="681.6076 385.565 681.4632 392.3263 688.5138 387.2505 687.2466 377.6303 700.0536 353.0366 699.1105 348.08 681.6076 385.565"/><polygon class="cls-14" points="702.1497 349.6711 704.3055 380.2111 708.1952 379.0847 708.1952 344.3263 711.1474 341.6887 711.1474 377.2655 729.9684 372.7799 718.8404 385.7421 718.7461 400 755.9895 400 750.4777 315.41 752.3634 297.075 764.7008 400 825.6502 398.3806 784.2802 269.7462 745.6316 293.55 739.8719 311.15 719.885 328.71 702.1497 349.6711"/><polygon class="cls-42" points="711.1474 366.0154 727.1163 356.4566 722.9263 362.8741 711.1474 366.0154"/><polygon class="cls-42" points="704.8632 375.1147 719.885 368.8249 715 375.1147 702.1497 378.3684 704.8632 375.1147"/><polygon class="cls-42" points="664.7966 389.0421 674.9669 387.6857 667.25 391.2684 664.7966 389.0421"/><polygon class="cls-42" points="662.6343 389.1684 644.6421 389.4771 655.5053 390.4316 662.6343 389.1684"/><polygon class="cls-12" points="644.6421 381.0127 657.88 370.2032 651.2261 379.6947 644.6421 381.0127"/><polygon class="cls-12" points="701.0457 268.7105 662.6343 322.545 707.8992 269.7462 701.0457 268.7105"/><polygon class="cls-12" points="675.8607 318.355 672.4947 321.0842 668.2009 329.9764 675.8607 318.355"/><polygon class="cls-12" points="617.8 386.39 625.577 380.2111 631.2526 378.4316 619.3844 387.7829 617.8 386.39"/><polygon class="cls-12" points="674.9669 386.169 690.7584 362.31 692.9676 361.236 681.6076 385.565 674.9669 386.169"/></g><g><polygon class="cls-3" points="593.0421 132.87 1000 138.9037 1000 400 776.7557 400 776.3175 393.571 790.6508 353.327 739.8719 227.6218 727.2691 220.225 723.7323 216.8131 700.0824 185.72 695.1561 184.1207 643.6192 147.3367 617.4719 154.6935 593.0421 132.87"/><polygon class="cls-54" points="739.8719 227.6218 887.61 263.99 832.7304 256.83 859.285 268.71 825.6502 270.96 758.74 257.4211 739.8719 227.6218"/><polygon class="cls-54" points="752.3634 258.545 813.574 270.96 763.5347 280.9475 752.3634 258.545"/><polygon class="cls-54" points="792.8062 277.52 880.0225 268.71 893.2947 268.71 825.6502 293.185 792.8062 277.52"/><polygon class="cls-54" points="784.5737 330.73 823.1892 299.25 801.0842 323.7368 784.5737 330.73"/><polygon class="cls-54" points="784.5737 326.5158 792.8062 319.6947 782.9687 323.1053 784.5737 326.5158"/><polygon class="cls-54" points="900.5766 142.5197 727.1606 164.71 851.6021 156.3274 818.57 161.369 706.9213 180.24 839.231 181.845 986.9529 152.1033 900.5766 142.5197"/><polygon class="cls-54" points="740.2394 140.8676 786.5579 142.5197 763.5347 146.7684 740.2394 140.8676"/><polygon class="cls-54" points="790.73 232.5368 1000 243.3346 904.045 252.0253 814.0171 238.22 830.6391 238.22 790.73 232.5368"/><polygon class="cls-54" points="747.1404 229.411 790.73 232.5368 776.548 232.5368 747.1404 229.411"/><polygon class="cls-25" points="859.285 137.42 900.5766 119.4842 921.5774 137.741 859.285 137.42"/><polygon class="cls-5" points="818.57 137.42 813.7409 134.9579 799.7516 137.42 818.57 137.42"/><polygon class="cls-14" points="839.231 181.845 847.8645 235.4848 859.285 236.0741 862.2004 186.6223 867.65 182.67 866.1092 236.0741 878.129 237.0464 874.9158 177.0211 881.1002 173.4152 900.4726 227.6218 900 197.2947 900 169.61 839.231 181.845"/><polygon class="cls-14" points="706.9213 180.24 717.84 208.6725 700.0824 185.72 694.6395 164.71 727.1606 164.71 754.0497 162.8987 754.0497 172.2743 706.9213 180.24"/><polygon class="cls-14" points="643.6192 147.3367 677.6878 147.3367 689.7189 180.24 643.6192 147.3367"/><polygon class="cls-14" points="763.5347 170.6711 765.7452 162.1108 780.374 161.1254 777.1485 168.3701 763.5347 170.6711"/><polygon class="cls-14" points="763.5347 160.0555 763.5347 146.7684 768.9352 145.7718 767.6433 159.5298 768.9352 159.3645 771.9544 145.2146 786.5579 142.5197 783.5253 157.4975 763.5347 160.0555"/><polygon class="cls-14" points="732.7583 180.5534 752.3634 228.1433 749.1684 229.411 727.1606 180.5534 732.7583 180.5534"/><polygon class="cls-14" points="859.285 268.71 833.853 257.3322 876.707 262.5675 875.7343 269.1432 827.2011 274.0456 825.6502 270.96 859.285 268.71"/><polygon class="cls-14" points="813.574 270.96 813.7409 275.4053 815.8632 275.4053 815.0933 268.8238 788.6807 263.4794 788.6807 265.911 813.574 270.96"/><polygon class="cls-9" points="824.2628 181.6634 856.9868 178.3918 839.231 181.845 824.2628 181.6634"/><polygon class="cls-14" points="829.7704 291.6942 832.7304 338.5316 835.1895 335.1242 835.1895 291.6942 840.2926 289.1562 840.6248 313.8439 854.935 304.3 853.2105 283.2132 829.7704 291.6942"/><polygon class="cls-54" points="859.285 137.42 889.1263 134.9579 900.1158 123.5895 900.5766 119.4842 859.285 137.42"/><polygon class="cls-54" points="895.6613 211.25 1000 188.76 1000 214.416 940.2613 215.48 965.6105 212.6653 895.6613 211.25"/><polygon class="cls-54" points="935.9263 215.48 890.4312 218.7932 907.1895 222.0284 935.9263 215.48"/><polygon class="cls-54" points="954.0526 162.8987 1000 149.2947 1000 158.6764 954.0526 162.8987"/><polygon class="cls-54" points="745.9368 185.6614 809.1608 182.67 767.1053 190.9849 745.9368 185.6614"/><polygon class="cls-54" points="719.885 140.8676 708.75 138.4317 711.5655 142.5197 719.885 140.8676"/><polygon class="cls-54" points="954.0526 171.9063 969.5046 166.8341 963.2153 172.1683 954.0526 171.9063"/></g><g><polygon class="cls-46" points="727.1606 386.2632 835.1895 298.8526 900.8737 268.7105 947.8027 251.405 1000 243.3346 1000 400 869.0421 400 747.4 400 747.3506 398.7071 740.6645 390.9368 727.1606 386.2632"/><polygon class="cls-41" points="727.1606 386.2632 805.3392 367.8574 859.285 315.41 818.57 348.7217 814.0171 348.08 864.6069 299.25 835.1895 298.8526 727.1606 386.2632"/><polygon class="cls-41" points="882.3053 290.245 859.285 315.41 947.8027 251.405 916.7505 254.25 882.3053 290.245"/><polygon class="cls-41" points="747.3506 398.7071 795.8837 382.5368 818.57 383.48 776.7557 400 747.3506 398.7071"/><polygon class="cls-41" points="792.8062 400 880.0225 354.105 827.0609 388.6604 1000.5 311.15 1000.1566 372.1789 912.63 400 792.8062 400"/><polygon class="cls-41" points="806.0105 370.4737 840.3679 338.5316 828.2421 356.5095 806.0105 370.4737"/><polygon class="cls-41" points="818.57 379.6947 826.2211 375.5658 832.7304 375.5658 818.57 379.6947"/><polygon class="cls-41" points="880.0225 354.105 1000 299.25 1000.5 249.2909 880.0225 354.105"/><polygon class="cls-14" points="851.5836 321.711 847.8645 315.41 864.6069 299.25 866.1092 307.95 851.5836 321.711"/><polygon class="cls-14" points="862.2004 313.302 868.9158 359.12 873.5329 357.52 869.6737 314.2494 880.0225 354.105 897.9536 333.1244 895.1879 289.4495 900 330.73 900 285.97 862.2004 313.302"/><polygon class="cls-14" points="806.0105 370.4737 813.574 383.2723 807.7789 382.5368 798.4643 369.4759 803.8814 382.8693 798.4643 382.7168 792.8062 370.808 805.3392 367.8574 823.1892 350.5031 824.766 353.0366 806.0105 370.4737"/><polygon class="cls-14" points="818.57 383.48 819.4795 385.964 820.7834 385.2779 818.57 379.6947 821.6737 377.6303 818.1093 362.8741 812.3264 366.5065 818.57 383.48"/><polygon class="cls-14" points="824.3134 376.5953 819.4795 362.0135 820.9564 361.0858 824.3134 376.5953"/><polygon class="cls-41" points="835.1895 298.8526 869.0421 297.075 900.8737 268.7105 835.1895 298.8526"/><polygon class="cls-14" points="876.707 290.245 876.707 296.3649 890.9839 281.1759 890.9839 277.5231 876.707 290.245"/><polygon class="cls-14" points="823.1892 339.227 824.3134 344.0226 829.7704 339.5579 828.2365 334.3553 823.1892 339.227"/><polygon class="cls-14" points="866.5824 362.8741 866.5824 368.3257 856.9868 373.2628 856.9868 369.1349 866.5824 362.8741"/><polygon class="cls-9" points="798.4643 369.4759 808.7861 364.5061 805.3392 367.8574 798.4643 369.4759"/><polygon class="cls-24" points="814.0171 348.08 754.0497 364.5061 814.8544 347.2718 814.0171 348.08"/><polygon class="cls-11" points="884.4165 362.8741 974.3531 380.3808 976.5115 379.6947 884.4165 362.8741"/><g class="cls-60"><polygon class="cls-41" points="786.5579 339.8966 821.6737 315.41 838.7263 316.2013 806.0105 333.0823 786.5579 339.8966"/><polygon class="cls-41" points="803.8814 338.5316 815.8632 330.73 818.57 332.5789 811.2257 339.0577 803.8814 338.5316"/><polygon class="cls-41" points="774.8913 358.5989 786.5579 350.5031 826.4798 336.0508 814.8544 347.2718 774.8913 358.5989"/><polygon class="cls-41" points="764.7008 364.3809 792.8062 356.4566 792.8062 359.12 764.7008 364.3809"/><polygon class="cls-41" points="824.0789 395.2467 872.8316 372.7799 887.61 374.4191 862.2004 391.2554 866.5824 391.2684 896.7053 372.7799 900 371.4842 900.76 395.2467 824.0789 395.2467"/><polygon class="cls-41" points="821.6737 395.0961 837.0211 387.7829 831.5012 387.7829 811.1342 395.688 821.6737 395.0961"/><polygon class="cls-41" points="745.9368 237.2005 808.9789 253.7579 812.6421 258.545 749.419 242.7 752.3634 247.3502 799.1263 258.545 802.2719 266.2295 758.74 257.4211 745.9368 237.2005"/><polygon class="cls-41" points="825.6502 270.96 823.9474 265.6889 827.8632 265.6889 830.4547 270.6386 825.6502 270.96"/><polygon class="cls-41" points="648.5056 375.9705 702.1497 317.3758 713.9957 316.2013 686.8583 374.3199 648.5056 375.9705"/><polygon class="cls-41" points="633.22 381.155 651.2261 355.889 642.223 355.93 622.065 381.7608 633.22 381.155"/><polygon class="cls-41" points="658.9158 360.4187 658.9158 355.889 673.8842 341.6887 658.9158 360.4187"/><polygon class="cls-41" points="745.6316 180.7096 832.7304 169.61 859.285 167.9895 802.2719 180.1184 745.6316 180.7096"/><polygon class="cls-41" points="809.1608 181.845 827.201 178.3918 842.3527 178.3918 830.4547 181.845 809.1608 181.845"/><path class="cls-41" d="M752.3634,187.5185c.0734-.0777,14.9789,43.3412,14.9789,43.3412l32.4093,.1142-19.3776-49.1289-28.0106,5.6735Z"/><polygon class="cls-41" points="786.5579 193.5053 802.2719 229.411 809.1608 228.5046 800.945 190.9849 786.5579 193.5053"/><polygon class="cls-41" points="895.888 170.4513 911.6021 206.3571 918.4909 205.4506 910.2751 167.9309 895.888 170.4513"/><polygon class="cls-41" points="741.705 180.24 815.8632 169.61 760.2842 170.6711 706.9213 180.24 741.705 180.24"/><polygon class="cls-41" points="869.8518 174.3495 885.8421 170.6711 900 169.61 875.2578 174.5915 869.8518 174.3495"/><polygon class="cls-41" points="875.3859 185.8023 879.9308 222.5579 890.9839 224.0737 879.9308 185.8023 875.3859 185.8023"/><polygon class="cls-41" points="727.1608 300 717.7861 318.355 722.9263 319.6947 736.4466 304.3 727.1608 300"/><polygon class="cls-41" points="784.5737 297.45 800.6855 303.49 808.7861 290.245 790.7316 278.08 784.5737 297.45"/><polygon class="cls-41" points="781 294.6 784.5737 280.9475 781 283.21 781 294.6"/><polygon class="cls-41" points="684.4748 165.8983 675.5895 142.5197 687.1474 140.8676 687.1474 165.8983 684.4748 165.8983"/><polygon class="cls-41" points="809.1608 206.8947 807.2737 203.3282 811.0632 203.3282 812.6421 208.6725 809.1608 206.8947"/><polygon class="cls-41" points="972.2168 177.3833 970.3297 173.8168 974.1192 173.8168 975.6982 179.1611 972.2168 177.3833"/><polygon class="cls-41" points="771.9544 325.7697 768.9352 316.4152 776.0575 314.2494 776.0575 323.9982 771.9544 325.7697"/></g><g class="cls-60"><polygon class="cls-26" points="669.2561 379.558 659.7533 374.6787 660.0285 371.802 670.7388 377.3811 669.2561 379.558"/><polygon class="cls-26" points="826.6492 266.5467 813.7579 259.6046 807.3306 248.1177 829.8094 263.4288 826.6492 266.5467"/><path class="cls-26" d="M729.359,349.2743l6.1093-22.3421s.374,.8193,.6779,.8193-5.5716,22.3794-5.5716,22.3794l-1.2156-.8566Z"/><path class="cls-26" d="M793.7,312.7822l2.5541-9.3403s.1563,.3425,.2834,.3425c.127,0-2.3293,9.356-2.3293,9.356l-.5082-.3582Z"/><path class="cls-26" d="M952.6315,232.5544l2.5541-9.3403s.1563,.3425,.2834,.3425c.127,0-2.3293,9.3559-2.3293,9.3559l-.5082-.3581Z"/><polygon class="cls-26" points="860.2051 169.1067 861.7247 165.1448 864.4598 165.1448 862.3325 169.9634 860.2051 169.1067"/><polygon class="cls-26" points="665.0534 352.917 662.6343 349.4308 664.1741 347.1702 666.959 351.641 665.0534 352.917"/><polygon class="cls-26" points="828.1321 210.0177 821.6649 225.5038 839.2445 203.3282 828.1321 210.0177"/><polygon class="cls-26" points="982.1366 225.0128 975.6694 240.4988 993.249 218.3233 982.1366 225.0128"/><polygon class="cls-26" points="890.7139 299.7714 891.6397 299.7714 891.1768 308.8579 889.4324 308.8579 890.7139 299.7714"/><polygon class="cls-26" points="747.5285 254.0018 748.4543 254.0018 747.9914 263.0882 746.247 263.0882 747.5285 254.0018"/><polygon class="cls-26" points="870.526 371.0272 876.3233 380.3808 880.5273 378.7369 872.8284 368.4573 870.526 371.0272"/><polygon class="cls-26" points="671.9934 375.5392 672.1349 373.4293 674.9669 375.3583 673.7456 375.6296 671.9934 375.5392"/><polygon class="cls-26" points="709.1342 173.5621 710.7551 179.4157 713.9967 179.4157 711.5655 173.5621 709.1342 173.5621"/><polygon class="cls-26" points="818.2302 320.267 819.3108 323.408 818.7705 323.7827 818.2302 321.2664 818.2302 320.267"/><polygon class="cls-26" points="776.2105 294.1909 777.6615 293.5007 777.6615 294.7277 776.4727 294.7277 776.2105 294.1909"/><polygon class="cls-26" points="864.2669 340.7198 866.3605 339.8631 866.3605 341.6835 865.3137 342.3637 864.2669 340.7198"/><polygon class="cls-26" points="826.4679 360.1814 828.6402 355.1488 830.7676 355.1488 827.8298 360.1814 826.4679 360.1814"/><polygon class="cls-26" points="799.2991 288.8596 800.2072 286.7556 801.0966 286.7556 799.8684 288.8596 799.2991 288.8596"/><polygon class="cls-26" points="846.496 211.5916 853.8787 202.0782 858.3344 204.6164 849.3391 212.6653 846.496 211.5916"/><polygon class="cls-26" points="978.245 190.0379 980.1983 178.1555 985.3251 178.2619 981.256 189.626 978.245 190.0379"/><polygon class="cls-26" points="924.5448 352.7548 931.9274 343.2415 936.3832 345.7796 927.3878 353.8285 924.5448 352.7548"/><polygon class="cls-26" points="875.6541 162.8963 883.0367 153.3829 887.4925 155.9211 878.4971 163.9699 875.6541 162.8963"/><polygon class="cls-26" points="961.1755 226.9896 968.5582 217.4763 973.0139 220.0144 964.0186 228.0633 961.1755 226.9896"/><polygon class="cls-26" points="846.9222 225.3732 847.7545 223.1694 850.8264 222.7698 847.5856 225.6237 846.9222 225.3732"/><polygon class="cls-26" points="841.0984 164.0751 841.9307 161.8713 845.0026 161.4717 841.7618 164.3256 841.0984 164.0751"/><polygon class="cls-26" points="799.1181 288.2326 800.3962 283.7123 799.168 283.3094 798.5327 288.2326 799.1181 288.2326"/><polygon class="cls-26" points="929.4537 225.2314 930.7317 220.7111 929.5035 220.3082 928.8683 225.2314 929.4537 225.2314"/><polygon class="cls-26" points="928.522 191.2216 929.8 186.7013 928.5718 186.2984 927.9366 191.2216 928.522 191.2216"/><polygon class="cls-26" points="775.0856 295.7815 775.0856 292.7366 774.4927 292.7366 774.7891 295.8378 775.0856 295.7815"/><polygon class="cls-26" points="931.0282 183.3393 931.0282 180.2944 930.4353 180.2944 930.7317 183.3956 931.0282 183.3393"/><polygon class="cls-26" points="775.8056 294.5474 776.1867 292.1994 776.7946 292.1994 776.1874 294.5474 775.8056 294.5474"/><polygon class="cls-26" points="679.915 363.8738 681.6844 372.7256 686.2956 374.6371 681.806 363.8738 679.915 363.8738"/><polygon class="cls-26" points="696.8633 145.906 698.6327 154.7578 703.244 156.6692 698.7543 145.906 696.8633 145.906"/><polygon class="cls-26" points="685.0476 366.0154 686.2956 370.2985 688.0191 370.2985 686.2956 366.872 685.0476 366.0154"/></g><polygon class="cls-12" points="760.7063 359.12 782.7868 350.5031 766.725 354.25 760.7063 359.12"/><polygon class="cls-12" points="814.8544 347.2718 799.2991 354.8116 811.7465 355.1488 818.57 348.7217 814.8544 347.2718"/><polygon class="cls-12" points="843.0505 298.8526 860.2141 303.49 864.6069 299.25 843.0505 298.8526"/><polygon class="cls-12" points="866.1092 307.95 880.5273 294.5474 885.2315 287.2957 866.1092 307.95"/><polygon class="cls-12" points="739.8719 227.6218 806.0105 244.06 772.9412 237.5166 778.7535 241.9709 777.6615 245.5327 745.9368 237.2005 739.8719 227.6218"/><polygon class="cls-12" points="763.5347 146.7684 786.5579 142.5197 753.1077 144.1272 763.5347 146.7684"/><polygon class="cls-12" points="859.285 137.42 889.1263 134.9579 900.1158 123.5895 900.5766 119.4842 859.285 137.42"/><polygon class="cls-12" points="813.7409 134.9579 813.0526 136.1889 803.7489 136.1889 813.7409 134.9579"/><polygon class="cls-12" points="752.3634 161.1254 799.7516 159.8201 884.9259 154.4591 848.8743 155.6873 922.8483 144.644 900.5766 142.5197 752.3634 161.1254"/><polygon class="cls-12" points="803.6252 357.6651 806.0105 356.4566 808.2659 356.4566 806.8316 357.6651 803.6252 357.6651"/><polygon class="cls-12" points="822.6288 315.4543 823.9474 313.1404 826.4798 313.1404 822.6288 315.4543"/><polygon class="cls-12" points="822.1474 318.355 823.1892 317.4211 823.9474 317.4211 823.0474 319.0316 822.1474 318.355"/><polygon class="cls-12" points="869.8518 244.06 876.707 241.9709 881.1002 243.4819 869.8518 244.06"/><polygon class="cls-12" points="700.0536 308.2911 702.1497 305.6737 702.1497 308.2911 700.0536 308.2911"/><polygon class="cls-12" points="845.0026 387.7829 865.3137 384.4173 866.5824 388.3518 851.695 392.3263 845.0026 387.7829"/><polygon class="cls-12" points="859.285 392.3263 862.2004 391.2554 866.5824 391.2684 859.285 392.3263"/><polygon class="cls-12" points="830.4547 160.2123 836.4526 160.2123 836.4526 162.1823 829.8094 162.1823 830.4547 160.2123"/><polygon class="cls-12" points="835.8842 163.9699 843.0505 162.8987 838.7263 165.1448 835.8842 163.9699"/><polygon class="cls-41" points="922.6 400 941.8 400 961.8842 386.2632 922.6 400"/><polygon class="cls-41" points="949.6316 397.18 956.0737 393.1316 973.5053 393.1316 982.7263 395.688 956.9579 398.3806 949.6316 397.18"/><polygon class="cls-41" points="975.9053 384.4173 984.8105 380.3808 993.5263 380.3808 988.2211 383.2723 975.9053 384.4173"/><polygon class="cls-41" points="970.7895 384.4173 975.4 383.3655 979.2526 380.8316 965.6105 384.8105 970.7895 384.4173"/><polygon class="cls-41" points="903.5439 284.7053 929.8 266.6765 919.1895 279.9053 914.3895 282.3053 903.5439 284.7053"/><polygon class="cls-41" points="904.6695 288.2326 912.4947 287.2957 908.5821 288.8596 901.8842 288.8596 904.6695 288.2326"/><polygon class="cls-41" points="907.1895 325.5658 912.4947 317.4211 922.6 313.1404 922.1579 314.9579 907.1895 326.3895 907.1895 325.5658"/><polygon class="cls-41" points="904.5368 329.8632 911.0421 325.7697 904.5368 331.4421 902.2632 332.2 904.5368 329.8632"/><polygon class="cls-41" points="926.9 290.245 947.8027 268.3244 990.4316 251.405 995.6105 249.2909 945.7789 292.7366 926.9 290.245"/><polygon class="cls-41" points="851.0365 362.4744 864.627 355.2073 876.1241 352.8558 863.5803 358.9322 851.0365 362.4744"/><polygon class="cls-14" points="919.1895 279.9053 919.8688 314.2973 922.6 313.1404 922.1579 314.9579 919.7223 316.818 919.4944 319.7649 924.5001 315.41 921.2421 279.9053 922.6 277.5231 925.779 314.2973 926.9 313.1404 924.9368 274.0456 926.3212 271.0137 929.8 286.944 942.9076 272.5671 940.2613 258.4 947.8027 251.405 922.6 269.7462 922.6 271.0137 929.8 266.6765 919.1895 279.9053"/><polygon class="cls-14" points="945.7789 292.7366 945.8584 296.8285 978.0481 268.8238 979.3365 263.4794 945.7789 292.7366"/><polygon class="cls-14" points="986.3872 257.3322 986.3872 261.5689 989.863 258.545 992.4742 252.0253 986.3872 257.3322"/><polygon class="cls-14" points="923.425 334.2609 920.8419 346.7494 930.6555 342.3637 932.0737 333.0842 933.4961 331.4421 933.4532 341.1134 936.176 339.8966 936.176 330.73 971.5474 313.1404 971.6931 324.0239 978.5773 320.9473 980.5474 308.8579 982.0971 307.4354 981.223 319.7649 989.3579 315.41 988.9227 304.3147 923.425 334.2609"/><polygon class="cls-14" points="1000.1566 372.1789 981.5895 377.6303 981.5895 381.8408 984.8105 380.3808 993.5263 380.3808 988.2211 383.2723 988.0316 400 983.482 383.7129 981.5895 383.8888 985.8842 400.2415 1000 400 1000.1566 372.1789"/><g><polygon class="cls-36" points="747.3506 398.7071 776.7557 400 795.8837 391.2684 777.1376 391.2684 801.6575 390.1618 806.0105 387.6857 780.1384 387.7829 747.3506 398.7071"/><polygon class="cls-36" points="795.8837 398.3806 867.1186 395.9794 800.4468 395.9794 795.8837 398.3806"/><polygon class="cls-36" points="825.6502 382.7168 838.5642 381.155 854.935 370.4737 846.4031 371.7962 825.6502 382.7168"/><polygon class="cls-36" points="824.766 353.0366 831.5012 351.6775 840.3679 338.5316 824.766 353.0366"/><polygon class="cls-36" points="838.7263 342.5579 843.0505 338.5316 846.4031 336.5579 843.0505 341.6887 838.7263 342.5579"/><polygon class="cls-36" points="835.1895 335.1242 847.8645 327.4474 858.0564 316.4152 835.1895 335.1242"/><polygon class="cls-36" points="825.6502 309.5895 830.4644 302.6759 835.1895 302.6759 829.7704 309.5895 825.6502 309.5895"/><polygon class="cls-36" points="869.8518 269.7374 882.6342 272.5671 893.2947 268.71 881.5733 268.71 869.8518 269.7374"/><polygon class="cls-36" points="856.9868 271.0369 868.0316 274.0456 861.7846 270.5522 856.9868 271.0369"/><polygon class="cls-36" points="846.4031 238.22 856.9868 239.3579 851.695 240.4947 846.4031 238.22"/><polygon class="cls-36" points="727.1606 386.2632 747.1404 375.1147 787.8875 370.4737 784.7701 372.7 727.1606 386.2632"/><polygon class="cls-36" points="743.4313 373.0979 752.3634 371.4842 757.524 365.4211 748.6929 368.8405 743.4313 373.0979"/><polygon class="cls-36" points="893.5185 342.3637 912.4947 339.5579 935.5659 328.71 916.6719 330.73 939.4541 326.9322 940.6412 326.3895 908.8966 328.9848 893.5185 342.3637"/><polygon class="cls-36" points="912.8654 325.532 938.0105 321.6673 914.8947 323.7827 912.8654 325.532"/><polygon class="cls-36" points="942.2421 337.1856 1000 319.0316 1000.5 311.15 942.2421 337.1856"/><polygon class="cls-36" points="929.8 346.0859 965.6105 337.1856 971.3711 339.8966 936.3684 348.535 929.8 346.0859"/><polygon class="cls-36" points="925.438 395.2467 960.4169 384.8105 930.464 391.2684 925.438 395.2467"/><polygon class="cls-36" points="948.0174 290.785 955.0999 280.9475 975.6694 266.6765 948.0174 290.785"/><polygon class="cls-36" points="935.4324 281.2972 961.8434 272.5671 982.7263 260.524 988.178 255.7709 968.1649 260.2427 947.8027 268.3244 935.4324 281.2972"/></g><polygon class="cls-12" points="940.6412 326.3895 945.7789 321.711 961.2553 316.4152 940.6412 326.3895"/><polygon class="cls-12" points="976.5115 379.6947 948.8201 374.6371 981.5895 377.6303 983.3104 377.125 972.4316 374.6371 975.1474 373.2628 995.4128 373.5717 976.5115 379.6947"/><polygon class="cls-12" points="969.8421 373.2628 967.0947 372.1789 967.0947 371.6275 969.8421 370.4737 969.8421 373.2628"/><polygon class="cls-12" points="925.438 384.8105 927.7789 384.4173 930.464 384.4173 925.438 385.4421 925.438 384.8105"/><polygon class="cls-12" points="960.0447 295.7186 962.3857 295.3254 965.0707 295.3254 960.0447 296.3502 960.0447 295.7186"/><polygon class="cls-12" points="956.9579 398.3806 966.1789 395.7561 982.7263 395.688 956.9579 398.3806"/><polygon class="cls-12" points="876.707 395.2467 884.4165 390.0286 890.536 390.0286 881.5733 393.8429 876.707 395.2467"/><polygon class="cls-12" points="893.4842 389.5474 896.0737 388.3718 896.6531 388.3718 895.0687 389.5474 893.4842 389.5474"/><polygon class="cls-12" points="902.8632 358.5989 903.5439 357.6651 909.3053 357.0608 911.0421 357.6651 903.5439 359.12 902.8632 358.5989"/><polygon class="cls-12" points="895.3316 360.4789 896.2789 359.8158 894.9053 359.8158 891.7789 361.1895 895.3316 360.4789"/><polygon class="cls-12" points="950.5855 307.95 955.0999 302.6759 961.8842 301.61 952.0316 307.95 950.5855 307.95"/><polygon class="cls-12" points="952.6632 309.5895 956.2349 307.95 955.0999 309.5895 952.6632 310.4805 952.6632 309.5895"/><polygon class="cls-12" points="940.2613 284.7053 942.2421 282.0526 944.0737 282.0526 942.1675 284.7053 940.2613 284.7053"/><polygon class="cls-12" points="912.3738 246.859 914.3546 244.2063 916.1862 244.2063 914.28 246.859 912.3738 246.859"/><polygon class="cls-12" points="920.8419 268.3244 923.9895 264.8421 926.9 263.4794 920.8419 268.3244"/><polygon class="cls-12" points="975.6694 346.7494 979.3365 344.0226 986.3872 344.0226 975.6694 346.7494"/></g><polygon class="cls-20" points="815.281 314.6688 847.8645 315.41 849.3124 317.8631 848.6324 314.6688 815.281 314.6688"/><polygon class="cls-53" points="845.781 317.4211 842.3527 314.99 846.0304 317.1803 845.781 317.4211"/><polygon class="cls-33" points="772.4789 359.2826 791.3737 371.1453 792.2413 371.1453 781.8842 364.7895 773.7368 359.6421 773.713 359.12 772.4789 359.2826"/><polygon class="cls-38" points="938.0105 303.6561 982.0971 307.4354 984.9464 306.1327 948.3368 304.3147 938.0105 303.6561"/><polygon class="cls-39" points="929.902 310.7104 946.5368 309.2153 965.2629 305.9923 963.9642 305.881 946.3355 309.1316 929.902 310.7104"/><polygon class="cls-7" points="950.5855 304.4263 946.5368 309.2153 947.0595 308.9981 950.5855 304.7341 950.5855 304.4263"/><polygon class="cls-44" points="935.4324 291.3711 958.0333 282.0526 956.512 283.3789 953.9974 283.8961 935.6194 291.3958 935.4324 291.3711"/><polygon class="cls-28" points="971.3711 274.6327 1000 270.5522 1000 272.2989 998.3579 271.2526 971.0906 274.8768 971.3711 274.6327"/></g></g></g></g></g><g id="icicles"><g id="icicles-2"><g id="Layer_30"><g id="Layer_10"><g id="Iceicles"><polygon class="cls-13" points="624.3315 152.7635 626.33 213.8056 627.4632 219.65 627.4632 155.7897 627.4632 151.6729 624.3315 152.7635"/><polygon class="cls-17" points="629.2143 151.0117 630.5579 162.0526 630.5579 151.0117 629.2143 151.0117"/><polygon class="cls-23" points="342.4316 167.5474 340.9789 198.6646 339.8421 177.21 338.174 177.21 337.7892 173.0718 342.4316 167.5474"/><polygon class="cls-31" points="363.194 147.0169 361.7983 153.0987 359.635 147.0169 363.194 147.0169"/><polygon class="cls-29" points="717.84 208.6725 719.885 239.0485 725.9895 225.84 729.0211 225.6611 730.5495 222.1503 717.84 208.6725"/><polygon class="cls-21" points="733.4634 223.8605 734.2632 229.411 737.9596 226.4994 733.4634 223.8605"/><polygon class="cls-37" points="281.8813 215.4842 279.7504 228.6495 277.9789 230.5724 277.9789 238.2211 274.9474 222.31 273.7436 220.8796 281.8813 215.4842"/><polygon class="cls-40" points="284.4131 213.8056 285.3192 215.2552 286.3572 212.5167 284.4131 213.8056"/></g></g></g></g></g><g id="ground_rock_1"><g id="ground_rock_1-2"><g id="Layer_29"><g id="Layer_9"><g id="ground_rock_1-3"><polygon class="cls-34" points="278.7029 400 270.1236 386.6855 266.0235 386.6855 255.7733 375.131 261.3377 371.0309 271.5619 368.1216 405.4267 330.03 405.4267 336.2431 370.6735 392.5076 360.9114 392.5076 354.6636 400 278.7029 400"/><polygon class="cls-41" points="255.7733 375.131 292.85 379.4243 368.4447 354.105 328.3025 369.3559 346.2211 371.4842 396.4947 344.0386 405.4267 330.03 261.3377 371.0309 255.7733 375.131"/><polygon class="cls-41" points="294.2838 381.8618 321.9684 372.7799 310.16 379.4243 294.2838 381.8618"/><polygon class="cls-41" points="351.2991 379.4243 387.4 354.7272 377.242 367.0757 351.2991 379.4243"/><polygon class="cls-41" points="298.35 400 360.8253 377.3209 372.4947 378.6842 341.93 400 298.35 400"/><polygon class="cls-36" points="325.3919 390.1835 354.0984 391.5138 367.189 382.505 347.9395 382.505 369.3496 381.155 372.4947 378.6842 360.8253 377.3209 325.3919 390.1835"/><polygon class="cls-36" points="361.0116 372.7799 370.535 370.2682 377.242 367.0757 369.998 366.6322 361.0116 372.7799"/><polygon class="cls-36" points="336.8724 366.1 353.7121 367.45 368.8693 359.12 350.4586 360.4224 336.8724 366.1"/><polygon class="cls-36" points="368.4447 354.105 392.8299 346.0393 361.7983 354.25 368.4447 354.105"/><polygon class="cls-14" points="372.4947 378.6842 370.6735 392.5076 360.9114 392.5076 362.0672 386.0297 372.4947 378.6842"/><polygon class="cls-14" points="294.2838 381.8618 298.35 400 292.8542 400 278.7029 400 270.1236 386.6855 281.7382 381.0127 286.0947 393.4632 282.8837 378.2703 292.85 379.4243 294.2838 381.8618"/><polygon class="cls-14" points="299.715 377.125 300.4947 379.4243 311.0854 376.3501 311.0854 373.3167 299.715 377.125"/><polygon class="cls-14" points="317.5615 371.1476 317.5615 374.2256 321.9684 372.7799 323.24 390.9647 325.3919 390.1835 325.3919 369.8324 327.0211 369.706 327.0211 389.5921 328.3025 389.1269 328.3025 369.3559 343.6086 363.285 343.6086 362.4235 317.5615 371.1476"/><polygon class="cls-12" points="327.0211 389.5921 340.0316 391.5138 318.9898 392.5076 327.0211 389.5921"/><polygon class="cls-12" points="368.2353 350.4096 363.9053 349.9473 367.3117 346.0393 377.3141 345.8232 368.2353 350.4096"/><polygon class="cls-12" points="376.1481 347.3545 381.1697 345.8232 385.5053 346.0393 376.1481 347.3545"/><polygon class="cls-12" points="396.3684 342.6842 397.1895 339.5263 395.8 339.5263 393.5263 341.5474 396.3684 342.6842"/><polygon class="cls-12" points="272.3895 372.1789 273.5263 371.8316 274.6632 371.4842 276.1432 371.8316 272.3895 372.1789"/><polygon class="cls-12" points="297.6842 372.1789 295.1172 375.1147 291.4316 376.6941 285.4632 376.3705 291.4316 373.8554 297.6842 372.1789"/><polygon class="cls-12" points="379.3158 365.5474 379.8677 360.4224 376.1481 362.85 379.3158 365.5474"/><polygon class="cls-12" points="309.3583 373.8951 314.4526 369.0922 327.1474 366.6322 309.3583 373.8951"/><polygon class="cls-12" points="327.1474 394.1398 327.8657 393.6526 330.1789 393.6526 327.9053 394.7895 327.1474 394.1398"/><polygon class="cls-12" points="372.4947 344.7353 376.1481 344.0421 376.9158 344.0421 373.6316 344.7353 372.4947 344.7353"/><polygon class="cls-12" points="372.7789 345.3053 374.7053 345.3053 374.7053 345.6211 372.4947 345.4632 372.7789 345.3053"/></g></g></g></g></g><g id="bridge"><g id="bridge-2"><g id="Layer_28"><g id="Layer_8"><g id="Bridge_colours"><polygon class="cls-52" points="375.0217 136.3491 368.7053 93.0682 371.3579 93.0682 373.4421 116.5659 374.0571 117.1836 376 136.3491 375.0217 136.3491"/><polygon class="cls-18" points="594.603 129.8269 598.0135 84.9451 601.5049 82.9274 596.8767 120.2338 597.1609 122.3339 595.7395 129.5339 594.603 129.8269"/><path class="cls-59" d="M493.75,174.9214c-1.1147,0-2.2363-.0151-3.3667-.0459-32.583-.8945-60.9419-11.5415-78.9946-20.315-18.7442-9.1103-30.5616-18.142-31.6187-18.9619l-5.5141,.3775-.0342-.499,5.7055-.3902,.0757,.0596c.4751,.375,48.2139,37.522,110.3941,39.229,32.4585,.895,58.5913-11.3379,74.7905-21.7534,17.5586-11.291,27.5654-22.9444,27.6641-23.0611l.0683-.08,2.8018-.1963,.0351,.499-2.5937,.1816c-.919,1.0542-10.8408,12.23-27.6914,23.0679-15.6963,10.0957-40.6807,21.8882-71.7217,21.8882Z"/><polygon class="cls-63" points="374.3174 137.6798 392.0261 141.5354 392.8316 139.6076 382.21 134.8618 380.7402 138.2719 379.4736 137.3264 374.3174 137.6798"/><polygon class="cls-63" points="384.3984 140.8562 400.505 151.689 402.2759 148.0916 399.6538 146.0013 398.4575 149.5884 384.3984 140.8562"/><polygon class="cls-63" points="402.2759 151.7041 410.0347 157.6448 417.7935 160.5902 418.6246 157.6448 417.7935 155.2059 416.99 158.4019 402.2759 151.7041"/><g><path class="cls-58" d="M380.7402,138.2719c-.5625-.4119-.9863-.7316-1.2666-.9455l-5.1562,.3534-.1572-3.9067,6.0703-.4152,.395,.312c.0132,.0102,.5537,.4368,1.5845,1.1919l-1.4698,3.4101Z"/><path class="cls-58" d="M493.8071,176.628c-1.1416,0-2.2915-.0153-3.4482-.0471-3.9033-.107-7.8804-.3572-11.8213-.743l.2246-3.9004c3.8877,.3801,7.8106,.6265,11.6597,.7328,1.1357,.0306,2.2641,.0459,3.3852,.0459l.2754-.0006,.0156,3.9118-.291,.0006Zm4.4449-.0789l-.657-5.4138h15.8337l.3711,3.8812c-5.1309,.8328-10.3623,1.3479-15.5478,1.5326Zm-23.8482-1.1652c-5.0986-.622-10.2895-1.4867-15.4292-2.569l.4785-3.8622c5.0738,1.069,10.1983,1.9222,15.23,2.5359l-.2793,3.8953Zm43.5171-1.1046l-.4473-3.8686c5.0157-.9843,10.0645-2.3029,15.0078-3.9175l.7286,3.7947c-5.0352,1.6452-10.1797,2.9879-15.2891,3.9914Zm-63.0356-2.373c-5.0499-1.1817-10.1675-2.5977-15.211-4.2098l.7139-3.7997c4.9829,1.593,10.0386,2.9918,15.0273,4.1588l-.5302,3.8507Zm82.3452-3.0039l-.8028-3.7692c4.8916-1.7725,9.7832-3.8768,14.5381-6.2529l1.0742,3.6527c-4.8437,2.4207-9.8261,4.5638-14.8095,6.3694Zm-101.5147-1.0009l-14.9731-7.2722,.9355-3.717c4.8662,2.0819,9.8252,3.9895,14.7383,5.671l-.7007,5.3182Zm120.1895-7.3735l-1.1446-3.6164,13.2709-9.7923,1.9948,4.7765c-4.5674,3.1459-9.3184,6.0498-14.1211,8.6322Zm-138.9153-2.1261l-14.7141-6.6978,1.1504-3.6125c4.6821,2.5334,9.5161,4.9273,14.3672,7.1143l-.8035,3.196Zm-18.5325-8.8135c-5.0039-2.8377-9.7339-5.7754-14.0591-8.7322l1.0394-2.5843c2.9292,2.003,8.0661,4.2416,14.216,7.7294l-1.1963,3.5871Zm175.2232-.2884l-1.4688-3.4101c4.5869-3.3598,8.9395-6.9418,12.9365-10.6467l1.7383,3.1885c-4.084,3.7851-8.5273,7.4416-13.206,10.8683Z"/><path class="cls-58" d="M590.2314,135.2177l-1.8242-3.1058c2.3623-2.3583,3.6182-3.8271,3.6309-3.8418l.3935-.4628,3.2276-.2267,.1601,3.9067-2.1797,.1528c-.5634,.6316-1.706,1.8789-3.4082,3.5776Z"/></g><polygon class="cls-63" points="436.4165 162.5833 439.1966 165.5279 438.8809 168.507 435.8894 168.5076 424.0317 163.2832 420.7427 160.6293 435.7158 167.9015 436.4165 162.5833"/><polygon class="cls-63" points="439.6743 167.6965 443.1425 169.7667 455.4155 173.1433 456.2421 170.4199 455.4155 168.0556 454.8853 171.9063 439.6743 167.6965"/><polygon class="cls-63" points="458.9746 172.8149 464.5158 175.3839 474.6831 176.5491 475.255 173.5213 474.6831 171.4886 474.4038 175.3839 458.9746 172.8149"/><polygon class="cls-63" points="478.5376 175.8379 481.9474 176.628 494.0981 177.3152 494.0981 176.6274 478.5376 175.8379"/><polygon class="cls-63" points="498.252 176.5491 498.252 177.3152 510.8275 176.5491 513.7998 175.0165 498.252 176.5491"/><polygon class="cls-63" points="517.4736 170.4107 516.5752 172.5597 517.4736 175.8379 531.8421 171.9063 533.21 170.2879 517.9209 174.2793 517.4736 170.4107"/><polygon class="cls-63" points="536.4277 165.1332 535.5424 167.4763 535.9851 171.1353 551.1684 163.8913 552.04 162.533 537.2305 168.9024 536.4277 165.1332"/><polygon class="cls-63" points="554.7607 156.9116 552.3382 160.2857 553.6687 163.2796 568.4105 153.8237 570.0264 151.8958 555.9053 160.528 554.7607 156.9116"/><polygon class="cls-63" points="572.2119 145.8899 570.0264 149.3 570.6053 151.635 573.8102 150.6655 586.1579 139.831 586.8867 138.4317 573.6807 149.3 572.2119 145.8899"/><polygon class="cls-63" points="588.4072 132.1119 585.6457 136.1553 586.8867 138.4317 593.8 132.7897 595.6056 132.3945 595.8193 131.4873 593.6396 131.6401 590.2314 135.2177 588.4072 132.1119"/><path class="cls-56" d="M476.8491,132.2036c-34.1694,0-60.6621-8.0351-76.9702-14.8408-17.9673-7.4981-27.793-15.166-27.8901-15.2427l.3095-.3926c.0967,.0762,9.8819,7.7105,27.7925,15.1822,16.5293,6.895,43.5518,15.0776,78.4448,14.7876,36.5249-.2827,67.524-10.3028,87.0982-18.6587,21.2119-9.0552,33.9482-18.1612,34.0742-18.252l.293,.4053c-.127,.0913-12.8985,9.2236-34.1572,18.3008-19.6182,8.3764-50.6905,18.4209-87.3042,18.7046-.564,.0044-1.1309,.0063-1.6905,.0063Z"/><path class="cls-61" d="M465.1147,137.6035c-6.8852,0-13.5996-.395-20.1323-1.187-28.5757-3.4634-53.6787-14.5679-74.6123-33.0044l.3301-.375c47.2353,41.6006,106.9736,37.4849,148.7715,26.7066,45.3193-11.6866,79.9043-33.5044,80.249-33.7237l.2676,.4219c-.3438,.2192-34.9863,22.0747-80.3789,33.7827-19.044,4.9116-37.2954,7.3789-54.4947,7.3789Z"/><polygon class="cls-50" points="376 133.6472 378.1851 131.9548 382.7579 134.1074 404.3105 148.0916 435.1214 161.2832 453.9107 167.6965 440.3882 163.8968 439.892 166.538 436 164.7431 436.4165 162.5833 421.6782 156.9123 421.0001 159.6066 417.3645 156.9123 417.7935 155.2059 403.4263 148.0916 402.7188 149.8257 398.9567 148.0916 399.6538 146.0013 385.4378 138.2719 385.0952 139.1239 384.3984 140.8562 383.5745 167.9015 382.21 170.4199 381.17 187.2251 382.21 140.0369 381.17 140.8562 381.165 165.198 379.4895 133.3579 376 133.6472"/><polygon class="cls-50" points="592.4316 127.8073 590.7325 127.5806 577.0632 141.5193 567.3526 146.5223 543.6898 160.8206 523.5684 167.9015 514.7895 171.1353 503.6977 169.7116 502.0316 171.1353 513.4287 171.1353 513.7998 175.0165 513.7998 185.1626 514.2774 185.1626 515.0421 205.5908 515.4211 175.3839 516.1789 175.0165 516.5752 184.1787 517.4736 175.8379 517.4736 170.4107 524.8926 168.9024 532.4814 166.4932 533.21 170.2879 533.21 173.3491 534.2421 168.9024 534.4632 169.355 535.7149 168.9024 536.4277 165.1332 544.2339 162.0224 550.9658 158.8803 552.04 162.533 554.7607 161.3324 554.7607 156.9116 568.0316 147.1193 569.7094 151.1367 573.6807 149.3 572.2119 145.8899 579.8601 139.8994 585.1484 135.2432 586.2995 137.3545 589.3452 136.4253 588.4072 132.1119 592.4316 127.8073"/><polygon class="cls-50" points="453.1164 167.4254 453.7983 166.5857 470.8201 170.9727 459.4531 168.9527 459.0547 172.1683 455.4155 168.0556 453.1164 167.4254"/><polygon class="cls-50" points="474.6831 171.4886 487.7906 171.1353 494.0825 172.7156 486.14 172.7156 478.7622 171.9375 478.6272 174.2828 474.6831 175.3839 474.6831 171.4886"/><path class="cls-6" d="M401.7934,117.8784s11.154,6.7848,30.9066,10.8269l1.1737-1.1247,1.2477,25.4414v-23.9378l1.2951-.3789,.7519,1.7052,.379-.8766s7.3263,2.574,14.1473,2.42c6.8211-.1539,8.766-.6146,8.766-.6146l.7709,3.5225v-3.4654s-38.6659-5.8397-59.4382-13.518Z"/><path class="cls-22" d="M509.3602,131.9548s25.3939-5.5789,51.8221-16.1616l-2.1191,22.6385,1.2631-21.6389-2.2737,1.0856s-1.5499,6.4058-16.1223,6.1532l-1.1829,3.0809-.1106-3.002s-17.7202,7.3272-31.2766,7.8443Z"/><polygon class="cls-50" points="592.4316 127.8073 595.6592 127.5806 595.6056 132.3945 593.8 132.7897 622.2222 133.3026 602.8316 131.4873 601.9474 130.8526 602.9579 124.5368 601.5049 129.8269 601.5049 125.2316 596.7997 124.1633 595.8193 127.1125 596.4526 124.1633 592.4432 125.2632 592.4316 127.8073"/><polygon class="cls-50" points="376 133.6472 374.1602 133.7731 374.3174 137.6798 362.0579 138.2719 361.4145 134.4368 362.0579 134.2474 362.2474 137.4211 363.194 133.3579 372.3526 131.9539 373.3789 135.1129 372.3526 129.1789 376.4105 128.1368 376 133.6472"/><polygon class="cls-16" points="596.3895 94.3158 596.3895 100 599.8544 100 601.5049 94.3158 596.3895 94.3158"/><polygon class="cls-16" points="368.7053 100.4737 372.3526 99.6211 372.8105 106.1883 369.7316 106.4895 368.7053 100.4737"/><rect class="cls-55" x="309.7525" y="121.4292" width="65.9413" height=".4995" transform="translate(-12.7642 198.4492) rotate(-31.733)"/><rect class="cls-62" x="624.7471" y="84.3852" width=".5001" height="60.665" transform="translate(153.13 540.3032) rotate(-52.4487)"/><polygon class="cls-16" points="648.1159 133.6865 649.04 129.5339 650.2 129.5339 649.158 133.9435 648.1159 133.6865"/><polygon class="cls-16" points="314.6256 140.7811 313.9308 137.7516 315.1206 136.6807 315.4466 140.7811 314.6256 140.7811"/></g></g></g></g></g></g></g></svg>