<?xml version="1.0" encoding="UTF-8"?><svg id="a" xmlns="http://www.w3.org/2000/svg" viewBox="0 0 1121.02 470.93"><defs><style>.f,.g,.h,.i,.j,.k{fill-rule:evenodd;}.f,.k{fill:#a4bdff;}.g{fill:#664d6d;}.h{fill:#9c99b3;}.i{fill:#776f8a;}.j{fill:#8481ba;}.k{opacity:.8;}</style></defs><g id="b"><g id="c"><g id="d"><g id="e"><polygon class="i" points="234.25 413.77 773.4 450.79 912.86 459.52 192.35 459.52 234.25 413.77"/><polygon class="g" points="234.25 413.77 439.26 425.31 520.66 425.31 549.94 431.54 820.54 447.3 828.14 455.5 234.25 413.77"/><polygon class="k" points="487.02 431.13 661.37 445.78 385.38 431 349.73 441.38 458.01 443.94 480.73 437.77 436.01 436.84 472.77 436.65 575.24 442.03 515.61 441.66 643.78 454.69 630.66 457.4 518.68 459.52 838.51 459.52 828.14 455.5 487.02 431.13"/><polygon class="j" points="523.98 444.57 562.45 448.56 535.48 448.56 523.98 444.57"/><polygon class="f" points="422.9 443.81 515.61 449.87 476.05 448.56 422.9 443.81"/><polygon class="j" points="210.54 433.38 414.66 448.56 395.52 449.87 259.79 440.68 365.73 449.87 325.99 457.55 200.94 451.03 210.54 433.38"/><polygon class="h" points="520.66 425.31 512.86 426.97 538.2 432.3 553.18 433.38 549.94 431.54 520.66 425.31"/><polygon class="h" points="490.64 429.34 501.54 429.05 527.87 432.65 490.64 429.34"/><polygon class="h" points="510.89 429.34 528.85 432.22 520.07 429.62 510.89 429.34"/><polygon class="h" points="547.48 434.64 557.9 435.49 553.18 434.3 547.48 434.64"/><polygon class="h" points="589.41 433.84 611.47 436.79 690.55 439.73 589.41 433.84"/></g></g></g></g></svg>