<?xml version="1.0" encoding="UTF-8"?><svg xmlns="http://www.w3.org/2000/svg" xmlns:xlink="http://www.w3.org/1999/xlink" viewBox="0 0 1000 400"><defs><style>.cls-1{fill:#eee3ff;mix-blend-mode:soft-light;}.cls-1,.cls-2,.cls-3,.cls-4,.cls-5,.cls-6,.cls-7,.cls-8,.cls-9,.cls-10,.cls-11,.cls-12,.cls-13{fill-rule:evenodd;}.cls-14{isolation:isolate;}.cls-2{fill:url(#linear-gradient);}.cls-3{fill:url(#linear-gradient-2);}.cls-3,.cls-4{opacity:.7;}.cls-4{fill:url(#linear-gradient-3);}.cls-5,.cls-13{fill:#a4bdff;}.cls-6{fill:#8674a5;}.cls-6,.cls-11{mix-blend-mode:multiply;}.cls-7{fill:#664d6d;}.cls-8{fill:#9c99b3;}.cls-9{fill:url(#linear-gradient-4);opacity:.5;}.cls-10{fill:#776f8a;}.cls-11{fill:#8167b5;}.cls-12{fill:#8481ba;}.cls-13{opacity:.8;}</style><linearGradient id="linear-gradient" x1="527.5945" y1="372.5512" x2="522.4247" y2="280.7097" gradientTransform="translate(-82.4493 -22.495) rotate(3.2218)" gradientUnits="userSpaceOnUse"><stop offset="0" stop-color="#17284f"/><stop offset=".2367" stop-color="#172155"/><stop offset="1" stop-color="#190f66"/></linearGradient><linearGradient id="linear-gradient-2" x1="133.1263" y1="243.4819" x2="900.8737" y2="243.4819" gradientUnits="userSpaceOnUse"><stop offset="0" stop-color="#4e65f3"/><stop offset=".1781" stop-color="#4e63ea"/><stop offset=".4677" stop-color="#4e60d1"/><stop offset=".8307" stop-color="#4e5baa"/><stop offset="1" stop-color="#4e5996"/></linearGradient><linearGradient id="linear-gradient-3" x1="205.9207" y1="314.2494" x2="572.0211" y2="314.2494" xlink:href="#linear-gradient-2"/><linearGradient id="linear-gradient-4" x1="350.2583" y1="229.1151" x2="716.6543" y2="229.1151" gradientTransform="translate(5.4368 -12.7681) rotate(1.3352)" xlink:href="#linear-gradient-2"/></defs><g class="cls-14"><g id="Middle"><g id="ground_rock_2"><g id="ground_rock_2-2"><g id="Layer_35"><g id="Layer_15"><g id="ground_rock_2-3"><polygon class="cls-2" points="220.9426 344.5458 286.4915 301.5706 302.1521 288.647 314.3216 287.1259 432.4907 334.3733 434.1908 333.2482 626.4435 379.1109 220.2839 356.2473 220.9426 344.5458"/><path class="cls-11" d="M626.4409,379.1108l-192.246-45.8674,81.6514,24.8684h0l-60.8222-15.9136,1.9496,18.9296-6.3595-6.9485-78.1616-24.4115,75.765,21.7927-15.7287-17.1912-118.1714-47.2463,48.3557,23.1443-20.0798-7.3301-28.2759-15.8142-12.1651,1.5287-15.6609,12.9203-6.5107,7.8364-43.7245,32.8345,2.7702,9.681,51.6549-39.3791,8.4324-5.8554-33.5224,28.9918-26.3303,17.0571,1.3307,4.6522,27.3666,1.5405,18.9475-12.9455-3.6916,13.8043,343.2266,19.321Zm-206.8077-26.6754l10.3239,3.2453-15.6281-2.963-2.2987-2.2227,7.6029,1.9404Zm-118.6947-24.2494l-4.9306,8.947-6.2594,5.5069,11.19-14.4539Z"/><polygon class="cls-1" points="314.3175 287.123 317.0472 295.9904 372.963 320.7022 323.8261 303.6736 348.0156 319.2878 342.9917 326.8211 370.4861 364.7025 460.5538 369.7726 456.9737 361.1278 432.4889 334.3693 314.3175 287.123"/><polygon class="cls-6" points="455.0241 342.1982 456.9737 361.1278 471.1315 370.3681 626.4409 379.1108 434.1949 333.2434 432.4907 334.3733 456.9737 361.1278 455.0241 342.1982"/><polygon class="cls-6" points="342.9917 326.8211 453.186 356.9883 456.9737 361.1278 429.9571 355.6807 347.2604 332.7024 351.7174 338.5864 423.7666 360.522 445.593 368.9305 370.4861 364.7025 342.9917 326.8211"/><polygon class="cls-6" points="455.0241 342.1982 515.8463 358.1118 588.8714 376.9959 559.7864 375.3587 456.3506 355.0781 455.0241 342.1982"/><polygon class="cls-6" points="434.1949 333.2434 507.2131 355.853 626.4409 379.1108 434.1949 333.2434"/></g></g></g></g></g><g id="ground"><g id="ground-2"><g id="Layer_34"><g id="Layer_14"><g id="groud"><polygon class="cls-10" points="221.3914 354.25 760.5368 391.2684 900 400 179.4842 400 221.3914 354.25"/><polygon class="cls-7" points="221.3914 354.25 426.3926 365.79 507.8006 365.79 537.0824 372.021 807.6788 387.7829 815.281 395.9794 221.3914 354.25"/><polygon class="cls-13" points="474.16 371.6054 648.5056 386.2632 372.5138 371.4842 336.8724 381.8618 445.15 384.4173 467.8627 378.2454 423.1474 377.3209 459.9053 377.125 562.3789 382.505 502.7474 382.137 630.9189 395.1666 617.8 397.8842 505.8211 400 825.6502 400 815.281 395.9794 474.16 371.6054"/><polygon class="cls-12" points="511.1176 385.0463 549.5895 389.0421 522.6137 389.0421 511.1176 385.0463"/><polygon class="cls-5" points="410.0401 384.2871 502.7474 390.3531 463.1895 389.0421 410.0401 384.2871"/><polygon class="cls-12" points="197.6737 373.8554 401.7934 389.0421 382.66 390.3531 246.9296 381.155 352.8708 390.3531 313.1263 398.031 188.075 391.5138 197.6737 373.8554"/><polygon class="cls-8" points="507.8006 365.79 500 367.45 525.3368 372.7799 540.32 373.8554 537.0824 372.021 507.8006 365.79"/><polygon class="cls-8" points="477.7789 369.8227 488.6737 369.5263 515.0105 373.1263 477.7789 369.8227"/><polygon class="cls-8" points="498.0319 369.8227 515.9895 372.7 507.2032 370.1045 498.0319 369.8227"/><polygon class="cls-8" points="534.6211 375.1147 545.0421 375.9705 540.32 374.7842 534.6211 375.1147"/><polygon class="cls-8" points="576.55 374.3199 598.6078 377.2655 677.6878 380.2111 576.55 374.3199"/></g></g></g></g></g><g id="front_fog"><g id="front_fog-2"><g id="Layer_36"><g id="Layer_16"><g id="mist"><path class="cls-3" d="M900,218.14s-396.1391,27.09-518.425,34.0083c-111.8706,6.3292-248.4487,14.9244-248.4487,14.9244,0,0,363.5541-17.6413,463.0794-15.6627,99.5254,1.9786,27.9407,22.0266-42.0707,14.8532-86.2975-8.8421-205.341-4.8032-205.341-4.8032,0,0,206.4841,8.4336,313.9134,7.25,107.4294-1.1837,238.1663-10.165,238.1663-10.165l-.8737-40.405Z"/><path class="cls-4" d="M205.9207,310.7241s123.794-3.6718,228.5018-1.5797c104.7078,2.092,137.5986,4.5962,137.5986,4.5962,0,0-86.0732,4.1737-189.4877,5.8022-103.4145,1.6285-174.4073-1.6285-174.4073-1.6285l-2.2054-7.1902Z"/><path class="cls-9" d="M349.9469,237.5166s114.3229-4.2233,185.7799-4.2548c71.457-.0315,180.9151-4.7554,180.9151-4.7554,0,0-70.7924,.6388-111.343,.7597-40.5507,.121-114.7393-16.2569-154.9259-15.4302-40.1866,.8267-100.4261,23.6807-100.4261,23.6807Z"/></g></g></g></g></g></g></g></svg>