<?xml version="1.0" encoding="UTF-8"?><svg xmlns="http://www.w3.org/2000/svg" xmlns:xlink="http://www.w3.org/1999/xlink" viewBox="0 0 1121.02 470.93"><defs><style>.g{fill:#b29adb;mix-blend-mode:soft-light;}.g,.h,.i{fill-rule:evenodd;}.j{isolation:isolate;}.h{fill:#8674a5;mix-blend-mode:multiply;}.i{fill:url(#f);}</style><linearGradient id="f" x1="509.85" y1="459.52" x2="509.85" y2="162.33" gradientTransform="translate(1141.45) rotate(-180) scale(1 -1)" gradientUnits="userSpaceOnUse"><stop offset="0" stop-color="#92c2ff"/><stop offset=".12" stop-color="#83aef1"/><stop offset=".53" stop-color="#5470c5"/><stop offset=".79" stop-color="#5459a9"/><stop offset="1" stop-color="#544a97"/></linearGradient></defs><g class="j"><g id="a"><g id="b"><g id="c"><g id="d"><g id="e"><polygon class="i" points="363.73 459.52 567.63 275 572.43 272.23 658.98 162.33 663.02 162.33 668.83 166.37 690.81 199.79 752.32 281.83 800.45 307.22 804.24 307.97 899.48 459.52 363.73 459.52"/><path class="h" d="M567.63,275l-6,10.36-89.17,75.77,95.17-86.13Zm-95.17,86.13l82.87-64.9-3.3,20.12-30.27,20.69,29.33-14.98-3.39,20.67-111.47,51.19,36.23-32.79Zm-87.87,79.52l132.99-46.77,171.96-89.13,27.55,41.71-28.02-46.18h0s-153.59,78.93-153.59,78.93l-123.03,36.23,16.45-14.89,34.54-12.32,84.26-45.5,5.52-15.75v-.03s8.21-23.37,8.21-23.37l18.65-10.13-17.34,6.41,9.69-27.63,86.55-109.9h4.04l5.81,4.04-8.23-.48-24.99,41.84,27.47-36.42,5.75-4.94,9.6,15.56,33.35,54.04-36.76-51.16-4.77,2.21-.15,.07,.45,.58,76.71,100.19,5.07-6.03,51.91,26.14,95.25,151.55-95.25-145.48-3.41,2.31,45.44,96.21v-16.29l31.87,63.25h-22.6l-69.06-92.05-93,11.74-22.9-36.48,20.23,40.19,91.83,10.32,39.79,66.28h-12.5l-10.85-17.49,5.16,17.49h-66.69l-20.09-23.46,14.03,23.46h-95.88l3.13-4.34,3.5-4.87-69.91-56.43,7.75,10.35,58.66,50.95-53.28-39.74-126.82,44.08h-94.9l20.85-18.87Zm124.58-69.98l23.49-6.85,7.58-6.85-31.07,13.7Zm79.83-30.49l97.53-64.28h0l8.95,9.46-9.33-13.06-63.99,38.32-33.17,19.86v9.7Zm70.49-61.01l-13.29,2.66-13.29,15.91-11.32,4.8-20.84,17.77,32.16-22.57,26.58-18.57Zm-27.88-42.44l12.59-8.46,30.48-31.33-43.07,39.79Zm48.09-29l-10.36,8.34-72.36,57.97-.02,.02-1.17,.94,77.55-53.31,6.61,2.54,23.87,33.72-24.12-50.22Zm111.48,128.15l34.66,43.33-27.49-52.26-19.12,1.28,11.95,7.65Zm-91.54,34.79l14.79-2.65-11.81-1.49-11.81-9.94,8.83,14.08Zm110.29,77.13l-26.53-46.59-10.41,3.02,36.94,43.57Zm-220.93-23.27l3.68,2.76,42.93,32.23h-163.15l116.54-34.99Zm262.99,34.99h-5.72l-48.85-67.8,54.57,67.8Zm-443.08-40.88l108.67-30.41-117.87,38.74,9.2-8.33Z"/><path class="g" d="M592.68,427.29l19.63,32.23h-248.57l20.85-18.87,15.12-13.68,9.2-8.33,3.54-3.2,16.45-14.89,7.33-6.63,36.23-32.79,95.17-86.13,4.8-2.77,86.55-109.9,11.12,24.76,4.58,9.85,5.02,10.79-10.36,8.34,4,5.62,8.84,12.42,3.98,38.19,.37,3.6,2.54,24.37h0s.47,4.48,.47,4.48l-88.77,56.38,6.58,6.89-35.02,25.86,13.13,21.56,7.22,11.85Zm-110.08-61.78l20.76-5.99,32.12-16.79-52.88,22.78Z"/><polygon class="h" points="804.24 307.97 800.83 316.35 798.35 326.95 779.23 328.23 791.18 335.88 782.64 393.24 707.99 418.63 717.46 436.06 722.01 459.52 635.61 459.52 717.08 346.46 730.34 307.97 752.33 281.83 804.24 307.97"/><polygon class="h" points="408.91 418.64 412.45 415.44 412.41 415.45 408.91 418.64"/><polygon class="h" points="612.3 374.93 645.59 418.64 639.4 393.92 612.3 374.93"/><polygon class="h" points="791.18 335.88 717.08 346.46 702.62 366.53 719.92 368.02 786.48 367.47 791.18 335.88"/><polygon class="h" points="779.23 328.23 727.46 316.35 730.34 307.97 752.33 281.83 804.24 307.97 798.35 326.95 779.23 328.23"/><polygon class="h" points="670.34 322.07 631.61 346.46 654.68 337.6 670.34 322.07"/><polygon class="h" points="561.63 285.36 567.63 275 482.6 351.95 561.63 285.36"/><polygon class="h" points="689.54 304.75 600.77 361.13 520.04 392.6 689.54 304.75"/></g></g></g></g></g></g></svg>