<?xml version="1.0" encoding="UTF-8"?><svg xmlns="http://www.w3.org/2000/svg" viewBox="0 0 1000 400"><defs><style>.cls-1{isolation:isolate;}.cls-2{fill:#8674a5;mix-blend-mode:multiply;}.cls-2,.cls-3{fill-rule:evenodd;}.cls-3{fill:#7e81fd;}</style></defs><g class="cls-1"><g id="mountain_1"><g id="mountain_1-2"><g id="Layer_37"><g id="Layer_17"><g id="main_mountain"><polygon class="cls-3" points="677.9453 400 542.4624 277.52 534.71 277.52 464.7542 211.6947 439.8351 200 418.0036 220.7895 378.554 173.0421 363.0492 164.7053 253.4959 0 99.9137 0 -.0863 0 -.0863 400 677.9453 400"/><path class="cls-2" d="M-.3063,188.76l.22-1.31,75.75-53.51,79.39-56.07,.45-.32-.47,.55-9.17,10.82L-.0863,200.22l-2.44,1.86,2.22-13.32Zm-2.22,13.32l2.44-1.76L154.2837,88.92l57.05,48.5-55.83-65.94-51.3,36.14L-.0863,181.08V69.7L181.3437,20.62l2.05-4.03-46.33,10.94,48.27-14.77,6.49-12.76h7.16l41.12,65.14,64.65,118.98,18.37,26.82,5.18,.25-31.17-62.91,57.44,71.75,53.52,59.11-76.74-100.03L244.9337,60.68l-21.6-26.14L198.9837,0h54.51l57.79,86.88-38.53-47.99,2.69-1.13,2.36,1.7-3.12-6.15-15.43-16.02-9.01-4.54,61.04,86.02-30.52-36.76,70.11,104.21-21.61-52.3,33.79,50.79-8.22,11.74,48.12,64.42-29.59-50.8,.73-10.48,32.65,37.41-30.31-37.39,2.12-6.57,39.45,47.75,21.83-20.79,24.92,11.69,38.66,36.38-33.13-28.54,1.2-.07-2.34-2.84-8.4-3.6,8.84,6.19-9.85-5.75,24.06,22.99-15.66-13.01,16.67,18.07,23.25,19.45-21.6-22.23,34.61,32.33,13.65,6.46h7.75l135.48,122.48h-19.96l-114.17-106.45-5.01,6.45,33.79,30.03-43.2-30.03-.24,17.09,78.24,82.91h-94.16l-48.63-51.37-61.65,7.3-84.5-93.46-68.73-72.65,60.78,67.59,.01,.01,91.43,111.61,68.37-6.72,36.09,37.69H-.0863v-60.86l199.79-106.23-5.8-13.41-121.37,53.07,117.34-62.39-.64-5.31-1.36,.7-13.42,6.88,11.44-11.46-7.88-18.22,2.42-8.18L-.0863,261.46l-2.44-59.38ZM95.8637,74.29l-17.16,8.31,13.39-2.64,3.77-5.67Zm-19.37,45.19l13.57-11.86-34.1,20.52,20.53-8.66ZM177.6137,27.97l-.01,.01-45.34,32.89,39.31-21.03,20.25,21.03,17.36,16.68-31.57-49.58Zm104.46,66.82l2.27,8.02,6.82-2.06-9.09-5.96Zm231.57,204.46l8.97-9.25-55.24-50.26,9.1,11.67-24.63-14.7-7.52-10.87-.67,4.41,8.19,6.46,61.8,62.54Zm-4.12,4.24h-9.61l4.76,5.01,4.85-5.01Zm-58.44-9.18l13.52,2.76-14.77-10.13-19.59,21.01,20.84-13.64Zm-2.83-16.81l49.72,37.91,5.41-5.58-57.8-54.56-3.51-14.52-28.64,25.54,28.3-21.06,.34,4.55-29.65,26.58-1.75,17.35,37.58-16.21Zm-66.14,16.05l-1.58-2.66-6.95-3.95,8.53,6.61Zm4.71-22.59l-2.06-8.11-20.01-20.15,22.07,28.26Zm-42.23-21.75l6.81,2.2-13.5-13.19-5.24-1.51,11.93,12.5ZM249.4637,97.01l-21.22-17.05,25.86,27.66-4.64-10.61Zm8.74,71.86l21.83,11.37-12.36-15.53-31.29-31.84,21.82,36Zm60.25,180.72l-23.5-36.59-6.57-13,62.49,55.93-91.62-94.47-50.07-23.24,109.27,111.37ZM191.8237,0L-.0863,39.84V0H191.8237Z"/><polygon class="cls-2" points="439.8337 200 444.3211 225.84 442.0774 240.7474 456.64 327.4474 483.9242 400 399.5453 400 406.1137 315.0211 409.6505 303.9053 418.0037 220.79 439.8337 200"/><path class="cls-2" d="M191.8237,0l-6.49,12.76-1.94,3.83-2.05,4.03-3.73,7.35-.01,.01-6.03,11.86-16.07,31.64-51.3,36.14-28.54,26.32,79.39-56.07-.02,.23-.75,10.82,95.44,100.9,68.73,72.65-7.94-5.05-.01-.01-130.07-82.82-2.42,8.18,7.88,18.22,1.98,4.58,2,4.61,4.03,9.32,5.8,13.41,72.26,167.09H-.0863v-60.86l196.12-104.73L-.0863,304.31V0H191.8237ZM55.9637,128.14l20.53-8.66,13.57-11.86-34.1,20.52Zm36.13-48.18l3.77-5.67-17.16,8.31,13.39-2.64Z"/><polygon class="cls-2" points="99.1537 124.54 99.9137 124.05 99.9137 123.96 99.1537 124.54"/><polygon class="cls-2" points="542.4637 277.52 518.1558 318.1789 486.7032 325.7026 497.9737 315.41 534.7137 277.52 542.4637 277.52"/><polygon class="cls-2" points="363.0537 164.71 378.5537 173.04 373.3637 190.07 364.6821 206.8947 354.8337 176.45 363.0537 164.71"/><polygon class="cls-2" points="409.6505 303.9053 383.2505 279.14 351.4081 251.4053 406.1137 315.0211 409.6505 303.9053"/><polygon class="cls-2" points="265.6505 149.2947 207.1075 74.2893 245.1874 107.62 265.6505 149.2947"/><polygon class="cls-2" points="259.2537 261.46 313.9032 283.2132 399.5453 377.6737 399.5453 400 259.2537 261.46"/><polygon class="cls-2" points="185.3337 12.76 137.0637 27.53 183.3937 16.59 185.3337 12.76"/><polygon class="cls-2" points="180.4342 174.5915 178.0151 182.7719 193.9032 219.5041 -.0863 304.3147 -.0863 339.1416 199.7037 232.91 232.3925 308.5 127.7087 400 235.2129 315.0211 145.8663 400 -.0863 400 -.0863 272.2238 180.4342 174.5915"/><polygon class="cls-2" points="456.64 327.4474 402.9537 355.93 464.6037 348.63 456.64 327.4474"/><polygon class="cls-2" points="470.3137 362.31 483.9242 400 399.5453 400 401.9437 369.03 470.3137 362.31"/><polygon class="cls-2" points="442.0737 249.78 412.4237 276.36 413.4337 266.29 441.7337 245.23 442.0737 249.78"/><polygon class="cls-2" points="517.5287 323.8632 486.7032 328.7105 474.5768 355.93 517.5287 323.8632"/><polygon class="cls-2" points="180.4342 174.5915 -.0863 272.2238 -.3041 283.21 178.0151 182.7719 180.4342 174.5915"/></g></g></g></g></g></g></svg>