<?xml version="1.0" encoding="UTF-8"?><svg xmlns="http://www.w3.org/2000/svg" xmlns:xlink="http://www.w3.org/1999/xlink" viewBox="0 0 1121.02 470.93"><defs><style>.j{isolation:isolate;}.k{fill:url(#f);}.k,.l,.m,.n{mix-blend-mode:screen;opacity:.5;}.o{fill:#8b95ff;fill-rule:evenodd;}.l{fill:url(#i);}.m{fill:url(#g);}.n{fill:url(#h);}</style><radialGradient id="f" cx="282.42" cy="278.51" fx="282.42" fy="278.51" r="5.42" gradientTransform="translate(1094.57 904.23) rotate(-90) scale(2.31 -1.52)" gradientUnits="userSpaceOnUse"><stop offset="0" stop-color="#4f6ac7"/><stop offset=".39" stop-color="#4e69c5"/><stop offset=".53" stop-color="#4b65be"/><stop offset=".63" stop-color="#465fb2"/><stop offset=".71" stop-color="#4056a1"/><stop offset=".78" stop-color="#374a8b"/><stop offset=".84" stop-color="#2c3b70"/><stop offset=".9" stop-color="#1f2a4f"/><stop offset=".95" stop-color="#11172b"/><stop offset=".99" stop-color="#010102"/><stop offset=".99" stop-color="#000"/></radialGradient><radialGradient id="g" cx="607.15" cy="296.9" fx="607.15" fy="296.9" r="8.09" gradientTransform="translate(766.38 1584.58) rotate(-90) scale(2.09 -1.2)" xlink:href="#f"/><radialGradient id="h" cx="621.16" cy="367.31" fx="621.16" fy="367.31" r="4.55" gradientTransform="translate(2120.46 538.2) rotate(-159.47) scale(2.59 -1.23)" xlink:href="#f"/><radialGradient id="i" cx="706.54" cy="297.03" fx="706.54" fy="297.03" r="19.12" gradientTransform="translate(494.36 1384.63) rotate(-90) scale(1.65 -1)" xlink:href="#f"/></defs><g class="j"><g id="a"><g id="b"><g id="c"><g id="d"><g id="e"><g><path class="o" d="M523.31,243.46c1.24-1.24-3.86-5.4-5.21-4.05-1.34,1.34,3.8,5.45,5.21,4.05Z"/><path class="o" d="M496.32,334.07c1.24-1.24-3.86-5.4-5.21-4.05s3.8,5.45,5.21,4.05Z"/><path class="o" d="M550.49,293.98c2.8-1.75-3.86-5.4-5.21-4.05-1.34,1.34,.97,6.7,5.21,4.05Z"/><path class="o" d="M395.89,188.9c1.2-.75-1.66-2.31-2.23-1.74-.57,.58,.41,2.87,2.23,1.74Z"/><path class="o" d="M400.36,295.57c1.2-.75-1.66-2.31-2.23-1.74s.41,2.87,2.23,1.74Z"/><path class="o" d="M483.82,288.7c.59-.37-.82-1.14-1.1-.86s.2,1.42,1.1,.86Z"/><path class="o" d="M337.84,157.39c1.2-.75-1.66-2.31-2.23-1.74-.58,.58,.41,2.87,2.23,1.74Z"/><path class="o" d="M508.77,237.02c0-.88-2.12-2.11-3.5-2.11s-2.17,2.52-1.56,3.14c.61,.61,5.06,.52,5.06-1.02Z"/><path class="o" d="M438.61,270.77c0-.88-2.11-2.12-3.5-2.12s-2.17,2.52-1.56,3.14c.61,.61,5.06,.52,5.06-1.02Z"/><path class="o" d="M503.82,225.86c.35-.16,.47-1.24,.22-1.8-.25-.56-1.41-.42-1.55-.06-.14,.36,.7,2.14,1.33,1.86Z"/><path class="o" d="M466.78,328.87c.35-.16,.47-1.24,.22-1.8-.25-.56-1.41-.42-1.55-.06-.14,.36,.7,2.14,1.33,1.86Z"/><path class="o" d="M380.3,288.29c.35-.16,.47-1.24,.22-1.8-.25-.56-1.41-.42-1.55-.06-.14,.36,.7,2.14,1.33,1.86Z"/><path class="o" d="M482.94,213.17c.35-.16,.47-1.24,.22-1.8-.25-.56-1.41-.42-1.55-.06-.14,.36,.7,2.14,1.33,1.86Z"/><path class="o" d="M493.74,222.43c-.73-1.11-2.76-.73-2.76,0s2.39,1.47,2.76,1.09c.37-.37,.36-.55,0-1.09Z"/><path class="o" d="M592.13,226.99c-.73-1.11-2.76-.73-2.76,0s2.39,1.47,2.76,1.09c.37-.37,.36-.55,0-1.09Z"/><path class="o" d="M671.65,117.23c1.24-1.24-3.86-5.4-5.21-4.05s3.8,5.45,5.21,4.05Z"/><path class="o" d="M257.64,282.82c1.24-1.24-3.86-5.4-5.21-4.05s3.8,5.45,5.21,4.05Z"/><path class="o" d="M681.59,114.17c0-.88-2.11-2.12-3.5-2.12s-2.17,2.52-1.56,3.14c.61,.61,5.06,.52,5.06-1.02Z"/><path class="o" d="M584.54,173.67c0-.88-2.12-2.12-3.5-2.12s-2.17,2.52-1.56,3.14c.61,.61,5.06,.52,5.06-1.02Z"/><path class="o" d="M41.71,194.56c1.24-1.24-3.86-5.4-5.21-4.05-1.34,1.34,3.8,5.45,5.21,4.05Z"/><path class="o" d="M27.17,188.12c0-.88-2.11-2.12-3.5-2.12s-2.17,2.52-1.56,3.14c.61,.61,5.06,.52,5.06-1.02Z"/><path class="o" d="M22.22,176.96c.35-.16,.47-1.24,.22-1.8-.25-.56-1.41-.42-1.55-.06-.14,.36,.7,2.14,1.33,1.86Z"/><path class="o" d="M1.34,164.27c.35-.16,.47-1.24,.22-1.8s-1.41-.42-1.55-.06c-.14,.36,.7,2.14,1.33,1.86Z"/><path class="o" d="M12.14,173.54c-.73-1.11-2.76-.73-2.76,0s2.39,1.47,2.76,1.09,.36-.55,0-1.09Z"/><path class="o" d="M102.94,124.77c0-.88-2.11-2.12-3.5-2.12s-2.17,2.52-1.56,3.14c.61,.61,5.06,.52,5.06-1.02Z"/><path class="o" d="M614.65,125.22c.35-.16,.47-1.24,.22-1.8-.25-.56-1.41-.42-1.55-.06-.14,.36,.7,2.14,1.33,1.86Z"/><path class="o" d="M948.93,216.56c1.24-1.24-3.86-5.4-5.21-4.05s3.8,5.45,5.21,4.05Z"/><path class="o" d="M921.94,307.16c1.24-1.24-3.86-5.4-5.21-4.05-1.34,1.34,3.8,5.45,5.21,4.05Z"/><path class="o" d="M976.12,267.08c2.8-1.75-3.86-5.4-5.21-4.05-1.34,1.34,.97,6.7,5.21,4.05Z"/><path class="o" d="M909.44,261.8c.59-.37-.82-1.14-1.1-.86-.28,.28,.2,1.42,1.1,.86Z"/><path class="o" d="M934.39,210.12c0-.88-2.11-2.12-3.5-2.12s-2.17,2.52-1.56,3.14,5.06,.52,5.06-1.02Z"/><path class="o" d="M929.45,198.95c.35-.16,.47-1.24,.22-1.8s-1.41-.42-1.55-.06c-.14,.36,.7,2.14,1.33,1.86Z"/><path class="o" d="M908.57,186.26c.35-.16,.47-1.24,.22-1.8-.25-.56-1.41-.42-1.55-.06-.14,.36,.7,2.14,1.33,1.86Z"/><path class="o" d="M919.37,195.53c-.73-1.11-2.76-.73-2.76,0s2.39,1.47,2.76,1.09c.37-.37,.36-.55,0-1.09Z"/><path class="o" d="M1017.76,200.09c-.73-1.11-2.76-.73-2.76,0s2.39,1.47,2.76,1.09c.37-.37,.36-.55,0-1.09Z"/><path class="o" d="M1010.16,146.77c0-.88-2.12-2.11-3.5-2.11s-2.17,2.52-1.56,3.14,5.06,.52,5.06-1.02Z"/><path class="o" d="M1040.27,98.32c.35-.16,.47-1.24,.22-1.8s-1.41-.42-1.55-.06c-.14,.36,.7,2.14,1.33,1.86Z"/><path class="o" d="M101.56,324.31c.35-.16,.47-1.24,.22-1.8-.25-.56-1.41-.42-1.55-.06-.14,.36,.7,2.14,1.33,1.86Z"/><path class="o" d="M129.95,222.68c.35-.16,.47-1.24,.22-1.8s-1.41-.42-1.55-.06c-.14,.36,.7,2.14,1.33,1.86Z"/><path class="o" d="M734.48,236.89c.35-.16,.47-1.24,.22-1.8s-1.41-.42-1.55-.06c-.14,.36,.7,2.14,1.33,1.86Z"/><path class="o" d="M643.04,207.25c-.73-1.11-2.76-.73-2.76,0s2.39,1.47,2.76,1.09c.37-.37,.36-.55,0-1.09Z"/><path class="o" d="M738.06,129.9c-.73-1.11-2.76-.73-2.76,0s2.39,1.47,2.76,1.09,.36-.55,0-1.09Z"/><path class="o" d="M119.06,202.89c-.73-1.11-2.76-.73-2.76,0s2.39,1.47,2.76,1.09,.36-.55,0-1.09Z"/><path class="o" d="M888.88,372.45c1.24-1.24-3.86-5.4-5.21-4.05s3.8,5.45,5.21,4.05Z"/><path class="o" d="M857.95,300.29c0-.88-2.11-2.12-3.5-2.12s-2.17,2.52-1.56,3.14c.61,.61,5.06,.52,5.06-1.02Z"/><path class="o" d="M852.5,330.34c.35-.16,.47-1.24,.22-1.8-.25-.56-1.41-.42-1.55-.06-.14,.36,.7,2.14,1.33,1.86Z"/><path class="o" d="M887.5,352.25c-.73-1.11-2.76-.73-2.76,0s2.39,1.47,2.76,1.09,.36-.55,0-1.09Z"/></g><ellipse class="k" cx="672.09" cy="251.76" rx="8.22" ry="12.52" transform="translate(142.85 736.52) rotate(-63.02)"/><ellipse class="m" cx="410.81" cy="313.65" rx="9.69" ry="16.94" transform="translate(-38.49 569.12) rotate(-66.98)"/><path class="n" d="M442.71,391.53c-1.08,2.89,2.99,7.09,9.1,9.37,6.11,2.29,11.94,1.8,13.02-1.09,1.08-2.89-2.99-7.09-9.1-9.37-6.11-2.29-11.94-1.8-13.02,1.09Z"/><ellipse class="l" cx="197.34" cy="218.75" rx="19.12" ry="31.54" transform="translate(-70.66 341.1) rotate(-72.48)"/></g></g></g></g></g></g></svg>