<?xml version="1.0" encoding="UTF-8"?><svg id="a" xmlns="http://www.w3.org/2000/svg" xmlns:xlink="http://www.w3.org/1999/xlink" viewBox="0 0 1121.02 470.93"><defs><style>.i{fill:url(#f);}.i,.j{opacity:.7;}.i,.j,.k{fill-rule:evenodd;}.j{fill:url(#g);}.k{fill:url(#h);opacity:.5;}</style><linearGradient id="f" x1="145.99" y1="303" x2="913.74" y2="303" gradientUnits="userSpaceOnUse"><stop offset="0" stop-color="#4e65f3"/><stop offset=".18" stop-color="#4e63ea"/><stop offset=".47" stop-color="#4e60d1"/><stop offset=".83" stop-color="#4e5baa"/><stop offset="1" stop-color="#4e5996"/></linearGradient><linearGradient id="g" x1="218.78" y1="373.77" x2="584.88" y2="373.77" xlink:href="#f"/><linearGradient id="h" x1="363.12" y1="288.64" x2="729.52" y2="288.64" gradientTransform="translate(6.83 -13.05) rotate(1.34)" xlink:href="#f"/></defs><g id="b"><g id="c"><g id="d"><g id="e"><path class="i" d="M912.86,277.66s-396.14,27.09-518.43,34.01c-111.87,6.33-248.45,14.92-248.45,14.92,0,0,363.55-17.64,463.08-15.66,99.53,1.98,27.94,22.03-42.07,14.85-86.3-8.84-205.34-4.8-205.34-4.8,0,0,206.48,8.43,313.91,7.25,107.43-1.18,238.17-10.16,238.17-10.16l-.87-40.41Z"/><path class="j" d="M218.78,370.24s123.79-3.67,228.5-1.58c104.71,2.09,137.6,4.6,137.6,4.6,0,0-86.07,4.17-189.49,5.8-103.41,1.63-174.41-1.63-174.41-1.63l-2.21-7.19Z"/><path class="k" d="M362.81,297.04s114.32-4.22,185.78-4.25c71.46-.03,180.92-4.76,180.92-4.76,0,0-70.79,.64-111.34,.76-40.55,.12-114.74-16.26-154.93-15.43-40.19,.83-100.43,23.68-100.43,23.68Z"/></g></g></g></g></svg>