<?xml version="1.0" encoding="UTF-8"?><svg xmlns="http://www.w3.org/2000/svg" xmlns:xlink="http://www.w3.org/1999/xlink" viewBox="0 0 1121.02 470.93"><defs><style>.g{fill:#eee3ff;mix-blend-mode:soft-light;}.g,.h,.i,.j{fill-rule:evenodd;}.k{isolation:isolate;}.h{fill:#8674a5;}.h,.j{mix-blend-mode:multiply;}.i{fill:url(#f);}.j{fill:#8167b5;}</style><linearGradient id="f" x1="540.46" y1="432.07" x2="535.29" y2="340.23" gradientTransform="translate(-79.08 -23.12) rotate(3.22)" gradientUnits="userSpaceOnUse"><stop offset="0" stop-color="#17284f"/><stop offset=".24" stop-color="#172155"/><stop offset="1" stop-color="#190f66"/></linearGradient></defs><g class="k"><g id="a"><g id="b"><g id="c"><g id="d"><g id="e"><polygon class="i" points="233.81 404.07 299.35 361.09 315.01 348.17 327.18 346.65 445.35 393.89 447.05 392.77 639.31 438.63 233.15 415.77 233.81 404.07"/><path class="j" d="M639.3,438.63l-192.25-45.87,81.65,24.87h0l-60.82-15.91,1.95,18.93-6.36-6.95-78.16-24.41,75.76,21.79-15.73-17.19-118.17-47.25,48.36,23.14-20.08-7.33-28.28-15.81-12.17,1.53-15.66,12.92-6.51,7.84-43.72,32.83,2.77,9.68,51.65-39.38,8.43-5.86-33.52,28.99-26.33,17.06,1.33,4.65,27.37,1.54,18.95-12.95-3.69,13.8,343.23,19.32Zm-206.81-26.68l10.32,3.25-15.63-2.96-2.3-2.22,7.6,1.94Zm-118.69-24.25l-4.93,8.95-6.26,5.51,11.19-14.45Z"/><polygon class="g" points="327.18 346.64 329.91 355.51 385.83 380.22 336.69 363.19 360.88 378.81 355.85 386.34 383.35 424.22 473.42 429.29 469.84 420.65 445.35 393.89 327.18 346.64"/><polygon class="h" points="467.89 401.72 469.84 420.65 483.99 429.89 639.3 438.63 447.06 392.76 445.35 393.89 469.84 420.65 467.89 401.72"/><polygon class="h" points="355.85 386.34 466.05 416.51 469.84 420.65 442.82 415.2 360.12 392.22 364.58 398.11 436.63 420.04 458.46 428.45 383.35 424.22 355.85 386.34"/><polygon class="h" points="467.89 401.72 528.71 417.63 601.73 436.52 572.65 434.88 469.21 414.6 467.89 401.72"/><polygon class="h" points="447.06 392.76 520.08 415.37 639.3 438.63 447.06 392.76"/></g></g></g></g></g></g></svg>