<?xml version="1.0" encoding="UTF-8"?><svg xmlns="http://www.w3.org/2000/svg" xmlns:xlink="http://www.w3.org/1999/xlink" viewBox="0 0 1121.02 470.93"><defs><style>.g{isolation:isolate;}.h{fill:#2f4496;}.h,.i,.j,.k,.l{fill-rule:evenodd;}.i{fill:#ae9aff;mix-blend-mode:multiply;opacity:.5;}.j{fill:#a5a1c7;}.j,.l{mix-blend-mode:soft-light;}.k{fill:url(#f);}.l{fill:#b8b4de;}</style><linearGradient id="f" x1="343.46" y1="459.52" x2="343.46" y2="389.55" gradientUnits="userSpaceOnUse"><stop offset="0" stop-color="#110b42"/><stop offset="1" stop-color="#100b24"/></linearGradient></defs><g class="g"><g id="a"><g id="b"><g id="c"><g id="d"><g id="e"><polygon class="k" points="291.57 459.52 282.99 446.21 278.89 446.21 268.64 434.65 274.2 430.55 284.42 427.64 418.29 389.55 418.29 395.76 383.54 452.03 373.77 452.03 367.53 459.52 291.57 459.52"/><polygon class="l" points="268.64 434.65 305.71 438.94 381.31 413.63 341.16 428.88 359.08 431 409.36 403.56 418.29 389.55 274.2 430.55 268.64 434.65"/><polygon class="l" points="307.15 441.38 334.83 432.3 323.02 438.94 307.15 441.38"/><polygon class="l" points="364.16 438.94 400.26 414.25 390.1 426.6 364.16 438.94"/><polygon class="l" points="311.21 459.52 373.69 436.84 385.36 438.2 354.79 459.52 311.21 459.52"/><polygon class="j" points="338.25 449.7 366.96 451.03 380.05 442.03 360.8 442.03 382.21 440.68 385.36 438.2 373.69 436.84 338.25 449.7"/><polygon class="j" points="373.87 432.3 383.4 429.79 390.1 426.6 382.86 426.15 373.87 432.3"/><polygon class="j" points="349.73 425.62 366.57 426.97 381.73 418.64 363.32 419.94 349.73 425.62"/><polygon class="j" points="381.31 413.63 405.69 405.56 374.66 413.77 381.31 413.63"/><polygon class="i" points="385.36 438.2 383.54 452.03 373.77 452.03 374.93 445.55 385.36 438.2"/><polygon class="i" points="307.15 441.38 311.21 459.52 305.72 459.52 291.57 459.52 282.99 446.21 294.6 440.53 298.96 452.98 295.75 437.79 305.71 438.94 307.15 441.38"/><polygon class="i" points="312.58 436.65 313.36 438.94 323.95 435.87 323.95 432.84 312.58 436.65"/><polygon class="i" points="330.42 430.67 330.42 433.75 334.83 432.3 336.1 450.49 338.25 449.7 338.25 429.35 339.88 429.23 339.88 449.11 341.16 448.65 341.16 428.88 356.47 422.81 356.47 421.94 330.42 430.67"/><polygon class="h" points="339.88 449.11 352.89 451.03 331.85 452.03 339.88 449.11"/><polygon class="h" points="381.1 409.93 376.77 409.47 380.17 405.56 390.18 405.34 381.1 409.93"/><polygon class="h" points="389.01 406.87 394.03 405.34 398.37 405.56 389.01 406.87"/><polygon class="h" points="409.23 402.2 410.05 399.05 408.66 399.05 406.39 401.07 409.23 402.2"/><polygon class="h" points="285.25 431.7 286.39 431.35 287.53 431 289.01 431.35 285.25 431.7"/><polygon class="h" points="310.55 431.7 307.98 434.64 304.29 436.21 298.33 435.89 304.29 433.38 310.55 431.7"/><polygon class="h" points="392.18 425.07 392.73 419.94 389.01 422.37 392.18 425.07"/><polygon class="h" points="322.22 433.42 327.32 428.61 340.01 426.15 322.22 433.42"/><polygon class="h" points="340.01 453.66 340.73 453.17 343.04 453.17 340.77 454.31 340.01 453.66"/><polygon class="h" points="385.36 404.26 389.01 403.56 389.78 403.56 386.49 404.26 385.36 404.26"/><polygon class="h" points="385.64 404.83 387.57 404.83 387.57 405.14 385.36 404.98 385.64 404.83"/></g></g></g></g></g></g></svg>