<?xml version="1.0" encoding="UTF-8"?><svg id="a" xmlns="http://www.w3.org/2000/svg" xmlns:xlink="http://www.w3.org/1999/xlink" viewBox="0 0 1121.02 470.93"><defs><style>.n{fill:url(#j);}.n,.o,.p,.q,.r,.s,.t,.u{fill-rule:evenodd;}.o{fill:url(#m);}.p{fill:url(#h);}.q{fill:url(#f);}.r{fill:url(#g);}.s{fill:url(#k);}.t{fill:url(#i);}.u{fill:url(#l);}</style><linearGradient id="f" x1="638.76" y1="279.17" x2="638.76" y2="211.19" gradientUnits="userSpaceOnUse"><stop offset="0" stop-color="#170d36"/><stop offset="1" stop-color="#13062e"/></linearGradient><linearGradient id="g" x1="642.75" y1="221.57" x2="642.75" y2="210.53" xlink:href="#f"/><linearGradient id="h" x1="352.97" y1="258.19" x2="352.97" y2="227.07" xlink:href="#f"/><linearGradient id="i" x1="374.28" y1="212.62" x2="374.28" y2="206.54" xlink:href="#f"/><linearGradient id="j" x1="737.06" y1="298.57" x2="737.06" y2="268.19" xlink:href="#f"/><linearGradient id="k" x1="748.57" y1="288.93" x2="748.57" y2="283.38" xlink:href="#f"/><linearGradient id="l" x1="290.67" y1="297.74" x2="290.67" y2="275" xlink:href="#f"/><linearGradient id="m" x1="298.25" y1="274.78" x2="298.25" y2="272.04" xlink:href="#f"/></defs><g id="b"><g id="c"><g id="d"><g id="e"><polygon class="q" points="637.19 212.28 639.19 273.33 640.33 279.17 640.33 215.31 640.33 211.19 637.19 212.28"/><polygon class="r" points="642.08 210.53 643.42 221.57 643.42 210.53 642.08 210.53"/><polygon class="p" points="355.29 227.07 353.84 258.19 352.7 236.73 351.04 236.73 350.65 232.59 355.29 227.07"/><polygon class="t" points="376.06 206.54 374.66 212.62 372.5 206.54 376.06 206.54"/><polygon class="n" points="730.7 268.19 732.75 298.57 738.85 285.36 741.88 285.18 743.41 281.67 730.7 268.19"/><polygon class="s" points="746.33 283.38 747.13 288.93 750.82 286.02 746.33 283.38"/><polygon class="u" points="294.74 275 292.61 288.17 290.84 290.09 290.84 297.74 287.81 281.83 286.61 280.4 294.74 275"/><polygon class="o" points="297.28 273.33 298.18 274.78 299.22 272.04 297.28 273.33"/></g></g></g></g></svg>