<?xml version="1.0" encoding="UTF-8"?><svg xmlns="http://www.w3.org/2000/svg" xmlns:xlink="http://www.w3.org/1999/xlink" viewBox="0 0 1121.02 470.93"><defs><style>.u{fill:url(#t);}.u,.v,.w,.x,.y,.z,.aa,.ab,.ac,.ad,.ae,.af,.ag,.ah,.ai,.aj,.ak,.al,.am,.an,.ao,.ap{fill-rule:evenodd;}.v{fill:url(#o);}.w{fill:url(#s);}.aq{isolation:isolate;}.x{fill:#655cc4;}.y{fill:#2f4496;}.z{fill:#ae9aff;mix-blend-mode:multiply;}.z,.ar{opacity:.5;}.aa{fill:url(#j);}.ab{fill:url(#n);}.ac{fill:url(#r);}.ar,.ah,.ak,.ap{mix-blend-mode:soft-light;}.ad{fill:url(#m);}.ae{fill:#d0c0cc;}.af{fill:url(#q);}.ag{fill:url(#p);}.ah{fill:#a5a1c7;}.ai{fill:url(#h);}.aj{fill:url(#f);}.ak{fill:#b8b4de;}.al{fill:url(#g);}.am{fill:url(#k);}.an{fill:url(#i);}.ao{fill:url(#l);}.ap{fill:#b0abd4;}</style><linearGradient id="f" x1="12.86" y1="328.23" x2="392.73" y2="328.23" gradientUnits="userSpaceOnUse"><stop offset="0" stop-color="#110b42"/><stop offset="1" stop-color="#181136"/></linearGradient><linearGradient id="g" y1="205.97" x2="215.02" y2="205.97" xlink:href="#f"/><linearGradient id="h" x1="250.45" y1="198.87" x2="287.81" y2="198.87" xlink:href="#f"/><linearGradient id="i" x1="287.34" y1="199.64" x2="298.18" y2="199.64" xlink:href="#f"/><linearGradient id="j" x1="139.74" y1="459.52" x2="139.74" y2="244.52" gradientUnits="userSpaceOnUse"><stop offset="0" stop-color="#110b42"/><stop offset="1" stop-color="#100b24"/></linearGradient><linearGradient id="k" x1="192.98" y1="417.63" x2="192.98" y2="411.8" gradientUnits="userSpaceOnUse"><stop offset="0" stop-color="#0b0b21"/><stop offset="1" stop-color="#050721"/></linearGradient><linearGradient id="l" x1="179.89" y1="414.56" x2="179.89" y2="412.91" xlink:href="#k"/><linearGradient id="m" x1="106.3" y1="440.53" x2="106.3" y2="428.61" xlink:href="#k"/><linearGradient id="n" x1="84.95" y1="454.69" x2="84.95" y2="443.59" xlink:href="#k"/><linearGradient id="o" x1="66.9" y1="446.94" x2="66.9" y2="444.92" xlink:href="#k"/><linearGradient id="p" x1="114.06" y1="423.67" x2="114.06" y2="415.2" xlink:href="#k"/><linearGradient id="q" x1="191.73" y1="459.52" x2="191.73" y2="426.69" xlink:href="#k"/><linearGradient id="r" x1="158.39" y1="429.35" x2="158.39" y2="421.34" xlink:href="#k"/><linearGradient id="s" x1="154.56" y1="311.44" x2="154.56" y2="288.86" xlink:href="#k"/><linearGradient id="t" x1="120.09" y1="297.4" x2="120.09" y2="291.83" xlink:href="#k"/></defs><g class="aq"><g id="a"><g id="b"><g id="c"><g id="d"><g id="e"><g><polygon class="aj" points="223.45 459.52 245.47 335.76 241.53 333.52 244.94 310.81 248.46 305.69 322.75 256.44 328.31 249.4 334.75 246.52 354.84 228.93 376.06 206.54 383.76 206.54 392.73 196.94 12.86 216.3 12.86 459.52 223.45 459.52"/><polygon class="ap" points="153.82 266.42 238.33 297.04 244.94 310.81 244.5 313.77 187.04 285.18 153.82 266.42"/><polygon class="ak" points="159.25 273.33 198.79 292.69 232.52 313.77 173.65 290.09 159.25 273.33"/><polygon class="ak" points="112.86 254.54 156.73 281.83 104.98 254.05 112.86 254.54"/><polygon class="ap" points="322.75 256.44 173.65 214.05 328.31 249.4 322.75 256.44"/><polygon class="ap" points="112.86 210.71 179.37 236.73 249.67 285.36 252.59 296.23 164.56 257.95 123.82 238.11 131.97 244.85 19.93 201.87 112.86 210.71"/><polygon class="ap" points="165.67 227.07 226.1 261.97 208.8 244.54 165.67 227.07"/><polygon class="al" points="12.86 194.4 215.02 206 12.86 217.55 12.86 194.4"/><polygon class="ai" points="250.45 204.2 256.39 196.94 277.04 193.54 287.81 202.29 250.45 204.2"/><polygon class="an" points="287.34 202.33 293.65 196.94 298.18 196.94 296.28 201.88 287.34 202.33"/><polygon class="z" points="173.65 290.09 170.35 326.38 163.26 316.31 159.25 273.33 173.65 290.09"/><polygon class="z" points="170.35 275.75 170.35 278.76 198.79 292.69 199.38 291.32 170.35 275.75"/><polygon class="z" points="153.82 266.42 152.05 278.92 148.79 276.89 151.3 251.5 216.29 280.45 213.86 288.17 206.24 284.86 205.74 279.8 162.03 261.97 158.71 268.19 153.82 266.42"/><polygon class="z" points="131.97 244.85 126.92 263.28 132.83 266.96 135.86 243.97 124.69 238.53 131.97 244.85"/><polygon class="z" points="322.75 256.44 277.3 286.57 314.87 257.83 257.53 251.5 235.79 275.75 222.28 266.42 226.1 261.97 216.29 251.5 226.1 228.96 217.47 226.5 208.8 244.54 205.14 243.05 213.95 225.5 189.59 218.58 182.54 233.28 179.37 232.62 184.87 217.23 322.75 256.44"/><polygon class="z" points="232.52 313.77 210.54 404.26 238.78 310.93 213.95 298.57 212.17 301.06 232.52 313.77"/><polygon class="z" points="376.06 206.54 292.89 203.91 312.73 205.55 298.18 242.51 310.88 245.41 326.56 207.73 330.15 207.73 314.07 246.14 317.46 246.14 333.17 216.3 373.8 208.92 376.06 206.54"/><polygon class="z" points="229.92 204.95 228.72 226.63 244.94 230.34 250.98 203.91 229.92 204.95"/><polygon class="z" points="173.65 207.72 163.26 212.1 135.86 212.1 135.86 210.71 173.65 207.72"/></g><g><polygon class="aa" points="112.57 259.52 266.61 349.2 259.55 353.67 255.5 357.72 252.65 357.72 227.72 435.55 236.05 459.52 192.35 459.52 12.86 459.52 12.86 300.4 55.96 244.52 112.57 259.52"/><polygon class="ak" points="112.57 259.52 55.96 244.52 179.37 351.95 160.01 322.07 196.58 351.95 254.75 353.08 241.36 342.2 259.79 351.95 266.61 349.2 245.47 335.76 112.57 259.52"/><polygon class="ak" points="120.6 303 175.93 353.08 187.04 379.21 128.18 313.4 120.6 303"/><polygon class="ak" points="227.72 435.55 170.11 370.67 150.92 356.59 153.82 374.93 191.28 443 162.8 401.21 153.82 413.63 165.57 459.52 236.05 459.52 227.72 435.55"/><polygon class="ak" points="187.04 381.36 210.54 408.06 202.96 394.71 187.04 381.36"/><polygon class="ak" points="148.89 370.67 145.99 356.59 131.97 345.24 148.89 370.67"/><polygon class="ak" points="159.25 459.52 112.57 386.97 57.95 322.07 145.99 445.09 112.86 413.63 45.82 427.04 135.91 459.52 159.25 459.52"/><polygon class="ak" points="159.25 451.22 156.6 443.26 147.5 432.9 159.25 451.22"/><polygon class="ak" points="147.5 431 144.98 428.23 144.22 422.37 147.5 423.24 147.5 431"/><polygon class="ak" points="112.01 306.3 140.43 346.46 80.77 301.5 91.55 295.13 112.01 306.3"/><polygon class="ak" points="88.77 355.34 123.44 398.16 112.57 373.77 88.77 355.34"/><polygon class="ak" points="123.82 399.06 130.07 408.06 126.76 400.06 123.82 399.06"/><polygon class="z" points="121.86 411.82 118.01 418.71 112.86 413.63 112.86 399.42 121.86 411.82"/><polygon class="z" points="123.44 423.67 126.22 417.83 132.64 426.69 128.64 428.61 123.44 423.67"/><polygon class="z" points="159.25 459.52 165.57 459.52 153.82 413.63 152.81 438.94 156.6 443.26 159.25 451.22 156.67 455.5 159.25 459.52"/><polygon class="z" points="165.76 405.56 168.28 401.21 191.28 443 165.76 405.56"/><polygon class="z" points="153.82 374.93 152.81 412.44 148.89 370.67 145.99 356.59 135.91 348.43 135.91 342.18 140.43 346.46 121.86 320.22 123.82 307.42 128.18 313.4 173.05 363.57 170.11 370.67 167.46 368.86 168.6 362.04 166.45 359.93 163.82 366.06 150.92 356.59 153.82 374.93"/><polygon class="z" points="196.58 351.95 185.56 375.72 183.77 371.52 190.89 348.62 189.59 348.05 181.9 367.13 178 357.95 179.37 351.95 172.34 341.11 175.79 334.96 196.58 351.95"/><polygon class="z" points="169.85 337.25 172.34 332.14 169.85 330.1 168.36 334.96 169.85 337.25"/><polygon class="z" points="236.05 352.72 223.11 430.36 226.1 432.9 236.05 364.18 245.15 356.59 227.72 435.55 252.65 357.72 254.75 353.08 236.05 352.72"/><polygon class="z" points="251.49 350.44 252.65 348.18 241.36 342.2 251.49 350.44"/><polygon class="z" points="115.96 381.36 112.86 320.32 112.57 373.77 115.96 381.36"/><polygon class="x" points="190.58 347.38 206.68 352.15 196.58 351.95 190.58 347.38"/><polygon class="x" points="147.13 368.02 147.5 363.94 148.89 370.67 147.13 368.02"/><polygon class="x" points="255.66 349.77 263.54 350.44 259.79 351.95 255.66 349.77"/><polygon class="z" points="131.97 345.24 120.6 391.72 131.44 337.93 135.46 341.75 134.8 347.53 131.97 345.24"/><g class="ar"><polygon class="ak" points="162.28 304.75 191.28 328.34 199.38 324.09 168.36 303 162.28 304.75"/><polygon class="ak" points="165.67 312.33 173.65 320.31 170.35 320.31 163.03 313.77 165.67 312.33"/><polygon class="ak" points="210.54 352.22 179.37 330.1 183.5 326.95 218.78 351.95 201.19 337.25 203 337.25 246.41 352.72 210.54 352.22"/><polygon class="ak" points="254.75 353.08 242.15 342.63 223.93 341.11 246.41 352.72 254.75 353.08"/><polygon class="ak" points="145.99 328.23 143.12 330.1 169.43 359.52 175.8 359.52 145.99 328.23"/><polygon class="ak" points="143.12 247.51 148.01 238.53 218.78 263.99 218.78 268.19 177.44 256.44 229.92 286.57 143.12 247.51"/><polygon class="ak" points="70 431.86 74.9 422.89 145.67 448.35 145.67 452.54 104.33 440.79 156.81 470.93 70 431.86"/><polygon class="ak" points="314.87 257.83 289.92 255.07 252.65 293.55 257.44 299.74 314.87 257.83"/><polygon class="ak" points="269.29 269.83 271.67 262.55 269.29 261.97 265.1 269.83 269.29 269.83"/><polygon class="ak" points="40.34 231.35 42.72 224.07 40.34 223.49 36.15 231.35 40.34 231.35"/><polygon class="ak" points="219.5 275 229.92 279.17 228.22 281.83 218.78 277.41 219.5 275"/><polygon class="ak" points="161.84 389.5 168.36 388.62 202.12 441.38 189.59 439.71 161.84 389.5"/><polygon class="ak" points="168.34 383.2 183.32 407.13 197.88 405.55 172.34 379.52 168.34 383.2"/><polygon class="ak" points="25.72 331.02 40.69 354.95 55.26 353.37 29.72 327.34 25.72 331.02"/><polygon class="ak" points="183.11 408.06 188.3 408.06 189.59 411.8 183.95 411.8 183.11 408.06"/><polygon class="ak" points="165.76 437.48 163.7 434.64 181.98 429.35 187.51 437.48 165.76 437.48"/><polygon class="ak" points="171.95 438.94 188.51 438.94 189.59 440.53 171.95 438.94"/></g><g class="ar"><polygon class="ae" points="142.01 306.53 132.51 301.65 132.79 298.78 143.5 304.36 142.01 306.53"/><polygon class="ae" points="23.98 336.77 14.47 331.89 14.75 329.02 25.46 334.6 23.98 336.77"/><polygon class="ae" points="18.48 345.02 8.98 340.14 9.26 337.26 19.97 342.84 18.48 345.02"/><polygon class="ae" points="214.76 335.17 201.87 328.23 195.44 316.74 217.92 332.05 214.76 335.17"/><path class="ae" d="M135.89,396.65l6.11-22.34s.37,.82,.68,.82-5.57,22.38-5.57,22.38l-1.22-.86Z"/><path class="ae" d="M222.32,397.91l3.57-13.04s.22,.48,.4,.48-3.25,13.06-3.25,13.06l-.71-.5Z"/><polygon class="ae" points="281.28 219.69 282.8 215.72 285.54 215.72 283.41 220.54 281.28 219.69"/><polygon class="ae" points="39.44 247.7 40.96 243.73 43.69 243.73 41.57 248.55 39.44 247.7"/><polygon class="ae" points="137.81 279.89 135.39 276.41 136.93 274.15 139.72 278.62 137.81 279.89"/><polygon class="ae" points="260 261.87 253.53 277.35 271.11 255.18 260 261.87"/><polygon class="ae" points="210.51 369.92 211.8 369.92 211.15 382.61 208.72 382.61 210.51 369.92"/><polygon class="ae" points="46.22 286.65 47.51 286.65 46.87 299.33 44.43 299.33 46.22 286.65"/><polygon class="ae" points="168.04 376.55 173.84 385.91 178.05 384.26 170.35 373.98 168.04 376.55"/><polygon class="ae" points="144.75 302.51 144.89 300.4 147.73 302.33 146.5 302.6 144.75 302.51"/><polygon class="ae" points="130.21 224.14 131.83 229.99 135.07 229.99 132.64 224.14 130.21 224.14"/><polygon class="ae" points="129.29 255.63 130.37 258.77 129.83 259.14 129.29 256.63 129.29 255.63"/><polygon class="ae" points="197.9 371.95 199.93 370.99 199.93 372.7 198.27 372.7 197.9 371.95"/><polygon class="ae" points="179.87 384.26 181.96 383.41 181.96 385.23 180.92 385.91 179.87 384.26"/><polygon class="ae" points="142.07 403.73 144.24 398.69 146.37 398.69 143.43 403.73 142.07 403.73"/><polygon class="ae" points="45.51 281.69 47.68 276.65 49.81 276.65 46.87 281.69 45.51 281.69"/><polygon class="ae" points="230.14 364.51 231.41 361.57 232.65 361.57 230.93 364.51 230.14 364.51"/><polygon class="ae" points="267.57 262.17 274.96 252.66 279.41 255.2 270.42 263.24 267.57 262.17"/><polygon class="ae" points="47.73 236.88 55.12 227.37 59.57 229.91 50.58 237.96 47.73 236.88"/><polygon class="ae" points="268 275.95 268.83 273.75 271.9 273.35 268.66 276.2 268 275.95"/><polygon class="ae" points="38.54 237.91 39.37 235.7 42.44 235.3 39.2 238.16 38.54 237.91"/><polygon class="ae" points="229.89 363.63 231.67 357.32 229.96 356.76 229.07 363.63 229.89 363.63"/><polygon class="ae" points="196.33 374.17 196.33 369.92 195.5 369.92 195.92 374.25 196.33 374.17"/><polygon class="ae" points="197.34 372.45 197.87 369.17 198.72 369.17 197.87 372.45 197.34 372.45"/><polygon class="ae" points="152.67 290.85 154.44 299.7 159.05 301.61 154.56 290.85 152.67 290.85"/><polygon class="ae" points="157.81 292.99 159.05 297.27 160.78 297.27 159.05 293.85 157.81 292.99"/></g><polygon class="y" points="191.28 443 233.69 452.74 232.27 448.66 191.28 443"/><polygon class="y" points="185.79 432.84 191.28 432.3 183.46 428.61 185.79 432.84"/><polygon class="y" points="255.66 349.77 229.92 331.85 247 341.11 251.06 342.2 253.88 341.11 266.61 349.2 263.54 350.44 255.66 349.77"/><polygon class="y" points="242.15 342.63 254.75 353.08 207.47 351.41 236.05 346.56 231.67 343.5 241.36 343.88 242.15 342.63"/><polygon class="y" points="123.82 399.06 130.07 408.06 126.76 400.06 123.82 399.06"/><polygon class="y" points="121.86 328.85 131.97 334.47 140.43 346.46 121.86 328.85"/><polygon class="y" points="114.27 321.65 123.44 322.45 123.8 322.97 114.96 322.31 114.27 321.65"/><polygon class="y" points="178.05 306.53 183.11 310.93 190.58 312.33 180.92 306.53 178.05 306.53"/><polygon class="y" points="193.48 250.66 203.57 253.47 195.44 253.47 193.48 250.66"/><polygon class="y" points="202.12 294.77 232.52 313.77 193.92 298.78 202.12 294.77"/><polygon class="y" points="229.07 306.53 244.5 313.77 244.94 310.81 229.07 306.53"/><polygon class="y" points="268 241.51 251.06 231.74 233.67 227.76 253.53 236.76 268 241.51"/><polygon class="y" points="256.39 196.94 273.49 200.39 269.95 198.66 287.59 202.11 277.67 193.54 256.39 196.94"/><polygon class="y" points="293.65 196.94 296.19 201.69 298.18 196.94 293.65 196.94"/><polygon class="y" points="12.86 194.4 215.02 206 12.86 198.08 12.86 194.4"/><polygon class="y" points="228.22 341.11 218.78 334.96 210.54 332.89 228.22 341.11"/><polygon class="y" points="105.34 448.34 95.9 442.19 87.66 440.13 105.34 448.34"/><polygon class="y" points="163.03 352.36 170.35 356.35 171.2 361.57 163.03 352.36"/><polygon class="ak" points="12.86 422.51 126.15 459.45 92.56 459.45 12.86 422.51"/><polygon class="ak" points="33.69 437.48 62.49 448.66 41.78 445.46 33.69 437.48"/><polygon class="ak" points="53.65 451.22 63.5 451.22 66.41 454.12 60.98 454.12 53.65 451.22"/><polygon class="ak" points="103.42 396.02 113.53 407.13 106.83 403.73 103.42 396.02"/><polygon class="ak" points="77.4 339.93 87.95 354.2 87.63 348.33 77.4 339.93"/><polygon class="ak" points="112.01 303.66 97.55 293.55 109.74 296.23 112.01 303.66"/><polygon class="ak" points="12.86 305.03 97.55 383.41 103.42 396.02 43.29 361.57 60.03 379.21 12.86 359.52 12.86 305.03"/><polygon class="ak" points="61.86 380.1 68.68 380.1 97.55 398.16 68.56 384.65 61.86 380.1"/><g><polygon class="ah" points="153.38 450.39 120.6 438.94 126.95 447.02 156.67 455.5 128.6 449.32 129.96 451.22 157.99 457.55 153.38 450.39"/><polygon class="ah" points="128.64 421.17 135.35 422.37 142.12 432.9 136.4 431.86 128.64 421.17"/><polygon class="ah" points="125.49 425.62 112.86 425.62 112.86 422.37 125.49 425.62"/><polygon class="ah" points="155.12 418.71 176.4 421.17 155.44 419.94 155.12 418.71"/><polygon class="ah" points="159.71 436.65 234.46 454.95 236.05 459.52 161.53 443.74 218.78 459.52 183.88 459.52 163.44 451.22 159.71 436.65"/><polygon class="ah" points="156.73 381.36 162.28 393.36 156.73 387.36 156.73 381.36"/><polygon class="ah" points="211.8 409.66 219.5 419.94 217.23 411.05 211.8 407.13 211.8 409.66"/><polygon class="ah" points="144.75 320.35 163.03 326.95 168.04 334.47 150.21 325.33 144.75 320.35"/><polygon class="ah" points="159.5 333.82 171.52 339.83 174.79 343.5 159.5 333.82"/><polygon class="ah" points="153.82 374.93 184.93 387.36 176.4 377.76 156.73 369.92 172.86 373.77 171.15 371.84 152.67 364.83 153.82 374.93"/><polygon class="ah" points="163.03 382.61 179.37 388.62 168.8 387.36 163.03 382.61"/><polygon class="ah" points="193.48 443 233.69 452.74 232.27 448.66 193.48 443"/><polygon class="ah" points="14.47 360.19 53.48 342.63 71.74 359.52 43.29 361.57 76.18 363.63 77.47 364.83 46.89 363.63 42.38 371.84 14.47 360.19"/><polygon class="ah" points="48.41 337.93 30.03 342.63 50.95 340.28 48.41 337.93"/><polygon class="ah" points="97.05 313.77 117.3 313.77 114.74 310.15 91.29 309.43 97.05 313.77"/><polygon class="ah" points="68.47 422.51 91.29 429.08 112.01 421.04 77.17 420.77 115.52 419.68 117.36 418.96 82.58 419.68 68.47 422.51"/><polygon class="ah" points="103.42 385.6 110.24 384.19 100.49 372.61 94.12 372.61 103.42 385.6"/><polygon class="ah" points="92.11 369.8 98.86 370.67 96.02 367.3 89.66 366.37 92.11 369.8"/></g><polygon class="y" points="68.56 384.65 77.47 385.91 96.5 397.51 68.56 384.65"/><polygon class="y" points="73.74 424.02 66.41 425.62 95.72 434.29 73.74 424.02"/><polygon class="y" points="41.57 440.53 49.59 446.67 62.49 448.66 41.57 440.53"/><polygon class="z" points="12.86 359.52 12.86 422.51 33.03 429.08 28.89 368.52 50.95 381.36 55.96 425.01 58.14 424.57 53.65 381.36 55.96 381.36 60.89 424.02 62.49 422.51 66.41 384.65 77.47 390.79 82.58 419.68 97.55 416.69 97.17 398.16 61.86 380.1 60.03 379.21 12.86 359.52"/><polygon class="z" points="33.69 437.48 33.69 459.45 32.75 459.45 31.86 432.39 29.72 430.94 31.7 459.52 23.9 459.45 19.8 426.9 22.77 459.45 22.07 459.45 17.95 424.86 47.66 438.64 46.52 442.45 33.69 437.48"/><polygon class="z" points="98.86 450.55 98.86 448.08 65.95 434.29 135.91 459.52 126.15 459.45 126.15 456.9 123.44 455.89 123.44 458.57 98.86 450.55"/><polygon class="z" points="57.95 322.07 104.68 387.36 78.16 354.2 71.74 359.52 61 349.58 65.84 337.93 64.99 336.39 59.38 348.08 55.96 344.92 60.35 327.41 57.95 322.07"/><polygon class="z" points="80.77 301.5 80.32 342.33 77.4 339.93 80.77 344.49 80.32 348.64 73.99 340.28 69.51 266.42 60.03 249.05 106.9 288.86 103.42 294.77 97.55 293.55 102.87 297.27 101.21 300.4 91.55 295.13 80.77 301.5"/><polygon class="y" points="66.9 372.03 72.38 371.49 64.56 367.81 66.9 372.03"/></g><polygon class="y" points="207.47 332.89 214.76 335.17 213.63 335.17 207.47 334.03 207.47 332.89"/><polygon class="y" points="211.97 325.17 212.89 325.5 212.89 324.88 211.45 324.88 211.97 325.17"/><polygon class="y" points="25.98 334.88 26.9 335.21 26.9 334.6 25.46 334.6 25.98 334.88"/><polygon class="y" points="190.94 414.22 191.86 414.56 191.86 413.94 190.42 413.94 190.94 414.22"/><polygon class="y" points="173.05 305.04 174.03 304.61 171.85 303.66 170.86 304.27 173.05 305.04"/><polygon class="y" points="80.31 445.28 81.29 444.85 79.11 443.91 78.12 444.52 80.31 445.28"/><polygon class="y" points="129.19 286.57 127.04 285.62 126.15 286.57 128.03 288.17 129.19 286.57"/><polygon class="y" points="15.99 347.53 13.85 346.58 12.96 347.53 14.84 349.13 15.99 347.53"/><polygon class="y" points="118.01 316.74 120.6 321.65 121.86 320.22 118.01 316.74"/><polygon class="y" points="119.93 401.21 120.6 403.56 123.82 403.73 119.93 401.21"/><polygon class="y" points="208.72 444.39 212.48 444.08 217.65 444.39 208.72 444.39"/><polygon class="y" points="215.71 439.74 215.71 438.7 217.65 435.55 217.65 440.53 215.71 439.74"/><polygon class="y" points="142.69 444.39 147.13 445.46 146.37 446.67 142.69 446.66 142.69 444.39"/><polygon class="y" points="160.53 435.63 160.53 436.29 168.47 438.79 160.53 435.63"/><polygon class="y" points="165.57 436.01 169.67 436.65 168.16 437.21 165.32 436.57 165.57 436.01"/><polygon class="am" points="174.17 411.8 210.26 415.89 211.8 417.63 192.98 414.25 174.17 411.8"/><polygon class="ao" points="175.39 414.39 183.9 412.91 184.39 413.13 175.62 414.56 175.39 414.39"/><polygon class="ad" points="82.53 440.53 128.64 428.61 130.07 429.97 106.72 434.57 96.5 437.29 83.25 440.53 82.53 440.53"/><polygon class="ab" points="58.35 443.59 81.06 446.35 84.66 449.13 110.18 454.12 111.55 454.69 84.33 449.14 81.71 446.98 79.78 446.28 58.97 443.88 58.77 445.13 58.35 443.59"/><polygon class="v" points="65.5 446.91 68.02 444.92 68.3 444.95 65.57 446.94 65.5 446.91"/><polygon class="ag" points="104.68 415.26 123.44 423.67 122.97 423.22 105 415.2 104.68 415.26"/><polygon class="af" points="157.25 427.04 174.79 438.63 200.94 446.67 222.05 459.52 226.29 459.52 200.94 445.91 186.47 442 169.67 435.09 157.16 426.69 157.25 427.04"/><polygon class="ac" points="155.79 421.34 160.98 429.35 160.43 428.88 159.89 427.78 155.85 421.54 155.79 421.34"/><polygon class="w" points="106.9 288.86 150.92 296.23 159.05 293.85 198.53 308.83 203.07 311.44 178.96 301.7 154.02 295.68 150.68 296.44 107.41 289.31 106.04 290.1 106.9 288.86"/><polygon class="u" points="116.56 297.27 122.7 291.83 123.62 291.98 118.63 295.57 116.7 297.4 116.56 297.27"/></g></g></g></g></g></g></svg>