<?xml version="1.0" encoding="UTF-8"?><svg xmlns="http://www.w3.org/2000/svg" xmlns:xlink="http://www.w3.org/1999/xlink" viewBox="0 0 1121.02 470.93"><defs><style>.n{fill:url(#m);}.n,.o,.p{mix-blend-mode:screen;}.o{fill:url(#f);}.q{fill:#fff;}.q,.r{fill-rule:evenodd;}.s{isolation:isolate;}.t{opacity:.2;}.p{fill:url(#g);}.r{fill:#635eb0;}</style><radialGradient id="f" cx="-1071.02" cy="308.66" fx="-1071.02" fy="308.66" r="22.95" gradientTransform="translate(1224.36 -2437.59) rotate(-90) scale(2.39 -2.37)" gradientUnits="userSpaceOnUse"><stop offset="0" stop-color="#6a229d"/><stop offset=".16" stop-color="#672198"/><stop offset=".32" stop-color="#5e1e8c"/><stop offset=".48" stop-color="#501977"/><stop offset=".64" stop-color="#3d135a"/><stop offset=".81" stop-color="#240b35"/><stop offset=".97" stop-color="#050108"/><stop offset="1" stop-color="#000"/></radialGradient><radialGradient id="g" cx="-1070.53" cy="307.78" fx="-1070.53" fy="307.78" r="19.58" gradientTransform="translate(1222.76 -2438.77) rotate(-90) scale(2.39 -2.37)" gradientUnits="userSpaceOnUse"><stop offset="0" stop-color="#0037a4"/><stop offset=".15" stop-color="#00359f"/><stop offset=".31" stop-color="#003193"/><stop offset=".47" stop-color="#002a7f"/><stop offset=".63" stop-color="#002162"/><stop offset=".79" stop-color="#00143d"/><stop offset=".95" stop-color="#000511"/><stop offset="1" stop-color="#000"/></radialGradient><radialGradient id="m" cx="-1051.02" cy="228.69" fx="-1051.02" fy="228.69" r="52.76" gradientTransform="translate(-2021.52 -417.61) rotate(-180) scale(2.39 -2.37)" gradientUnits="userSpaceOnUse"><stop offset="0" stop-color="#0037a4"/><stop offset=".13" stop-color="#002d88"/><stop offset=".43" stop-color="#001a4e"/><stop offset=".68" stop-color="#000c23"/><stop offset=".88" stop-color="#000309"/><stop offset="1" stop-color="#000"/></radialGradient></defs><g class="s"><g id="a"><g id="b"><g id="c"><g id="d"><g id="e"><ellipse class="o" cx="491.57" cy="126.52" rx="54.47" ry="54.94" transform="translate(54.52 384.67) rotate(-45)"/><ellipse class="p" cx="492.22" cy="124.22" rx="46.47" ry="46.87" transform="translate(56.33 384.42) rotate(-45)"/><path class="q" d="M451.38,124.38c0,22.39,18.15,40.55,40.55,40.55,19.03,0,35-13.11,39.37-30.79,.77-3.12,1.18-6.39,1.18-9.75,0-1.49-.08-2.95-.24-4.4-2.19-20.33-19.4-36.15-40.31-36.15-22.39,0-40.55,18.15-40.55,40.55Z"/><g class="t"><path class="r" d="M502.17,151.79c-.51,1.09-.85,2.05-1.72,2.95-.94,.98-1.68,1.16-2.9,1.52-.71,.21-.86,.46-1.77,.44-.59,0-1.42-.15-1.99-.02-1.29,.29-1.97,1.43-3.41,1.51-1.37,.07-2.25-.38-3.44-.74-1.12-.34-2.42-.83-3.45-1.22-1.13-.43-2.14-.73-3.31-1.11-1.26-.4-1.9-1.24-3.47-.8-.1,.58,.04,1.51-.67,1.8-.49,.2-1.31-.32-1.84-.52-1.38-.53-2.62-.82-3.93-1.37-.63-.27-1.09-.25-1.73-.72-.61-.46-1.28-.8-1.92-1.23-1.19-.79-2.35-1.65-3.53-2.46-2.27-1.54-3.73-3.66-5.11-5.9-.73-1.18-1.14-2.47-1.6-3.82-.56-1.65-.37-2.12,.73-3.47,1.99,.83,2.77-.4,2.22-2.53-.48-1.86-.69-4.33-.27-6.28,.07-.35,.34-.59,.39-1.08,.06-.54-.05-.94,.1-1.48,.23-.89,.39-1.5,.38-2.46,0-.96-.13-2.02,.11-2.95,.15-.59,.36-.84,.39-1.47,.03-.65-.08-1.22,.1-1.85,.47-1.64,1.97-2.1,3.33-2.57,.92-.32,1.39-.63,1.98,0,.63,.67,.47,1.59,.48,2.46,.01,1.64-1.05,3.09-1.96,4.42-.41,.59-1.12,1.17-1.02,1.98,.06,.45,.61,.51,.58,.97-.04,.55-.63,.71-.92,1.09-2.34,3.06,2.07,5.75,4.18,7.38,1.2,.93,3,1.4,3.46,2.94,.49,1.64-.64,3.02-1.24,4.42-.62,1.47-1.17,4.05-.26,5.42,.39,.59,1.15,.94,1.73,1.22,.86,.41,1.19,.93,1.95,1.49,1.24,.9,2.77,1.2,4.31,1.1,.98-.06,1.69-.46,2.45-.99,.59-.41,1.38-1.16,2.08-1.36,.5-.14,.87-.04,1.38-.1,.69-.08,.83-.37,1.43-.53,1.04-.27,1.79,.47,2.61,.88,.7,.35,1.52,.86,2.36,.64,.81-.21,1.76-.73,2.54-.9,1.87-.39,4.91-.52,6.41,.75,.76,.64,1.02,1.54,1.7,2.22s1.9,.82,2.1,2.32Z"/><path class="r" d="M464.85,109.06c1.8,.04,3.45-1.32,4.92-2.33,1.21-.83,2.47-2.15,3.06-3.44,.18-.39,.23-.71,.37-1.1,.03-.09,.47-1.25,.47-1.29-.02-.68-.57-1.5-1.08-2.02-1.46-1.51-3.7-.42-5.17,.49-1.39,.86-2.73,1.83-3.9,2.95-.57,.54-1.34,1.03-1.74,1.71-.53,.9-.38,1.99-.36,3.08,.02,1.66-2.15,3.57,.48,3.94,1.03,.14,4.2-.73,4.43-1.97h-1.47Z"/><path class="r" d="M497.26,161.62c.45,.5,.97,.15,1.48,0,.49-.15,.91-.24,1.47-.24,1.08,0,2.05,0,3.07-.25,.97-.24,1.9-.38,2.82-.61,.37-.09,.72-.3,1.1-.38,.23-.05,.49,.03,.73-.01,.11-.02,.12-.15,.2-.17,.19-.04,.37-.01,.56-.05,.93-.16,1.8-.44,2.63-.69,.39-.12,.75-.13,1.11-.35,.38-.23,.89-.49,1.23-.74,1.32-.98,2.78-1.8,3.98-3.02,1.14-1.14,2.31-2.19,3.5-3.25,.28-.25,.5-.57,.79-.8,.32-.25,.62-.37,.92-.67,.62-.63,1.1-1.32,1.6-2.03,.97-1.4,2.22-2.55,2.98-4.08,.37-.74,.7-1.46,1.14-2.17,.28-.45,.55-1,.74-1.49,.15-.37,.45-.81,.55-1.16,.15-.53,.15-1.03,.29-1.55,.06-.22,.21-.37,.26-.59,.07-.28-.08-.6-.02-.88,.05-.25,.21-.36,.27-.59,.07-.28-.08-.6-.02-.88,.05-.25,.21-.36,.27-.59,.08-.31-.1-.69-.03-1.01,.06-.23,.21-.34,.27-.59,.05-.26,0-.61,0-.87,0-.63,.22-1.12,.25-1.72,.03-.55,.12-1.32,0-1.85-.05-.25-.21-.36-.27-.59-.08-.32,.08-.65-.03-.98-.66-.17-.45,1.23-.45,1.58,0,.63-.26,.98-.25,1.6,.02,.76-.3,.86-.75,1.42-.19,.24-.64,.71-.74,1.02-.06,.21-.06,.55-.11,.75-.07,.25-.13,.43-.12,.74,.01,.6,.04,.9-.43,1.29-.32,.27-.88,.6-1.28,.69-.56,.13-1.05,.12-1.62,.22-.26,.05-.35,.21-.59,.27-.31,.07-.64-.12-.95,.04-.29,.15-.65,.72-.73,.99-.16,.53-.05,.96,.19,1.42,.09,.16,.15,.33,.25,.49,.11,.18,.34,.36,.44,.54,.46,.85-.21,2.23-.39,2.95-.07,.28-.49,1.13-.26,1.38,.23,.26,1.62,.04,1.89-.12,.15,.31-.14,.91-.23,1.24-.11,.38-.29,.94-.52,1.31-.45,.73-1.25,1.41-2,1.81-.5,.26-.8,.4-.89-.27-.04-.3,.05-.47-.11-.75-.11-.2-.31-.22-.39-.47-.08-.27,.09-.61,.02-.88-.05-.2-.19-.33-.23-.5-.14-.58,.09-1.23,0-1.82-.2-1.18-1.08-1.71-2.1-1.96-1.04-.26-2.07-.55-3.06-.98-1.11-.49-2.3-.67-3.45-.31-.94,.3-1.69,.86-2.55,1.32-.4,.21-.75,.3-1.14,.45-.45,.17-.92,.34-1.37,.47-.81,.23-1.75,.37-2.49,.81-.7,.42-1.65,.98-2.15,1.66-.48,.65-.93,1.99-.59,2.81,.26,.62,1.19,1.16,1.64,1.68,.76,.88,.55,1.47,0,2.39-.2,.33-.56,.77-.65,1.13-.13,.48-.05,1.2-.02,1.7,.02,.47,.17,.78,.43,1.17,.24,.37,.8,.59,1,.96,.18,.33,.01,.5-.13,.76-.04,.07-.16,.1-.2,.17-.09,.18-.03,.34-.11,.51-.24,.56-.73,.48-1.23,.61-.52,.14-.98,.08-1.48-.12-.3-.12-.4-.21-.72-.26-.36-.06-.53,.14-.8,.19-.6,.12-.95-.29-1.55-.32-.48-.03-.78,.19-1.16,.56-.31,.31-.75,.83-.69,1.3,.05,.48,.66,.78,1,1.22Z"/><path class="r" d="M501.93,143.2c-.15-.09-.28-.15-.43-.21-.38,.44-.81,.89-1.29,1.19-.72,.45-1.07,.17-1.24-.6-.08-.39,.13-.64,.2-.92,.08-.33,0-.67,.35-.88,.48-.28,1.88-.14,1.67,.69l.74,.74Z"/><path class="r" d="M525.5,111.52c.11,.19,.26,.26,.45,.23,.11-.42,.1-1.13,.02-1.56-.04-.23-.19-.34-.23-.63-.03-.24,0-.45-.05-.69-.07-.3-.32-.79-.38-1.09-.1-.48-.12-.73-.31-1.17-.17-.4-.27-.92-.45-1.37-.16-.41-.36-.71-.58-1.09-.45-.75-.83-1.47-1.29-2.22-.82-1.32-1.73-2.64-2.97-3.68-.42-.35-.9-.62-1.34-.93-.15-.11-.27-.28-.42-.37-.14-.09-.37-.14-.5-.23-.38-.28-1.49-1.4-1.99-1.13,.35,.91,.95,1.83,1.38,2.72,.51,1.03,1.45,.99,2.21,1.72,1.18,1.15-.79,1.63-1.47,2.07-.67,.44-.68,1.07-.68,1.79,0,.67-.05,1.21-.25,1.84-.08,.26-.21,.59-.26,.86,0,.17,.02,.34,.03,.5-.02,.13-.08,.23-.2,.29-.15,.7,.14,1.12,.38,1.72,.23,.59,.38,1.15,.86,1.6,.48,.45,1.01,.3,1.66,.31,.41,0,.6-.1,.98-.19,.25-.06,.6-.21,.79-.24,.29-.06,.58-.05,.87-.11,.3-.06,.33-.24,.74-.13,.43,.11,.83,.59,1.27,.69,.62,.14,1.32-.15,1.94,.03,.01,.07,.03,.14-.2,.45Z"/><path class="r" d="M479.56,142.88c.71-.02,1.64,.81,2.07,1.42,.58,.83-.5,1.7-1.1,2.11-.22,.15-.43,.31-.69,.42-.15,.06-.49,.29-.63,.29-.43,0-.6-1.03-.76-1.38-.52-1.08,.31-1.86,1.12-2.5v-.37Z"/><path class="r" d="M476.08,144.53c.05,.04,.1,.08,.15,.12,.24-.52-.14-1.08-.18-1.57-.35-.02-1.08,.64-1.09,.99,0,.6,.89,.63,1.3,.64l-.18-.18Z"/><path class="r" d="M469.66,120.69c.21-.89,1.46,.1,1.79,.41,.23,.21,.46,.42,.6,.68,.18,.35,.16,.78,.18,1.2,.01,.45,.19,.82,.18,1.28,0,.49-.04,.93-.18,1.38-.24,.79-.81,1.37-1.47,1.82-.33,.23-.74,.4-1.1,.6-.48,.26-.48,.37-.98,.12-.57-.29-1.18-.57-1.63-1.03-.53-.54-1.04-1.05-1.42-1.7-.48-.83,.03-1.47,.46-2.2,.5-.86,1.26-1.58,1.97-2.34,.19-.2,.48-.62,.72-.74,.47-.24,.97,.16,.88,.51Z"/><path class="r" d="M469.85,117.39s.1-.02,.15-.04c.02-.24,.52-1,.19-1.22-.25-.17-.65,.34-.79,.52-.25,.3-.47,.84-.15,1.16,.31,.32,.91,.05,.79-.42h-.18Z"/><path class="r" d="M477.91,157.54c.25-.3,1.01-.43,1.38-.35,.47,.1,.83,.27,1.28,.35,.91,.16,2.07,.62,2.85,1.1,1.14,.71,3.15,2.69,1.21,3.69-.79,.41-1.77,.33-2.68,.34-.46,0-.72-.19-1.19-.18-.51,0-.92-.17-1.37-.28-.82-.2-1.6-.44-2.38-.77-.7-.3-1.25-.8-1.79-1.33-.68-.66-.77-1.55-.09-2.25,.41-.41,.76-.32,1.33-.32,.55,0,1.1,0,1.47,0Z"/><path class="r" d="M472.96,157.18c.08,.14,.2,.2,.34,.17,.2-.41-.83-1.07-1.12-1.22-.49-.24-1.43-.77-1.61,.04-.12,.52,.46,1.23,.92,1.48,.51,.29,1.53,.01,1.66-.65l-.18,.18Z"/><path class="r" d="M457.74,122.52c.05,.01,.1,.02,.15,.03,.22,.73-.12,1.47-.16,2.17-.04,.73,0,1.47,0,2.2s0,1.47,0,2.2c0,.3,.02,.59-.04,.88-.03,.12-.12,.23-.15,.4-.03,.23,0,.5,0,.74,0,.35,.03,.72-.04,1.06,0,.03-.13,.36-.14,.41-.07,.21,0,.23-.13,.42-.34,.5-.98,.83-1.53,.55-.45-.23-.79-.58-1.26-.78-.67-.29-.97-.66-1.29-1.28-.26-.52-.37-1.09-.54-1.66-.05-.16-.16-.19-.2-.35-.04-.16,0-.35-.03-.52-.03-.12-.13-.23-.15-.4,0-.13,.01-.25,.01-.38-.01-.1-.06-.17-.15-.21-.07-.29-.02-.57-.04-.88-.02-.39-.17-.7-.18-1.1-.02-.39-.19-.69-.19-1.1,0-.37,0-.73,0-1.1,0-.73,.01-1.47,0-2.2,0-.37,.11-.58,.18-.91,.07-.36,.09-.75,.17-1.11,.05-.25,.28-.53,.34-.76,.09-.37,.14-.55,.36-.88,.4-.6,.63-.86,1.28-1.14,.62-.27,1.46-.17,2.03,.27,.19,.15,.53,.45,.6,.68,.04,.15,0,.36,.03,.52,.04,.2,.15,.32,.14,.59,0,.71-.17,1.71,0,2.39,.08,.34,.31,.73,.42,1.09,.14,.44,.14,.81,.5,.18Z"/><path class="r" d="M458.66,113.17c.48-.15,.74,.94,.73,1.28,0,.29,.09,.63-.17,.83-.18,.13-.72,.16-.93,.09-.58-.17-.54-1-.54-1.48,0-.53,.44-1.23,1.1-1.1l-.18,.37Z"/><path class="r" d="M521.55,112.44s.02-.1,.04-.15c.19-.02,.29-.16,.44-.2,.2-.05,.42-.02,.63-.02,.45,0,.7-.14,1.1-.19,.2-.02,.44,0,.65,0,.24,.01,.33,.11,.5,.14,.4,.09,.72,.05,1.06,.31,.55,.4,.96,1.06,1.28,1.64,.4,.72,.73,1.45,.73,2.31,0,.37,0,.68-.2,.99-.22,.32-.34,.54-.48,.89-.33,.78-.63,1.05-1.51,1.05-.8,0-1.53-.45-2.2-.82-.31-.17-.57-.42-.85-.63-.24-.17-.52-.3-.72-.57-.47-.65-.54-1.49-.73-2.21-.1-.38-.17-.94-.08-1.36,.02-.08,.11-.09,.13-.15,.04-.14,0-.29,.04-.42,.06-.21,.25-.4,.19-.64Z"/><path class="r" d="M519.54,113.9c.47-.01-.17-1.31-.69-1.25-.44,.06-.84,.79-.95,1.17-.45,1.64,2.03,1.77,2,.26l-.37-.18Z"/><path class="r" d="M513.49,116.84c.04,.39,.42,.62,.51,.96,.09,.35-.06,.64-.27,.93-.17,.23-.48,.58-.79,.51-.3-.06-.49-.48-.72-.66-.48-.36-1.34-.73-.74-1.46,.24-.29,.65-.41,1.01-.46,.54-.08,.78,.07,1.19,.37l-.18-.18Z"/><path class="r" d="M526.14,133.16c.68,.16,.62-.87,.52-1.26-.29-.05-.6-.24-.89-.22-.3,.02-.83,.26-1.06,.43-.53,.37-.82,.99-.51,1.61,.2,.39,1.09,.98,1.53,.69,.39-.26,.6-1.2,.59-1.61l-.18,.37Z"/><path class="r" d="M474.43,93.74c.17-.33,.29-.48,0-.74-.24-.21-.58-.23-.88-.14-.43,.13-.89,.66-1.19,1.01-.16,.19-.45,.61-.47,.83-.02,.27,.11,.5,.28,.74,.29,.4,.76,.74,1.11,1.1,.53,.54,.85,.23,1.28-.27,.34-.4,.61-.85,.92-1.28,.08-.1,.36-.62,.37-.74,.03-.22-.09-.49-.23-.69-.31-.42-.91-.94-1.38-1.1l.18,1.28Z"/><path class="r" d="M470.03,95.2c.05,.01,.1,.02,.15,.03,.15,.48-.04,.79-.51,.89-.42,.09-1.03-.08-1.12-.46-.09-.37,.28-.73,.56-.93,.43-.32,.82-.38,.92,.28v.18Z"/><path class="r" d="M472.78,142.14c-.06,.18,.17,.69,.22,.88,.08,.26,.21,.61,.33,.87,.13,.28,.21,.59,.27,.92,.06,.34,.23,.6,.28,.91,.13,.69-.68,1.17-1.3,1.02-.55-.13-1.05-.56-1.5-.89-.3-.22-.38-.17-.55-.55-.15-.32-.21-.64-.32-.97-.1-.33-.19-.52-.19-.91,0-.36-.04-.75,.04-1.1,.42-1.73,2.31-.62,2.71,.55v-.73Z"/><path class="r" d="M467.28,154.06c.18-.65-1.04-1.1-1.47-1.1-.5,0-.59,.06-.78,.5-.17,.4-.22,.68,.04,1.06,.39,.55,1.46,.88,2.1,.63,.77-.3,.43-1.32-.26-1.45l.37,.37Z"/><path class="r" d="M475.16,140.86c.21-.05,.5-.34,.56-.54,.05-.16-.02-.35,.03-.52,.04-.14,.12-.23,.15-.4,.02-.18-.05-.38-.01-.55,.04-.2,.17-.35,.2-.55,.06-.35-.08-.75-.02-1.1,.06-.33,.38-.71,.16-1.06-.19-.29-.58-.26-.88-.22-.32,.04-.59,.15-.91,.23-.38,.09-.85,.29-1.18,.51-.52,.35-1.07,.74-1.21,1.37-.13,.59-.04,1.58,.1,2.12,.11,.46,.34,1.1,.82,1.38,.48,.28,1.57,.12,2.02-.1l.18-.55Z"/><path class="r" d="M470.95,140.49s0-.08,0-.12c.17,.89-.89,.79-1.11,.13-.25-.75,.95-.98,1.11-.19v.18Z"/></g></g></g></g></g></g><g id="h"><g id="i"><g id="j"><g id="k"><g id="l"><ellipse class="n" cx="494.72" cy="125.24" rx="126.31" ry="125.24"/></g></g></g></g></g></g></svg>