<?xml version="1.0" encoding="UTF-8"?><svg xmlns="http://www.w3.org/2000/svg" xmlns:xlink="http://www.w3.org/1999/xlink" viewBox="0 0 1000 400"><defs><style>.cls-1{fill:#b29adb;mix-blend-mode:soft-light;}.cls-1,.cls-2,.cls-3,.cls-4{fill-rule:evenodd;}.cls-2{fill:url(#_Áåçûìÿííûé_ãðàäèåíò_68);}.cls-5{isolation:isolate;}.cls-3{fill:#8674a5;}.cls-3,.cls-4{mix-blend-mode:multiply;}.cls-4{fill:#947abf;}</style><linearGradient id="_Áåçûìÿííûé_ãðàäèåíò_68" x1="548.5164" y1="400" x2="548.5164" y2="137.4211" gradientTransform="translate(1115.73) rotate(-180) scale(1 -1)" gradientUnits="userSpaceOnUse"><stop offset="0" stop-color="#92c2ff"/><stop offset="1" stop-color="#5e7cff"/></linearGradient></defs><g class="cls-5"><g id="mountain_3"><g id="mountain_3-2"><g id="Layer_39"><g id="Layer_19"><g id="mountain_back"><polygon class="cls-2" points="833.4084 400 635.4362 242.1609 632.2966 242.7697 631.4531 241.4767 520.742 137.4211 514.0586 138.3522 490.2486 170.0227 301.0189 400 833.4084 400"/><path class="cls-4" d="M661.8137,400H301.0237l178.73-217.23-22.73,36.88,57.03-81.3,6.69-.93,111.55,105.35-29.63-20.46-19.74-15.42,151.11,193.11h-57.83l-126.43-193.11,3.3836,15.42,46.2464,77.69-6.16-21.92,68.57,121.92Zm-169.43-219.76l12.33-10.61,7.13,13.04,.41-26.12-19.87,23.69Zm22.2,7.21l-18.28,25.33,21.22-20.2-2.94-5.13Zm21.76,32.2l-13.73-19.65-65.59,90.24,68.73-83.35,68.73,101.61-58.14-88.85Z"/><polygon class="cls-1" points="520.742 137.4211 504.7137 169.6316 507.1787 174.5579 554.7663 257.4211 536.3453 251.405 513.7737 283.2132 416.5979 400 301.0189 400 514.0586 138.3522 520.742 137.4211"/><polygon class="cls-3" points="549.7763 206.8947 529.9032 156.555 559.4611 191.9895 582.9237 260.79 549.7763 206.8947"/></g></g></g></g></g></g></svg>