<?xml version="1.0" encoding="UTF-8"?><svg xmlns="http://www.w3.org/2000/svg" viewBox="0 0 1121.02 470.93"><defs><style>.f{isolation:isolate;}.g{fill:#8674a5;mix-blend-mode:multiply;}.g,.h{fill-rule:evenodd;}.h{fill:#7e81fd;}</style></defs><g class="f"><g id="a"><g id="b"><g id="c"><g id="d"><g id="e"><polygon class="h" points="690.81 459.52 555.32 337.04 547.57 337.04 477.62 271.22 452.7 259.52 430.87 280.31 391.42 232.56 375.91 224.23 266.36 59.52 112.78 59.52 12.78 59.52 12.78 459.52 690.81 459.52"/><path class="g" d="M12.56,248.28l.22-1.31,75.75-53.51,79.39-56.07,.45-.32-.47,.55-9.17,10.82L12.78,259.74l-2.44,1.86,2.22-13.32Zm-2.22,13.32l2.44-1.76,154.37-111.4,57.05,48.5-55.83-65.94-51.3,36.14L12.78,240.6v-111.38l181.43-49.08,2.05-4.03-46.33,10.94,48.27-14.77,6.49-12.76h7.16l41.12,65.14,64.65,118.98,18.37,26.82,5.18,.25-31.17-62.91,57.44,71.75,53.52,59.11-76.74-100.03-86.42-118.43-21.6-26.14-24.35-34.54h54.51l57.79,86.88-38.53-47.99,2.69-1.13,2.36,1.7-3.12-6.15-15.43-16.02-9.01-4.54,61.04,86.02-30.52-36.76,70.11,104.21-21.61-52.3,33.79,50.79-8.22,11.74,48.12,64.42-29.59-50.8,.73-10.48,32.65,37.41-30.31-37.39,2.12-6.57,39.45,47.75,21.83-20.79,24.92,11.69,38.66,36.38-33.13-28.54,1.2-.07-2.34-2.84-8.4-3.6,8.84,6.19-9.85-5.75,24.06,22.99-15.66-13.01,16.67,18.07,23.25,19.45-21.6-22.23,34.61,32.33,13.65,6.46h7.75l135.48,122.48h-19.96l-114.17-106.45-5.01,6.45,33.79,30.03-43.2-30.03-.24,17.09,78.24,82.91h-94.16l-48.63-51.37-61.65,7.3-84.5-93.46-68.73-72.65,60.78,67.59h0s91.43,111.62,91.43,111.62l68.37-6.72,36.09,37.69H12.78v-60.86l199.79-106.23-5.8-13.41-121.37,53.07,117.34-62.39-.64-5.31-1.36,.7-13.42,6.88,11.44-11.46-7.88-18.22,2.42-8.18L12.78,320.98l-2.44-59.38Zm98.39-127.79l-17.16,8.31,13.39-2.64,3.77-5.67Zm-19.37,45.19l13.57-11.86-34.1,20.52,20.53-8.66Zm101.12-91.51h0s-45.34,32.9-45.34,32.9l39.31-21.03,20.25,21.03,17.36,16.68-31.57-49.58Zm104.46,66.82l2.27,8.02,6.82-2.06-9.09-5.96Zm231.57,204.46l8.97-9.25-55.24-50.26,9.1,11.67-24.63-14.7-7.52-10.87-.67,4.41,8.19,6.46,61.8,62.54Zm-4.12,4.24h-9.61l4.76,5.01,4.85-5.01Zm-58.44-9.18l13.52,2.76-14.77-10.13-19.59,21.01,20.84-13.64Zm-2.83-16.81l49.72,37.91,5.41-5.58-57.8-54.56-3.51-14.52-28.64,25.54,28.3-21.06,.34,4.55-29.65,26.58-1.75,17.35,37.58-16.21Zm-66.14,16.05l-1.58-2.66-6.95-3.95,8.53,6.61Zm4.71-22.59l-2.06-8.11-20.01-20.15,22.07,28.26Zm-42.23-21.75l6.81,2.2-13.5-13.19-5.24-1.51,11.93,12.5Zm-95.13-152.2l-21.22-17.05,25.86,27.66-4.64-10.61Zm8.74,71.86l21.83,11.37-12.36-15.53-31.29-31.84,21.82,36Zm60.25,180.72l-23.5-36.59-6.57-13,62.49,55.93-91.62-94.47-50.07-23.24,109.27,111.37ZM204.69,59.52L12.78,99.36V59.52H204.69Z"/><polygon class="g" points="452.7 259.52 457.18 285.36 454.94 300.27 469.5 386.97 496.79 459.52 412.41 459.52 418.98 374.54 422.51 363.43 430.87 280.31 452.7 259.52"/><path class="g" d="M204.69,59.52l-6.49,12.76-1.94,3.83-2.05,4.03-3.73,7.35h0s-6.03,11.87-6.03,11.87l-16.07,31.64-51.3,36.14-28.54,26.32,79.39-56.07-.02,.23-.75,10.82,95.44,100.9,68.73,72.65-7.94-5.05h0s-130.07-82.83-130.07-82.83l-2.42,8.18,7.88,18.22,1.98,4.58,2,4.61,4.03,9.32,5.8,13.41,72.26,167.09H12.78v-60.86l196.12-104.73L12.78,363.83V59.52H204.69ZM68.83,187.66l20.53-8.66,13.57-11.86-34.1,20.52Zm36.13-48.18l3.77-5.67-17.16,8.31,13.39-2.64Z"/><polygon class="g" points="112.02 184.06 112.78 183.57 112.78 183.48 112.02 184.06"/><polygon class="g" points="555.33 337.04 531.02 377.7 499.57 385.22 510.84 374.93 547.58 337.04 555.33 337.04"/><polygon class="g" points="375.92 224.23 391.42 232.56 386.23 249.59 377.54 266.42 367.7 235.97 375.92 224.23"/><polygon class="g" points="422.51 363.43 396.11 338.66 364.27 310.93 418.98 374.54 422.51 363.43"/><polygon class="g" points="278.51 208.82 219.97 133.81 258.05 167.14 278.51 208.82"/><polygon class="g" points="272.12 320.98 326.77 342.73 412.41 437.19 412.41 459.52 272.12 320.98"/><polygon class="g" points="198.2 72.28 149.93 87.05 196.26 76.11 198.2 72.28"/><polygon class="g" points="193.3 234.11 190.88 242.29 206.77 279.02 12.78 363.84 12.78 398.66 212.57 292.43 245.25 368.02 140.57 459.52 248.08 374.54 158.73 459.52 12.78 459.52 12.78 331.74 193.3 234.11"/><polygon class="g" points="469.5 386.97 415.82 415.45 477.47 408.15 469.5 386.97"/><polygon class="g" points="483.18 421.83 496.79 459.52 412.41 459.52 414.81 428.55 483.18 421.83"/><polygon class="g" points="454.94 309.3 425.29 335.88 426.3 325.81 454.6 304.75 454.94 309.3"/><polygon class="g" points="530.39 383.38 499.57 388.23 487.44 415.45 530.39 383.38"/><polygon class="g" points="193.3 234.11 12.78 331.74 12.56 342.73 190.88 242.29 193.3 234.11"/></g></g></g></g></g></g></svg>