<?xml version="1.0" encoding="UTF-8"?><svg xmlns="http://www.w3.org/2000/svg" xmlns:xlink="http://www.w3.org/1999/xlink" viewBox="0 0 1000 400"><defs><style>.cls-1{fill:#b29adb;mix-blend-mode:soft-light;}.cls-1,.cls-2,.cls-3{fill-rule:evenodd;}.cls-4{isolation:isolate;}.cls-2{fill:#8674a5;mix-blend-mode:multiply;}.cls-3{fill:url(#_Áåçûìÿííûé_ãðàäèåíò_107);}</style><linearGradient id="_Áåçûìÿííûé_ãðàäèåíò_107" x1="496.9861" y1="400" x2="496.9861" y2="102.8105" gradientTransform="translate(1115.73) rotate(-180) scale(1 -1)" gradientUnits="userSpaceOnUse"><stop offset="0" stop-color="#92c2ff"/><stop offset=".1198" stop-color="#83aef1"/><stop offset=".5335" stop-color="#5470c5"/><stop offset=".7891" stop-color="#5459a9"/><stop offset="1" stop-color="#544a97"/></linearGradient></defs><g class="cls-4"><g id="mountain_2"><g id="mountain_2-2"><g id="Layer_38"><g id="Layer_18"><g id="mountain_2-3"><polygon class="cls-3" points="350.869 400 554.7663 215.4842 559.5663 212.7053 646.1137 102.8105 650.1558 102.8105 655.9663 106.8526 677.9453 140.2693 739.4611 222.3053 787.5874 247.6947 791.3768 248.4526 886.6189 400 350.869 400"/><path class="cls-2" d="M554.7637,215.48l-6,10.36-89.17,75.77,95.17-86.13Zm-95.17,86.13l82.87-64.9-3.3,20.12-30.27,20.69,29.33-14.98-3.39,20.67-111.47,51.19,36.23-32.79Zm-87.87,79.52l132.99-46.77,171.96-89.13,27.55,41.71-28.02-46.18v-.01l-153.59,78.94-123.03,36.23,16.45-14.89,34.54-12.32,84.26-45.5,5.52-15.75,.01-.03,8.2-23.37,18.65-10.13-17.34,6.41,9.69-27.63,86.55-109.9h4.04l5.81,4.04-8.23-.48-24.99,41.84,27.47-36.42,5.75-4.94,9.6,15.56,33.35,54.04-36.76-51.16-4.77,2.21-.15,.07,.45,.58,76.71,100.19,5.07-6.03,51.91,26.14,95.25,151.55-95.25-145.48-3.41,2.31,45.44,96.21v-16.29l31.87,63.25h-22.6l-69.06-92.05-93,11.74-22.9-36.48,20.23,40.19,91.83,10.32,39.79,66.28h-12.5l-10.85-17.49,5.16,17.49h-66.69l-20.09-23.46,14.03,23.46h-95.88l3.13-4.34,3.5-4.87-69.91-56.43,7.75,10.35,58.66,50.95-53.28-39.74-126.82,44.08h-94.9l20.85-18.87Zm124.58-69.98l23.49-6.85,7.58-6.85-31.07,13.7Zm79.83-30.49l97.53-64.28h.01l8.95,9.46-9.33-13.06-63.99,38.32-33.17,19.86v9.7Zm70.49-61.01l-13.29,2.66-13.29,15.91-11.32,4.8-20.84,17.77,32.16-22.57,26.58-18.57Zm-27.88-42.44l12.59-8.46,30.48-31.33-43.07,39.79Zm48.09-29l-10.36,8.34-72.36,57.97-.02,.02-1.17,.94,77.55-53.31,6.61,2.54,23.87,33.72-24.12-50.22Zm111.48,128.15l34.66,43.33-27.49-52.26-19.12,1.28,11.95,7.65Zm-91.54,34.79l14.79-2.65-11.81-1.49-11.81-9.94,8.83,14.08Zm110.29,77.13l-26.53-46.59-10.41,3.02,36.94,43.57Zm-220.93-23.27l3.68,2.76,42.93,32.23h-163.15l116.54-34.99Zm262.99,34.99h-5.72l-48.85-67.8,54.57,67.8Zm-443.08-40.88l108.67-30.41-117.87,38.74,9.2-8.33Z"/><path class="cls-1" d="M579.8137,367.77l19.63,32.23h-248.57l20.85-18.87,15.12-13.68,9.2-8.33,3.54-3.2,16.45-14.89,7.33-6.63,36.23-32.79,95.17-86.13,4.8-2.77,86.55-109.9,11.12,24.76,4.58,9.85,5.02,10.79-10.36,8.34,4,5.62,8.84,12.42,3.98,38.19,.37,3.6,2.54,24.37v.01l.47,4.47-88.77,56.38,6.58,6.89-35.02,25.86,13.13,21.56,7.22,11.85Zm-110.08-61.78l20.76-5.99,32.12-16.79-52.88,22.78Z"/><polygon class="cls-2" points="791.3737 248.45 787.9637 256.83 785.4837 267.43 766.3637 268.71 778.3137 276.36 769.7768 333.7158 695.1242 359.1053 704.5979 376.5368 709.1453 400 622.7453 400 704.2189 286.94 717.4821 248.45 739.4637 222.31 791.3737 248.45"/><polygon class="cls-2" points="396.0437 359.12 399.5837 355.92 399.5437 355.93 396.0437 359.12"/><polygon class="cls-2" points="599.4407 315.41 632.7247 359.12 626.5347 334.4 599.4407 315.41"/><polygon class="cls-2" points="778.3137 276.36 704.2189 286.94 689.7537 307.01 707.0595 308.5 773.6137 307.95 778.3137 276.36"/><polygon class="cls-2" points="766.3637 268.71 714.5945 256.83 717.4821 248.45 739.4637 222.31 791.3737 248.45 785.4837 267.43 766.3637 268.71"/><polygon class="cls-2" points="657.4821 262.545 618.7487 286.94 641.8189 278.08 657.4821 262.545"/><polygon class="cls-2" points="548.7637 225.84 554.7663 215.4842 469.7381 292.43 548.7637 225.84"/><polygon class="cls-2" points="676.6737 245.23 587.9037 301.61 507.1787 333.0823 676.6737 245.23"/></g></g></g></g></g></g></svg>