<?xml version="1.0" encoding="UTF-8"?><svg xmlns="http://www.w3.org/2000/svg" xmlns:xlink="http://www.w3.org/1999/xlink" viewBox="0 0 1121.02 470.93"><defs><style>.u{fill:url(#t);}.u,.v,.w,.x,.y,.z,.aa,.ab,.ac,.ad,.ae,.af,.ag,.ah,.ai,.aj,.ak,.al,.am,.an,.ao,.ap,.aq{fill-rule:evenodd;}.v{fill:url(#o);}.w{fill:url(#s);}.ar{isolation:isolate;}.x{fill:#655cc4;}.y{fill:#2f4496;}.z{fill:#ae9aff;mix-blend-mode:multiply;}.z,.as{opacity:.5;}.aa{fill:url(#j);}.ab{fill:url(#n);}.ac{fill:url(#r);}.as,.ah,.ak,.aq{mix-blend-mode:soft-light;}.ad{fill:url(#m);}.ae{fill:#d0c0cc;}.af{fill:url(#q);}.ag{fill:url(#p);}.ah{fill:#a5a1c7;}.ai{fill:url(#h);}.aj{fill:url(#f);}.ak{fill:#b8b4de;}.al{fill:url(#g);}.am{fill:#1a205c;}.an{fill:url(#k);}.ao{fill:url(#i);}.ap{fill:url(#l);}.aq{fill:#b0abd4;}</style><linearGradient id="f" x1="729.32" y1="459.52" x2="729.32" y2="296.23" gradientUnits="userSpaceOnUse"><stop offset="0" stop-color="#170d36"/><stop offset="1" stop-color="#13062e"/></linearGradient><linearGradient id="g" x1="605.9" y1="325.96" x2="1012.86" y2="325.96" gradientUnits="userSpaceOnUse"><stop offset="0" stop-color="#110b42"/><stop offset="1" stop-color="#181136"/></linearGradient><linearGradient id="h" x1="872.15" y1="188.13" x2="934.44" y2="188.13" xlink:href="#g"/><linearGradient id="i" x1="812.61" y1="195.71" x2="831.43" y2="195.71" xlink:href="#g"/><linearGradient id="j" x1="876.44" y1="459.52" x2="876.44" y2="302.86" gradientUnits="userSpaceOnUse"><stop offset="0" stop-color="#110b42"/><stop offset="1" stop-color="#100b24"/></linearGradient><linearGradient id="k" x1="797.31" y1="424.03" x2="797.31" y2="406.79" gradientUnits="userSpaceOnUse"><stop offset="0" stop-color="#0b0b21"/><stop offset="1" stop-color="#050721"/></linearGradient><linearGradient id="l" x1="943.33" y1="439.9" x2="943.33" y2="422.39" xlink:href="#k"/><linearGradient id="m" x1="845.16" y1="377.38" x2="845.16" y2="374.19" xlink:href="#k"/><linearGradient id="n" x1="857.05" y1="376.94" x2="857.05" y2="374.51" xlink:href="#k"/><linearGradient id="o" x1="795.22" y1="430.67" x2="795.22" y2="418.64" xlink:href="#k"/><linearGradient id="p" x1="974.34" y1="366.96" x2="974.34" y2="363.18" xlink:href="#k"/><linearGradient id="q" x1="960.44" y1="370.23" x2="960.44" y2="365.4" xlink:href="#k"/><linearGradient id="r" x1="961.42" y1="368.74" x2="961.42" y2="363.95" xlink:href="#k"/><linearGradient id="s" x1="959.6" y1="350.92" x2="959.6" y2="341.57" xlink:href="#k"/><linearGradient id="t" x1="998.41" y1="334.4" x2="998.41" y2="330.07" xlink:href="#k"/></defs><g class="ar"><g id="a"><g id="b"><g id="c"><g id="d"><g id="e"><g><polygon class="aj" points="620.13 459.52 620.13 451.85 713.91 328.23 721.01 325.03 784.53 296.23 838.51 459.52 620.13 459.52"/><polygon class="am" points="713.91 328.23 720.76 329.27 662.91 417.04 720.76 337.04 735.79 356.6 694.47 445.09 620.13 451.85 713.91 328.23"/><polygon class="am" points="713.91 410.65 740.02 359.52 749.31 363.82 713.91 410.65"/><polygon class="am" points="700.11 437.15 713.91 410.65 709.01 426.97 700.11 437.15"/><polygon class="am" points="685.14 459.52 716.26 435.09 692.34 459.52 685.14 459.52"/><polygon class="am" points="696.09 459.52 713.91 440.68 742.83 432.3 719.46 459.52 696.09 459.52"/><polygon class="am" points="732.75 388.23 758.49 353.07 752.73 370.67 732.75 388.23"/><polygon class="z" points="694.47 445.09 694.33 451.85 701.38 446.77 700.11 437.15 712.92 412.56 711.97 407.6 694.47 445.09"/><polygon class="z" points="715.01 409.19 717.17 439.73 721.06 438.61 721.06 403.85 724.01 401.21 724.01 436.79 742.83 432.3 731.7 445.26 731.61 459.52 768.85 459.52 763.34 374.93 765.23 356.6 777.56 459.52 838.51 457.9 797.14 329.27 758.49 353.07 752.73 370.67 732.75 388.23 715.01 409.19"/><polygon class="am" points="724.01 425.54 739.98 415.98 735.79 422.39 724.01 425.54"/><polygon class="am" points="717.73 434.64 732.75 428.35 727.86 434.64 715.01 437.89 717.73 434.64"/><polygon class="am" points="677.66 448.56 687.83 447.21 680.11 450.79 677.66 448.56"/><polygon class="am" points="675.5 448.69 657.5 449 668.37 449.95 675.5 448.69"/><polygon class="y" points="657.5 440.53 670.74 429.72 664.09 439.22 657.5 440.53"/><polygon class="y" points="713.91 328.23 675.5 382.07 720.76 329.27 713.91 328.23"/><polygon class="y" points="688.72 377.88 685.36 380.6 681.06 389.5 688.72 377.88"/><polygon class="y" points="630.66 445.91 638.44 439.73 644.11 437.95 632.25 447.3 630.66 445.91"/><polygon class="y" points="687.83 445.69 703.62 421.83 705.83 420.76 694.47 445.09 687.83 445.69"/></g><g><polygon class="al" points="605.9 192.39 1012.86 198.42 1012.86 459.52 789.62 459.52 789.18 453.09 803.51 412.85 752.73 287.14 740.13 279.75 736.59 276.33 712.94 245.24 708.02 243.64 656.48 206.86 630.33 214.21 605.9 192.39"/><polygon class="aq" points="752.73 287.14 900.47 323.51 845.59 316.35 872.15 328.23 838.51 330.48 771.6 316.94 752.73 287.14"/><polygon class="aq" points="765.23 318.07 826.44 330.48 776.4 340.47 765.23 318.07"/><polygon class="aq" points="805.67 337.04 892.88 328.23 906.16 328.23 838.51 352.71 805.67 337.04"/><polygon class="aq" points="797.44 390.25 836.05 358.77 813.95 383.26 797.44 390.25"/><polygon class="aq" points="797.44 386.04 805.67 379.22 795.83 382.63 797.44 386.04"/><polygon class="aq" points="913.44 202.04 740.02 224.23 864.46 215.85 831.43 220.89 719.78 239.76 852.09 241.37 999.82 211.62 913.44 202.04"/><polygon class="aq" points="753.1 200.39 799.42 202.04 776.4 206.29 753.1 200.39"/><polygon class="aq" points="803.59 292.06 1012.86 302.86 916.91 311.55 826.88 297.74 843.5 297.74 803.59 292.06"/><polygon class="aq" points="760 288.93 803.59 292.06 789.41 292.06 760 288.93"/><polygon class="ai" points="872.15 196.94 913.44 179 934.44 197.26 872.15 196.94"/><polygon class="ao" points="831.43 196.94 826.6 194.48 812.61 196.94 831.43 196.94"/><polygon class="z" points="852.09 241.37 860.73 295.01 872.15 295.59 875.06 246.14 880.51 242.19 878.97 295.59 890.99 296.57 887.78 236.54 893.96 232.94 913.33 287.14 912.86 256.82 912.86 229.13 852.09 241.37"/><polygon class="z" points="719.78 239.76 730.7 268.19 712.94 245.24 707.5 224.23 740.02 224.23 766.91 222.42 766.91 231.79 719.78 239.76"/><polygon class="z" points="656.48 206.86 690.55 206.86 702.58 239.76 656.48 206.86"/><polygon class="z" points="776.4 230.19 778.61 221.63 793.24 220.65 790.01 227.89 776.4 230.19"/><polygon class="z" points="776.4 219.58 776.4 206.29 781.8 205.29 780.51 219.05 781.8 218.88 784.82 204.74 799.42 202.04 796.39 217.02 776.4 219.58"/><polygon class="z" points="745.62 240.07 765.23 287.66 762.03 288.93 740.02 240.07 745.62 240.07"/><polygon class="z" points="872.15 328.23 846.72 316.85 889.57 322.09 888.6 328.66 840.06 333.57 838.51 330.48 872.15 328.23"/><polygon class="z" points="826.44 330.48 826.6 334.93 828.73 334.93 827.96 328.34 801.54 323 801.54 325.43 826.44 330.48"/><polygon class="x" points="837.13 241.18 869.85 237.91 852.09 241.37 837.13 241.18"/><polygon class="z" points="842.63 351.21 845.59 398.05 848.05 394.64 848.05 351.21 853.15 348.68 853.49 373.36 867.8 363.82 866.07 342.73 842.63 351.21"/><polygon class="aq" points="872.15 196.94 901.99 194.48 912.98 183.11 913.44 179 872.15 196.94"/><polygon class="aq" points="908.52 270.77 1012.86 248.28 1012.86 273.94 953.12 275 978.47 272.19 908.52 270.77"/><polygon class="aq" points="948.79 275 903.29 278.31 920.05 281.55 948.79 275"/><polygon class="aq" points="966.91 222.42 1012.86 208.82 1012.86 218.2 966.91 222.42"/><polygon class="aq" points="758.8 245.18 822.02 242.19 779.97 250.51 758.8 245.18"/><polygon class="aq" points="732.75 200.39 721.61 197.95 724.43 202.04 732.75 200.39"/><polygon class="aq" points="966.91 231.43 982.37 226.35 976.08 231.69 966.91 231.43"/></g><g><polygon class="aa" points="740.02 445.78 848.05 358.37 913.74 328.23 960.67 310.93 1012.86 302.86 1012.86 459.52 881.9 459.52 760.26 459.52 760.21 458.23 753.53 450.46 740.02 445.78"/><polygon class="ak" points="740.02 445.78 818.2 427.38 872.15 374.93 831.43 408.24 826.88 407.6 877.47 358.77 848.05 358.37 740.02 445.78"/><polygon class="ak" points="895.17 349.77 872.15 374.93 960.67 310.93 929.61 313.77 895.17 349.77"/><polygon class="ak" points="760.21 458.23 808.75 442.06 831.43 443 789.62 459.52 760.21 458.23"/><polygon class="ak" points="805.67 459.52 892.88 413.63 839.92 448.18 1013.36 370.67 1013.02 431.7 925.49 459.52 805.67 459.52"/><polygon class="ak" points="818.87 429.99 853.23 398.05 841.1 416.03 818.87 429.99"/><polygon class="ak" points="831.43 439.22 839.08 435.09 845.59 435.09 831.43 439.22"/><polygon class="ak" points="892.88 413.63 1012.86 358.77 1013.36 308.81 892.88 413.63"/><polygon class="z" points="864.45 381.23 860.73 374.93 877.47 358.77 878.97 367.47 864.45 381.23"/><polygon class="z" points="875.06 372.82 881.78 418.64 886.4 417.04 882.54 373.77 892.88 413.63 910.82 392.64 908.05 348.97 912.86 390.25 912.86 345.49 875.06 372.82"/><polygon class="z" points="818.87 429.99 826.44 442.79 820.64 442.06 811.33 429 816.74 442.39 811.33 442.24 805.67 430.33 818.2 427.38 836.05 410.02 837.63 412.56 818.87 429.99"/><polygon class="z" points="831.43 443 832.34 445.48 833.65 444.8 831.43 439.22 834.54 437.15 830.97 422.39 825.19 426.03 831.43 443"/><polygon class="z" points="837.18 436.12 832.34 421.53 833.82 420.61 837.18 436.12"/><polygon class="ak" points="848.05 358.37 881.9 356.6 913.74 328.23 848.05 358.37"/><polygon class="z" points="889.57 349.77 889.57 355.89 903.85 340.7 903.85 337.04 889.57 349.77"/><polygon class="z" points="836.05 398.75 837.18 403.54 842.63 399.08 841.1 393.88 836.05 398.75"/><polygon class="z" points="879.44 422.39 879.44 427.85 869.85 432.78 869.85 428.66 879.44 422.39"/><polygon class="x" points="811.33 429 821.65 424.03 818.2 427.38 811.33 429"/><polygon class="an" points="826.88 407.6 766.91 424.03 827.72 406.79 826.88 407.6"/><polygon class="ap" points="897.28 422.39 987.22 439.9 989.37 439.22 897.28 422.39"/><g class="as"><polygon class="ak" points="799.42 399.42 834.54 374.93 851.59 375.72 818.87 392.6 799.42 399.42"/><polygon class="ak" points="816.74 398.05 828.73 390.25 831.43 392.1 824.09 398.58 816.74 398.05"/><polygon class="ak" points="787.75 418.12 799.42 410.02 839.34 395.57 827.72 406.79 787.75 418.12"/><polygon class="ak" points="777.56 423.9 805.67 415.98 805.67 418.64 777.56 423.9"/><polygon class="ak" points="836.94 454.77 885.69 432.3 900.47 433.94 875.06 450.78 879.44 450.79 909.57 432.3 912.86 431 913.62 454.77 836.94 454.77"/><polygon class="ak" points="834.54 454.62 849.88 447.3 844.36 447.3 824 455.21 834.54 454.62"/><polygon class="ak" points="758.8 296.72 821.84 313.28 825.5 318.07 762.28 302.22 765.23 306.87 811.99 318.07 815.13 325.75 771.6 316.94 758.8 296.72"/><polygon class="ak" points="838.51 330.48 836.81 325.21 840.73 325.21 843.32 330.16 838.51 330.48"/><polygon class="ak" points="661.37 435.49 715.01 376.9 726.86 375.72 699.72 433.84 661.37 435.49"/><polygon class="ak" points="646.08 440.68 664.09 415.41 655.09 415.45 634.93 441.28 646.08 440.68"/><polygon class="ak" points="671.78 419.94 671.78 415.41 686.75 401.21 671.78 419.94"/><polygon class="ak" points="758.49 240.23 845.59 229.13 872.15 227.51 815.13 239.64 758.49 240.23"/><polygon class="ak" points="822.02 241.37 840.06 237.91 855.22 237.91 843.32 241.37 822.02 241.37"/><path class="ak" d="M765.23,247.04c.07-.08,14.98,43.34,14.98,43.34l32.41,.11-19.38-49.13-28.01,5.67Z"/><polygon class="ak" points="799.42 253.03 815.13 288.93 822.02 288.03 813.81 250.51 799.42 253.03"/><polygon class="ak" points="908.75 229.97 924.46 265.88 931.35 264.97 923.14 227.45 908.75 229.97"/><polygon class="ak" points="754.57 239.76 828.73 229.13 773.15 230.19 719.78 239.76 754.57 239.76"/><polygon class="ak" points="882.71 233.87 898.7 230.19 912.86 229.13 888.12 234.11 882.71 233.87"/><polygon class="ak" points="888.25 245.32 892.79 282.08 903.85 283.59 892.79 245.32 888.25 245.32"/><polygon class="ak" points="740.02 359.52 730.65 377.88 735.79 379.22 749.31 363.82 740.02 359.52"/><polygon class="ak" points="797.44 356.97 813.55 363.01 821.65 349.77 803.59 337.6 797.44 356.97"/><polygon class="ak" points="793.86 354.12 797.44 340.47 793.86 342.73 793.86 354.12"/><polygon class="ak" points="697.34 225.42 688.45 202.04 700.01 200.39 700.01 225.42 697.34 225.42"/><polygon class="ak" points="822.02 266.42 820.14 262.85 823.93 262.85 825.5 268.19 822.02 266.42"/><polygon class="ak" points="985.08 236.9 983.19 233.34 986.98 233.34 988.56 238.68 985.08 236.9"/><polygon class="ak" points="784.82 385.29 781.8 375.94 788.92 373.77 788.92 383.52 784.82 385.29"/></g><g class="as"><polygon class="ae" points="682.12 439.08 672.62 434.2 672.89 431.32 683.6 436.9 682.12 439.08"/><polygon class="ae" points="839.51 326.07 826.62 319.13 820.19 307.64 842.67 322.95 839.51 326.07"/><path class="ae" d="M742.22,408.79l6.11-22.34s.37,.82,.68,.82-5.57,22.38-5.57,22.38l-1.22-.86Z"/><path class="ae" d="M806.56,372.3l2.55-9.34s.16,.34,.28,.34-2.33,9.36-2.33,9.36l-.51-.36Z"/><path class="ae" d="M965.49,292.07l2.55-9.34s.16,.34,.28,.34-2.33,9.36-2.33,9.36l-.51-.36Z"/><polygon class="ae" points="873.07 228.63 874.59 224.67 877.32 224.67 875.19 229.48 873.07 228.63"/><polygon class="ae" points="677.92 412.44 675.5 408.95 677.04 406.69 679.82 411.16 677.92 412.44"/><polygon class="ae" points="840.99 269.54 834.53 285.02 852.11 262.85 840.99 269.54"/><polygon class="ae" points="995 284.53 988.53 300.02 1006.11 277.84 995 284.53"/><polygon class="ae" points="903.58 359.29 904.5 359.29 904.04 368.38 902.29 368.38 903.58 359.29"/><polygon class="ae" points="760.39 313.52 761.32 313.52 760.85 322.61 759.11 322.61 760.39 313.52"/><polygon class="ae" points="883.39 430.55 889.19 439.9 893.39 438.26 885.69 427.98 883.39 430.55"/><polygon class="ae" points="684.86 435.06 685 432.95 687.83 434.88 686.61 435.15 684.86 435.06"/><polygon class="ae" points="722 233.08 723.62 238.94 726.86 238.94 724.43 233.08 722 233.08"/><polygon class="ae" points="831.09 379.79 832.17 382.93 831.63 383.3 831.09 380.79 831.09 379.79"/><polygon class="ae" points="789.07 353.71 790.52 353.02 790.52 354.25 789.34 354.25 789.07 353.71"/><polygon class="ae" points="877.13 400.24 879.22 399.38 879.22 401.2 878.18 401.88 877.13 400.24"/><polygon class="ae" points="839.33 419.7 841.5 414.67 843.63 414.67 840.69 419.7 839.33 419.7"/><polygon class="ae" points="812.16 348.38 813.07 346.28 813.96 346.28 812.73 348.38 812.16 348.38"/><polygon class="ae" points="859.36 271.11 866.74 261.6 871.2 264.14 862.2 272.19 859.36 271.11"/><polygon class="ae" points="991.11 249.56 993.06 237.68 998.19 237.78 994.12 249.15 991.11 249.56"/><polygon class="ae" points="937.41 412.28 944.79 402.76 949.25 405.3 940.25 413.35 937.41 412.28"/><polygon class="ae" points="888.52 222.42 895.9 212.9 900.35 215.44 891.36 223.49 888.52 222.42"/><polygon class="ae" points="974.04 286.51 981.42 277 985.88 279.53 976.88 287.58 974.04 286.51"/><polygon class="ae" points="859.78 284.89 860.62 282.69 863.69 282.29 860.45 285.14 859.78 284.89"/><polygon class="ae" points="853.96 223.6 854.79 221.39 857.86 220.99 854.62 223.85 853.96 223.6"/><polygon class="ae" points="811.98 347.75 813.26 343.23 812.03 342.83 811.4 347.75 811.98 347.75"/><polygon class="ae" points="942.32 284.75 943.59 280.23 942.37 279.83 941.73 284.75 942.32 284.75"/><polygon class="ae" points="941.38 250.74 942.66 246.22 941.43 245.82 940.8 250.74 941.38 250.74"/><polygon class="ae" points="787.95 355.3 787.95 352.26 787.36 352.26 787.65 355.36 787.95 355.3"/><polygon class="ae" points="943.89 242.86 943.89 239.81 943.3 239.81 943.59 242.92 943.89 242.86"/><polygon class="ae" points="788.67 354.07 789.05 351.72 789.66 351.72 789.05 354.07 788.67 354.07"/><polygon class="ae" points="692.78 423.39 694.55 432.25 699.16 434.16 694.67 423.39 692.78 423.39"/><polygon class="ae" points="709.73 205.43 711.5 214.28 716.11 216.19 711.62 205.43 709.73 205.43"/><polygon class="ae" points="697.91 425.54 699.16 429.82 700.88 429.82 699.16 426.39 697.91 425.54"/></g><polygon class="y" points="773.57 418.64 795.65 410.02 779.59 413.77 773.57 418.64"/><polygon class="y" points="827.72 406.79 812.16 414.33 824.61 414.67 831.43 408.24 827.72 406.79"/><polygon class="y" points="855.91 358.37 873.08 363.01 877.47 358.77 855.91 358.37"/><polygon class="y" points="878.97 367.47 893.39 354.07 898.09 346.82 878.97 367.47"/><polygon class="y" points="752.73 287.14 818.87 303.58 785.8 297.04 791.62 301.49 790.52 305.05 758.8 296.72 752.73 287.14"/><polygon class="y" points="776.4 206.29 799.42 202.04 765.97 203.65 776.4 206.29"/><polygon class="y" points="872.15 196.94 901.99 194.48 912.98 183.11 913.44 179 872.15 196.94"/><polygon class="y" points="826.6 194.48 825.91 195.71 816.61 195.71 826.6 194.48"/><polygon class="y" points="765.23 220.65 812.61 219.34 897.79 213.98 861.74 215.21 935.71 204.16 913.44 202.04 765.23 220.65"/><polygon class="y" points="816.49 417.19 818.87 415.98 821.13 415.98 819.69 417.19 816.49 417.19"/><polygon class="y" points="835.49 374.97 836.81 372.66 839.34 372.66 835.49 374.97"/><polygon class="y" points="835.01 377.88 836.05 376.94 836.81 376.94 835.91 378.55 835.01 377.88"/><polygon class="y" points="882.71 303.58 889.57 301.49 893.96 303 882.71 303.58"/><polygon class="y" points="712.92 367.81 715.01 365.19 715.01 367.81 712.92 367.81"/><polygon class="y" points="857.86 447.3 878.18 443.94 879.44 447.87 864.56 451.85 857.86 447.3"/><polygon class="y" points="872.15 451.85 875.06 450.78 879.44 450.79 872.15 451.85"/><polygon class="y" points="843.32 219.73 849.31 219.73 849.31 221.7 842.67 221.7 843.32 219.73"/><polygon class="y" points="848.75 223.49 855.91 222.42 851.59 224.67 848.75 223.49"/><polygon class="ak" points="935.46 459.52 954.66 459.52 974.75 445.78 935.46 459.52"/><polygon class="ak" points="962.49 456.7 968.94 452.65 986.37 452.65 995.59 455.21 969.82 457.9 962.49 456.7"/><polygon class="ak" points="988.77 443.94 997.67 439.9 1006.39 439.9 1001.08 442.79 988.77 443.94"/><polygon class="ak" points="983.65 443.94 988.26 442.89 992.11 440.35 978.47 444.33 983.65 443.94"/><polygon class="ak" points="916.41 344.23 942.66 326.2 932.05 339.43 927.25 341.83 916.41 344.23"/><polygon class="ak" points="917.53 347.75 925.36 346.82 921.44 348.38 914.75 348.38 917.53 347.75"/><polygon class="ak" points="920.05 385.09 925.36 376.94 935.46 372.66 935.02 374.48 920.05 385.91 920.05 385.09"/><polygon class="ak" points="917.4 389.38 923.9 385.29 917.4 390.96 915.13 391.72 917.4 389.38"/><polygon class="ak" points="939.76 349.77 960.67 327.84 1003.29 310.93 1008.47 308.81 958.64 352.26 939.76 349.77"/><polygon class="ak" points="863.9 421.99 877.49 414.73 888.99 412.38 876.44 418.45 863.9 421.99"/><polygon class="z" points="932.05 339.43 932.73 373.82 935.46 372.66 935.02 374.48 932.58 376.34 932.36 379.29 937.36 374.93 934.1 339.43 935.46 337.04 938.64 373.82 939.76 372.66 937.8 333.57 939.18 330.53 942.66 346.46 955.77 332.09 953.12 317.92 960.67 310.93 935.46 329.27 935.46 330.53 942.66 326.2 932.05 339.43"/><polygon class="z" points="958.64 352.26 958.72 356.35 990.91 328.34 992.2 323 958.64 352.26"/><polygon class="z" points="999.25 316.85 999.25 321.09 1002.73 318.07 1005.34 311.55 999.25 316.85"/><polygon class="z" points="936.29 393.78 933.7 406.27 943.52 401.88 944.94 392.6 946.36 390.96 946.32 400.63 949.04 399.42 949.04 390.25 984.41 372.66 984.56 383.54 991.44 380.47 993.41 368.38 994.96 366.96 994.09 379.29 1002.22 374.93 1001.79 363.84 936.29 393.78"/><polygon class="z" points="1013.02 431.7 994.45 437.15 994.45 441.36 997.67 439.9 1006.39 439.9 1001.08 442.79 1000.89 459.52 996.34 443.23 994.45 443.41 998.75 459.76 1012.86 459.52 1013.02 431.7"/><g><polygon class="ah" points="760.21 458.23 789.62 459.52 808.75 450.79 790 450.79 814.52 449.68 818.87 447.21 793 447.3 760.21 458.23"/><polygon class="ah" points="808.75 457.9 879.98 455.5 813.31 455.5 808.75 457.9"/><polygon class="ah" points="838.51 442.24 851.43 440.68 867.8 429.99 859.27 431.32 838.51 442.24"/><polygon class="ah" points="837.63 412.56 844.36 411.2 853.23 398.05 837.63 412.56"/><polygon class="ah" points="851.59 402.08 855.91 398.05 859.27 396.08 855.91 401.21 851.59 402.08"/><polygon class="ah" points="848.05 394.64 860.73 386.97 870.92 375.94 848.05 394.64"/><polygon class="ah" points="838.51 369.11 843.33 362.2 848.05 362.2 842.63 369.11 838.51 369.11"/><polygon class="ah" points="882.71 329.26 895.5 332.09 906.16 328.23 894.44 328.23 882.71 329.26"/><polygon class="ah" points="869.85 330.56 880.89 333.57 874.65 330.07 869.85 330.56"/><polygon class="ah" points="859.27 297.74 869.85 298.88 864.56 300.02 859.27 297.74"/><polygon class="ah" points="740.02 445.78 760 434.64 800.75 429.99 797.63 432.22 740.02 445.78"/><polygon class="ah" points="756.29 432.62 765.23 431 770.39 424.94 761.56 428.36 756.29 432.62"/><polygon class="ah" points="906.38 401.88 925.36 399.08 948.43 388.23 929.53 390.25 952.32 386.45 953.5 385.91 921.76 388.51 906.38 401.88"/><polygon class="ah" points="925.73 385.05 950.87 381.19 927.76 383.3 925.73 385.05"/><polygon class="ah" points="955.1 396.71 1012.86 378.55 1013.36 370.67 955.1 396.71"/><polygon class="ah" points="942.66 405.61 978.47 396.71 984.23 399.42 949.23 408.06 942.66 405.61"/><polygon class="ah" points="938.3 454.77 973.28 444.33 943.33 450.79 938.3 454.77"/><polygon class="ah" points="960.88 350.31 967.96 340.47 988.53 326.2 960.88 350.31"/><polygon class="ah" points="948.29 340.82 974.71 332.09 995.59 320.04 1001.04 315.29 981.03 319.76 960.67 327.84 948.29 340.82"/></g><polygon class="y" points="953.5 385.91 958.64 381.23 974.12 375.94 953.5 385.91"/><polygon class="y" points="989.37 439.22 961.68 434.16 994.45 437.15 996.17 436.65 985.29 434.16 988.01 432.78 1008.28 433.09 989.37 439.22"/><polygon class="y" points="982.7 432.78 979.96 431.7 979.96 431.15 982.7 429.99 982.7 432.78"/><polygon class="y" points="938.3 444.33 940.64 443.94 943.33 443.94 938.3 444.96 938.3 444.33"/><polygon class="y" points="972.91 355.24 975.25 354.85 977.93 354.85 972.91 355.87 972.91 355.24"/><polygon class="y" points="969.82 457.9 979.04 455.28 995.59 455.21 969.82 457.9"/><polygon class="y" points="889.57 454.77 897.28 449.55 903.4 449.55 894.44 453.36 889.57 454.77"/><polygon class="y" points="906.35 449.07 908.94 447.89 909.52 447.89 907.93 449.07 906.35 449.07"/><polygon class="y" points="915.73 418.12 916.41 417.19 922.17 416.58 923.9 417.19 916.41 418.64 915.73 418.12"/><polygon class="y" points="908.19 420 909.14 419.34 907.77 419.34 904.64 420.71 908.19 420"/><polygon class="y" points="963.45 367.47 967.96 362.2 974.75 361.13 964.89 367.47 963.45 367.47"/><polygon class="y" points="965.53 369.11 969.1 367.47 967.96 369.11 965.53 370 965.53 369.11"/><polygon class="y" points="953.12 344.23 955.1 341.57 956.94 341.57 955.03 344.23 953.12 344.23"/><polygon class="y" points="925.24 306.38 927.22 303.73 929.05 303.73 927.14 306.38 925.24 306.38"/><polygon class="y" points="933.7 327.84 936.85 324.36 939.76 323 933.7 327.84"/><polygon class="y" points="988.53 406.27 992.2 403.54 999.25 403.54 988.53 406.27"/></g><polygon class="ad" points="828.14 374.19 860.73 374.93 862.17 377.38 861.49 374.19 828.14 374.19"/><polygon class="ab" points="858.64 376.94 855.22 374.51 858.89 376.7 858.64 376.94"/><polygon class="v" points="785.34 418.8 804.24 430.67 805.1 430.67 794.75 424.31 786.6 419.16 786.58 418.64 785.34 418.8"/><polygon class="ag" points="950.87 363.18 994.96 366.96 997.81 365.65 961.2 363.84 950.87 363.18"/><polygon class="af" points="942.76 370.23 959.4 368.74 978.13 365.51 976.83 365.4 959.2 368.65 942.76 370.23"/><polygon class="ac" points="963.45 363.95 959.4 368.74 959.92 368.52 963.45 364.25 963.45 363.95"/><polygon class="w" points="948.29 350.89 970.9 341.57 969.37 342.9 966.86 343.42 948.48 350.92 948.29 350.89"/><polygon class="u" points="984.23 334.15 1012.86 330.07 1012.86 331.82 1011.22 330.77 983.95 334.4 984.23 334.15"/></g></g></g></g></g></g></svg>