<?xml version="1.0" encoding="UTF-8"?><svg id="a" xmlns="http://www.w3.org/2000/svg" viewBox="0 0 1121.02 470.93"><defs><style>.f{fill:#c4d6ff;}</style></defs><g id="b"><g id="c"><g id="d"><g id="e"><circle class="f" cx="281.86" cy="113.41" r=".45"/><circle class="f" cx="274.15" cy="89.17" r=".45"/><circle class="f" cx="940.55" cy="128.33" r=".45"/><circle class="f" cx="975.58" cy="95.55" r=".45"/><circle class="f" cx="292.65" cy="119.91" r=".45"/><path class="f" d="M590.91,178.06c0,.25-.2,.45-.45,.45s-.45-.2-.45-.45,.2-.45,.45-.45,.45,.2,.45,.45Z"/><circle class="f" cx="607.89" cy="186.61" r=".45"/><circle class="f" cx="744.85" cy="94.8" r=".45"/><circle class="f" cx="1120.57" cy="96" r=".45"/><circle class="f" cx="905.45" cy="77.2" r=".45"/><circle class="f" cx="836.3" cy="81.39" r=".45"/><circle class="f" cx="497.79" cy="180.08" r=".45"/><circle class="f" cx="441.01" cy="103.88" r=".45"/><circle class="f" cx="456.03" cy="92.24" r=".45"/><circle class="f" cx="794.71" cy="112.93" r=".45"/><circle class="f" cx="451.28" cy="187.06" r=".45"/><path class="f" d="M601.07,112.93c0,.25-.2,.45-.45,.45s-.45-.2-.45-.45,.2-.45,.45-.45,.45,.2,.45,.45Z"/><circle class="f" cx="281.73" cy="157.81" r=".45"/><circle class="f" cx="299.16" cy="166.36" r=".45"/><path class="f" d="M189.51,159.84c0,.25-.2,.45-.45,.45s-.45-.2-.45-.45,.2-.45,.45-.45,.45,.2,.45,.45Z"/><circle class="f" cx="132.28" cy="83.63" r=".45"/><circle class="f" cx="177.5" cy="84.53" r=".45"/><circle class="f" cx="142.55" cy="166.81" r=".45"/><circle class="f" cx="291.89" cy="92.68" r=".45"/><circle class="f" cx="759.31" cy="110.46" r=".45"/><circle class="f" cx="915.43" cy="116.92" r=".45"/><circle class="f" cx="759.75" cy="155.42" r=".45"/><circle class="f" cx="811.57" cy="169.05" r=".45"/><circle class="f" cx="1019.41" cy="143.1" r=".45"/><circle class="f" cx="482.83" cy="127.59" r=".45"/><circle class="f" cx="517.86" cy="94.81" r=".45"/><circle class="f" cx="287.13" cy="94.06" r=".45"/><path class="f" d="M448.17,76.46c0,.25-.2,.45-.45,.45s-.45-.2-.45-.45,.2-.45,.45-.45,.45,.2,.45,.45Z"/><circle class="f" cx="378.58" cy="80.65" r=".45"/><circle class="f" cx="336.99" cy="112.19" r=".45"/><circle class="f" cx="301.58" cy="109.72" r=".45"/><circle class="f" cx="501.37" cy="76.01" r=".45"/><circle class="f" cx="21.13" cy="104.74" r=".45"/><circle class="f" cx="36.15" cy="93.1" r=".45"/><path class="f" d="M63.39,128.45c0,.25-.2,.45-.45,.45s-.45-.2-.45-.45,.2-.45,.45-.45,.45,.2,.45,.45Z"/><circle class="f" cx="97.98" cy="95.67" r=".45"/><circle class="f" cx="27.84" cy="77.32" r=".45"/><circle class="f" cx="81.49" cy="76.87" r=".45"/><circle class="f" cx="302.03" cy="154.68" r=".45"/><circle class="f" cx="353.85" cy="168.31" r=".45"/><circle class="f" cx="561.68" cy="142.36" r=".45"/></g></g></g></g></svg>