<?xml version="1.0" encoding="UTF-8"?><svg id="a" xmlns="http://www.w3.org/2000/svg" xmlns:xlink="http://www.w3.org/1999/xlink" viewBox="0 0 1121.02 470.93"><defs><style>.o{fill:url(#j);}.p{fill:url(#m);}.q{fill:url(#h);}.r{fill:url(#i);}.s{fill:#4638a6;}.t{fill:url(#n);}.u{fill:#171536;}.u,.v,.w,.x,.y,.z{fill-rule:evenodd;}.v{fill:url(#f);}.aa{fill:#150c29;}.w{fill:url(#g);}.x{fill:url(#k);}.y{fill:url(#l);}.z{fill:#16638a;}</style><linearGradient id="f" x1="385.22" y1="195.87" x2="385.22" y2="152.59" gradientUnits="userSpaceOnUse"><stop offset="0" stop-color="#170d36"/><stop offset="1" stop-color="#13062e"/></linearGradient><linearGradient id="g" x1="610.92" y1="189.35" x2="610.92" y2="142.45" xlink:href="#f"/><linearGradient id="h" x1="497.85" y1="234.44" x2="497.85" y2="188.81" xlink:href="#f"/><linearGradient id="i" x1="384.85" y1="173.02" x2="612.86" y2="173.02" xlink:href="#f"/><linearGradient id="j" x1="383.23" y1="176.33" x2="612.85" y2="176.33" xlink:href="#f"/><linearGradient id="k" x1="444.37" y1="212.54" x2="444.37" y2="177.4" xlink:href="#f"/><linearGradient id="l" x1="548.13" y1="197.95" x2="548.13" y2="175.31" xlink:href="#f"/><linearGradient id="m" x1="327.42" y1="181.2" x2="383.75" y2="181.2" gradientTransform="translate(148.46 -159.94) rotate(31.73)" xlink:href="#f"/><linearGradient id="n" x1="613.66" y1="174.24" x2="662.06" y2="174.24" gradientTransform="translate(387.24 -437.66) rotate(52.45)" xlink:href="#f"/></defs><g id="b"><g id="c"><g id="d"><g id="e"><polygon class="v" points="387.88 195.87 381.57 152.59 384.22 152.59 386.3 176.09 386.92 176.7 388.86 195.87 387.88 195.87"/><polygon class="w" points="607.47 189.35 610.88 144.47 614.37 142.45 609.74 179.75 610.02 181.85 608.6 189.05 607.47 189.35"/><path class="q" d="M506.61,234.44c-1.11,0-2.24-.02-3.37-.05-32.58-.89-60.94-11.54-78.99-20.32-18.74-9.11-30.56-18.14-31.62-18.96l-5.51,.38-.03-.5,5.71-.39,.08,.06c.48,.38,48.21,37.52,110.39,39.23,32.46,.89,58.59-11.34,74.79-21.75,17.56-11.29,27.57-22.94,27.66-23.06l.07-.08,2.8-.2,.04,.5-2.59,.18c-.92,1.05-10.84,12.23-27.69,23.07-15.7,10.1-40.68,21.89-71.72,21.89Z"/><polygon class="aa" points="387.18 197.2 404.89 201.06 405.69 199.13 395.07 194.38 393.6 197.79 392.34 196.85 387.18 197.2"/><polygon class="aa" points="397.26 200.38 413.37 211.21 415.14 207.61 412.52 205.52 411.32 209.11 397.26 200.38"/><polygon class="aa" points="415.14 211.22 422.9 217.17 430.66 220.11 431.49 217.17 430.66 214.73 429.85 217.92 415.14 211.22"/><g><path class="s" d="M393.6,197.79c-.56-.41-.99-.73-1.27-.95l-5.16,.35-.16-3.91,6.07-.42,.39,.31s.55,.44,1.58,1.19l-1.47,3.41Z"/><path class="s" d="M506.67,236.15c-1.14,0-2.29-.02-3.45-.05-3.9-.11-7.88-.36-11.82-.74l.22-3.9c3.89,.38,7.81,.63,11.66,.73,1.14,.03,2.26,.05,3.39,.05h.28s.02,3.91,.02,3.91h-.29Zm4.44-.08l-.66-5.41h15.83l.37,3.88c-5.13,.83-10.36,1.35-15.55,1.53Zm-23.85-1.17c-5.1-.62-10.29-1.49-15.43-2.57l.48-3.86c5.07,1.07,10.2,1.92,15.23,2.54l-.28,3.9Zm43.52-1.1l-.45-3.87c5.02-.98,10.06-2.3,15.01-3.92l.73,3.79c-5.04,1.65-10.18,2.99-15.29,3.99Zm-63.04-2.37c-5.05-1.18-10.17-2.6-15.21-4.21l.71-3.8c4.98,1.59,10.04,2.99,15.03,4.16l-.53,3.85Zm82.35-3l-.8-3.77c4.89-1.77,9.78-3.88,14.54-6.25l1.07,3.65c-4.84,2.42-9.83,4.56-14.81,6.37Zm-101.51-1l-14.97-7.27,.94-3.72c4.87,2.08,9.83,3.99,14.74,5.67l-.7,5.32Zm120.19-7.37l-1.14-3.62,13.27-9.79,1.99,4.78c-4.57,3.15-9.32,6.05-14.12,8.63Zm-138.92-2.13l-14.71-6.7,1.15-3.61c4.68,2.53,9.52,4.93,14.37,7.11l-.8,3.2Zm-18.53-8.81c-5-2.84-9.73-5.78-14.06-8.73l1.04-2.58c2.93,2,8.07,4.24,14.22,7.73l-1.2,3.59Zm175.22-.29l-1.47-3.41c4.59-3.36,8.94-6.94,12.94-10.65l1.74,3.19c-4.08,3.79-8.53,7.44-13.21,10.87Z"/><path class="s" d="M603.09,194.74l-1.82-3.11c2.36-2.36,3.62-3.83,3.63-3.84l.39-.46,3.23-.23,.16,3.91-2.18,.15c-.56,.63-1.71,1.88-3.41,3.58Z"/></g><polygon class="aa" points="449.28 222.1 452.06 225.05 451.74 228.03 448.75 228.03 436.89 222.8 433.61 220.15 448.58 227.42 449.28 222.1"/><polygon class="aa" points="452.54 227.22 456 229.29 468.28 232.66 469.1 229.94 468.28 227.58 467.75 231.43 452.54 227.22"/><polygon class="aa" points="471.84 232.34 477.38 234.9 487.55 236.07 488.12 233.04 487.55 231.01 487.27 234.9 471.84 232.34"/><polygon class="aa" points="491.4 235.36 494.81 236.15 506.96 236.84 506.96 236.15 491.4 235.36"/><polygon class="aa" points="511.11 236.07 511.11 236.84 523.69 236.07 526.66 234.54 511.11 236.07"/><polygon class="aa" points="530.34 229.93 529.44 232.08 530.34 235.36 544.7 231.43 546.07 229.81 530.78 233.8 530.34 229.93"/><polygon class="aa" points="549.29 224.65 548.4 227 548.85 230.66 564.03 223.41 564.9 222.05 550.09 228.42 549.29 224.65"/><polygon class="aa" points="567.62 216.43 565.2 219.81 566.53 222.8 581.27 213.34 582.89 211.42 568.77 220.05 567.62 216.43"/><polygon class="aa" points="585.07 205.41 582.89 208.82 583.47 211.16 586.67 210.19 599.02 199.35 599.75 197.95 586.54 208.82 585.07 205.41"/><polygon class="aa" points="601.27 191.63 598.51 195.68 599.75 197.95 606.66 192.31 608.47 191.91 608.68 191.01 606.5 191.16 603.09 194.74 601.27 191.63"/><path class="r" d="M489.71,191.72c-34.17,0-60.66-8.04-76.97-14.84-17.97-7.5-27.79-15.17-27.89-15.24l.31-.39c.1,.08,9.88,7.71,27.79,15.18,16.53,6.89,43.55,15.08,78.44,14.79,36.52-.28,67.52-10.3,87.1-18.66,21.21-9.06,33.95-18.16,34.07-18.25l.29,.41c-.13,.09-12.9,9.22-34.16,18.3-19.62,8.38-50.69,18.42-87.3,18.7-.56,0-1.13,0-1.69,0Z"/><path class="o" d="M477.98,197.12c-6.89,0-13.6-.4-20.13-1.19-28.58-3.46-53.68-14.57-74.61-33l.33-.38c47.24,41.6,106.97,37.48,148.77,26.71,45.32-11.69,79.9-33.5,80.25-33.72l.27,.42c-.34,.22-34.99,22.07-80.38,33.78-19.04,4.91-37.3,7.38-54.49,7.38Z"/><polygon class="z" points="388.86 193.17 391.05 191.48 395.62 193.63 417.17 207.61 447.98 220.8 466.77 227.22 453.25 223.42 452.75 226.06 448.86 224.26 449.28 222.1 434.54 216.43 433.86 219.13 430.23 216.43 430.66 214.73 416.29 207.61 415.58 209.35 411.82 207.61 412.52 205.52 398.3 197.79 397.96 198.64 397.26 200.38 396.44 227.42 395.07 229.94 394.03 246.75 395.07 199.56 394.03 200.38 394.03 224.72 392.35 192.88 388.86 193.17"/><polygon class="z" points="605.29 187.33 603.59 187.1 589.93 201.04 580.22 206.04 556.55 220.34 536.43 227.42 527.65 230.66 516.56 229.23 514.89 230.66 526.29 230.66 526.66 234.54 526.66 244.68 527.14 244.68 527.9 265.11 528.28 234.9 529.04 234.54 529.44 243.7 530.34 235.36 530.34 229.93 537.76 228.42 545.34 226.01 546.07 229.81 546.07 232.87 547.1 228.42 547.33 228.88 548.58 228.42 549.29 224.65 557.1 221.54 563.83 218.4 564.9 222.05 567.62 220.85 567.62 216.43 580.89 206.64 582.57 210.66 586.54 208.82 585.07 205.41 592.72 199.42 598.01 194.76 599.16 196.87 602.21 195.95 601.27 191.63 605.29 187.33"/><polygon class="z" points="465.98 226.95 466.66 226.11 483.68 230.49 472.32 228.47 471.92 231.69 468.28 227.58 465.98 226.95"/><polygon class="z" points="487.55 231.01 500.65 230.66 506.94 232.24 499 232.24 491.62 231.46 491.49 233.8 487.55 234.9 487.55 231.01"/><path class="x" d="M414.66,177.4s11.15,6.78,30.91,10.83l1.17-1.12,1.25,25.44v-23.94l1.3-.38,.75,1.71,.38-.88s7.33,2.57,14.15,2.42c6.82-.15,8.77-.61,8.77-.61l.77,3.52v-3.47s-38.67-5.84-59.44-13.52Z"/><path class="y" d="M522.22,191.48s25.39-5.58,51.82-16.16l-2.12,22.64,1.26-21.64-2.27,1.09s-1.55,6.41-16.12,6.15l-1.18,3.08-.11-3s-17.72,7.33-31.28,7.84Z"/><polygon class="z" points="605.29 187.33 608.52 187.1 608.47 191.91 606.66 192.31 635.08 192.82 615.69 191.01 614.81 190.37 615.82 184.06 614.37 189.35 614.37 184.75 609.66 183.68 608.68 186.63 609.31 183.68 605.31 184.78 605.29 187.33"/><polygon class="z" points="388.86 193.17 387.02 193.29 387.18 197.2 374.92 197.79 374.28 193.96 374.92 193.77 375.11 196.94 376.06 192.88 385.22 191.47 386.24 194.63 385.22 188.7 389.27 187.66 388.86 193.17"/><polygon class="u" points="609.25 153.84 609.25 159.52 612.72 159.52 614.37 153.84 609.25 153.84"/><polygon class="u" points="381.57 159.99 385.22 159.14 385.67 165.71 382.59 166.01 381.57 159.99"/><rect class="p" x="322.61" y="180.95" width="65.94" height=".5" transform="translate(-42.15 214.11) rotate(-31.73)"/><rect class="t" x="637.61" y="143.91" width=".5" height="60.67" transform="translate(110.96 573.74) rotate(-52.45)"/><polygon class="u" points="660.98 193.21 661.9 189.05 663.06 189.05 662.02 193.46 660.98 193.21"/><polygon class="u" points="327.49 200.3 326.79 197.27 327.98 196.2 328.31 200.3 327.49 200.3"/></g></g></g></g></svg>