<?xml version="1.0" encoding="UTF-8"?><svg id="a" xmlns="http://www.w3.org/2000/svg" viewBox="0 0 1121.02 470.93"><defs><style>.f{fill:#d1ecff;fill-rule:evenodd;}</style></defs><g id="b"><g id="c"><g id="d"><g id="e"><path class="f" d="M1014.36,306.81l-.5,.43v-110.82l-78.42-1.16h0l-21-18.26-39.95,17.35-44.49-.66-2.39-1.22-8.58,1.06-155.95-2.31,.99-4.17h-1.16l-.64,2.86-47.3-36.36-.15,.2,.56-1.92h-1.41l1.41-11.39-3.49,2.02-.71,9.37h-.91v2.68c-5.09,3.26-15.81,9.66-30.76,16.04-19.57,8.36-50.57,18.38-87.1,18.66-7.22,.06-14.09-.25-20.61-.83-8.72-1.42-32.96-5.62-50.25-11.01-2.73-.99-5.27-1.99-7.59-2.96-16.49-6.88-26.08-13.89-27.58-15.02l-.16-2.27-.41,.09-.59-6.65h-2.65l1.05,7.16-1.05,.24,.75,4.37-54.19,33.54-.14-1.71-1.19,1.07,.69,3-31.19,1.59,1.9-4.92h-4.53s-6.06,5.17-6.06,5.17h0s-9.92-8.57-9.92-8.57l-.53,.08-.1-.08-20.65,3.4-5.71,6.99-20.76,1.02-.02,.29-14.89,.76L13.86,192.4v144.74l-3.61-1.88-.28,2.88,3.88,1.99v117.39h118.6l25.35,11.41-19.86-11.41h89.35l10.87,3.33-3.06-8.81-1.83-5.39h0l-4.56-13.1,24.94-77.83h2.85l4.04-4.05,7.07-4.48-21.15-13.43-3.93-2.26,2.96-19.73h0l.44-2.96,3.51-5.12,28.84-19.12h0s45.45-30.14,45.45-30.14l5.56-7.04,6.44-2.88,20.08-17.59,21.22-22.39h7.7l7.83-8.38,1.05,.23,1.39,26.33v-24.34s1.05-.82,1.05-.82l-1.04,47.19,1.04-16.81,1.36-2.52,.82-27.05,16.11,10.83,1.08-2.2c.39,.21,.79,.43,1.19,.65l-.5,1.57,7.76,5.94,7.76,2.95,.76-2.71c.09,.04,.19,.08,.29,.13l2.16,1.6-.26,1.02,3.29,2.65,11.86,5.22h2.99s.25-2.32,.25-2.32l.76,.35-.22,1.16,3.47,2.07,12.27,3.38,.82-2.69c.54,.12,1.09,.24,1.63,.36l1.19,1.35,.13-1.06h0l-.21,1.71,5.54,2.57,10.17,1.17,.23-1.23,3.71-1.04-.09,1.56,3.41,.79,12.15,.69v-2.4c1.32,0,2.64-.03,3.95-.08l.21,1.71v.77l12.58-.77,2.97-1.53v10.15h.48l.76,20.43,.38-30.21,.76-.37,.4,9.16,.9-8.34,14.37-3.93,1.37-1.62v3.06l1.03-4.45,.22,.45,1.25-.45h0s.27,2.23,.27,2.23l15.18-7.24,.87-1.36,1.08-.48,.54,1.23,14.74-9.46,1.62-1.93-.62-1.48h0l.3,.73,.69-.32,.2,.82,3.2-.97,12.35-10.83,.73-1.4-.75-1.38h0s.75,1.38,.75,1.38l2.46-2.01h0s4.01-3.27,4.01-3.27l24.11,21.54,26.15-7.36,46.1,32.9h0s5.44,3.88,5.44,3.88l4.93,1.6,23.65,31.09,3.54,3.41,12.6,7.4,8.02,19.87-39.74,18.02-7.11,3.21-93.78,123.62v7.67h378.55l.06,.24,14.12-.24,.16-27.82,.34-61.03-.5,.22v-12.12l.5-49.96Zm-404.11-151.27c-2.81,1.64-7.31,4.18-13.19,7.2,5.87-3.11,10.34-5.81,13.19-7.63v.43Zm-119.54,34.18c.56,0,1.13,0,1.69,0,36.35-.28,67.24-10.18,86.88-18.52-5.19,2.28-10.85,4.61-16.89,6.86-21.33,7.5-39.16,11.42-39.16,11.42,.35-.01,.7-.03,1.06-.06-22.36,4.89-48.78,7.36-75.3,2.36v-5.17l1.3-.38,.75,1.71,.38-.88s7.33,2.57,14.15,2.42c4.23-.1,6.58-.31,7.76-.46,.35,.03,.7,.06,1.06,.08l.72,3.28v-3.22c5.01,.36,10.22,.57,15.62,.57Zm-76.97-14.84c1.16,.48,2.37,.97,3.64,1.47,3.83,2.01,13.94,6.76,29.19,9.88l.98-.94c.07,.01,.14,.03,.21,.04l.31,6.26c-21.13-4.13-42.29-13.04-61.48-29.3l-.16-2.22c2.32,1.71,11.77,8.32,27.32,14.82Zm-84.44,23.34l-.14-1.76,54.24-33.57,.19,1.12,.92-.09,3.27,22.38-1.56,.4,1.03,5.93-1.03-3.16-9.16,1.4-.95,4.06-.19-3.17-.64,.19,.64,3.84,12.26-.59,.09,.02-58.97,3.01Zm79.68,2.83c-1.6-.84-3.08-1.59-4.43-2.29l.35,.08,4.07,2.21Zm-20.96-9.76l.48-.03h0l-.48,.03Zm28.68,15.77l.59-1.45,14.37,7.11c-4.85-2.19-9.69-4.58-14.37-7.11l-.48,1.51s-.07-.04-.11-.06Zm37.55,14.36l13.27,3.73c-4.42-1.08-8.87-2.32-13.27-3.73Zm-18.71-6.98l14.74,5.67c-4.91-1.68-9.87-3.59-14.74-5.67Zm34.38,12.99l-.64-1.84c-.53-.12-1.07-.26-1.6-.39l-.7-.24,2.3,.63,1.88,2.13c-.41-.09-.83-.19-1.24-.28Zm3.19,.71l.2-1.65,11.35,2.02c-3.77-.55-7.57-1.22-11.35-2.02l-.2,1.65h0Zm34.84,3.81v-1.7s-.28,0-.28,0c-.01,0-.03,0-.05,0h.32l-6.29-1.58-13.11,.35c-1.28-.16-2.57-.33-3.87-.52l-17.02-4.39-.68,.84-18-6.14-30.81-13.19-11.82-7.67,.34-.82-5.13-2.29-4.95-3.21-4.57-2.15-2.19,1.69,3.49-.29v.05s-3.76,.26-3.76,.26h0l.27-.02,.41-5.51-1.21,.31-1.14-11.26-.61-.62-.92-10.35,.29-.03-.05-.75c17.74,14.93,38.36,24.76,61.47,29.28l.9,18.31v-18.14c3.24,.61,6.52,1.13,9.86,1.54,6.53,.79,13.25,1.19,20.13,1.19,15.65,0,32.18-2.05,49.39-6.12,12.5-1.73,26.14-7.37,26.14-7.37l.11,3,1.18-3.08c14.57,.25,16.12-6.15,16.12-6.15l2.27-1.09-1.26,21.64,2.09-22.38c16.81-7.09,29.4-14.04,35.23-17.45v1.4h.48l-1.87,24.56-2.56,.7v2.54s-.41,.46-.41,.46c-.01,.01-1.27,1.48-3.63,3.84l4.02-4.3-1.7-.23-13.67,13.94-9.71,5-23.66,14.3-20.12,7.08-8.78,3.23-11.09-1.42-1.67,1.42h-4.44l.39,3.2c-1.29,.04-2.58,.07-3.89,.08Zm78.12-28.53l7.4-5.8c-2.38,1.99-4.85,3.93-7.4,5.8Zm-35.78,19.24l7.67-3.06c-2.54,1.1-5.11,2.13-7.67,3.06Zm8.15-3.27l6.39-2.98c-2.11,1.05-4.24,2.04-6.39,2.98Zm24.64-11.92l-1.18-2.82,1.18,2.82h0Zm16.68-13.34l-.74-1.36c-1.55,1.43-3.16,2.84-4.8,4.23l4.8-4.23,.65,1.19,.09,.17h0Zm7.8-3.72l.11-.09,28.42,.51-19.39-1.82-.88-.63,1.01-6.32-1.45,5.29v-4.6l-4.71-1.07,.36-1.83-.28-2.1,2.51-20.23h.47l1.02-3.51,47.41,36.45-.17,.75h0l-54.43-.81Z"/><polygon class="f" points="269.64 432.65 279.89 444.21 283.99 444.21 292.57 457.52 306.72 457.52 312.21 457.52 355.79 457.52 368.53 457.52 374.77 450.03 384.54 450.03 419.29 393.76 419.29 387.55 275.2 428.55 269.64 432.65"/></g></g></g></g></svg>